<?xml version="1.0"?>
<svg xmlns="http://www.w3.org/2000/svg" viewBox="0 0 64 64" width="512" height="512"><g id="Donate"><path d="M32,15a3,3,0,1,1,3-3,1,1,0,0,1-2,0,1,1,0,1,0-1,1,1,1,0,0,1,0,2Z"/><path d="M32,19a3.0033,3.0033,0,0,1-3-3,1,1,0,0,1,2,0,1,1,0,1,0,1-1,1,1,0,0,1,0-2,3,3,0,0,1,0,6Z"/><path d="M32,11a1,1,0,0,1-1-1V9a1,1,0,0,1,2,0v1A1,1,0,0,1,32,11Z"/><path d="M32,20a1,1,0,0,1-1-1V18a1,1,0,0,1,2,0v1A1,1,0,0,1,32,20Z"/><path d="M32,24A10,10,0,1,1,42,14,10.0114,10.0114,0,0,1,32,24ZM32,6a8,8,0,1,0,8,8A8.0092,8.0092,0,0,0,32,6Z"/><path d="M45,24H19a1,1,0,0,1,0-2H45a1,1,0,0,1,0,2Z"/><path d="M6.999,30a1,1,0,0,1-.8935-1.4473l6-12A1,1,0,0,1,13,16H23.52a1,1,0,0,1,0,2H13.6182L7.8945,29.4473A1,1,0,0,1,6.999,30Z"/><path d="M57.001,30a.9991.9991,0,0,1-.8955-.5527L50.3818,18H40.4805a1,1,0,0,1,0-2H51a1,1,0,0,1,.8945.5527l6,12A1,1,0,0,1,57.001,30Z"/><path d="M57,60H7a1,1,0,0,1-1-1V29a1,1,0,0,1,2,0V58H56V29a1,1,0,0,1,2,0V59A1,1,0,0,1,57,60Z"/><path d="M57,30H7a1,1,0,0,1,0-2H57a1,1,0,0,1,0,2Z"/><path d="M32,53.51a.9967.9967,0,0,1-.707-.293l-8.4854-8.4854a6,6,0,0,1,8.4854-8.4848l.707.707.707-.707a6.0069,6.0069,0,0,1,8.4854,0h0a6.0071,6.0071,0,0,1,0,8.4848L32.707,53.2173A.9967.9967,0,0,1,32,53.51ZM27.0508,36.4917a3.9978,3.9978,0,0,0-2.8291,6.8262L32,51.0962l7.7783-7.7783a4.0063,4.0063,0,0,0,0-5.6568h0a4.0069,4.0069,0,0,0-5.6572,0L32.707,39.0752a1,1,0,0,1-1.414,0l-1.4141-1.4141A3.991,3.991,0,0,0,27.0508,36.4917Z"/></g></svg>
