<svg id="Layer_1" viewBox="0 0 512 512" xmlns="http://www.w3.org/2000/svg" data-name="Layer 1"><path d="m71.758 452.719-42.478-42.478a66 66 0 1 1 93.44 0l-42.478 42.478a6 6 0 0 1 -8.484 0zm264.154-359.9-40.494 23.381.006.01-40.563 23.419a5.992 5.992 0 0 1 -8.986-5.179h-.014v-17.419h-66.848a6 6 0 0 1 -6-6v-46.839a6 6 0 0 1 6-6h66.848v-17.419a5.992 5.992 0 0 1 9.474-4.892l80.629 46.551a5.98 5.98 0 0 1 -.052 10.389zm-46.464 13.03 31.591-18.24-63.178-36.473v13.056a6 6 0 0 1 -6 6h-66.848v34.838h66.848a6 6 0 0 1 6 6v13.044l31.563-18.223.006.01.018-.01zm-8.026 133.973a6 6 0 1 1 -12 0c0-9.136-15-13.788-23.335-6.844a9.007 9.007 0 0 0 -3.508 6.844c0 17.24 38.843 2.153 38.843 32.352 0 10.982-8.886 19.313-19.422 21.549v7.841a6 6 0 1 1 -12 0v-7.841c-10.535-2.236-19.421-10.568-19.421-21.549a6 6 0 0 1 12 0c0 9.135 15 13.789 23.334 6.844a9 9 0 0 0 3.509-6.844c0-17.239-38.843-2.153-38.843-32.352 0-10.981 8.885-19.312 19.421-21.549v-7.841a6 6 0 1 1 12 0v7.841c10.536 2.236 19.422 10.568 19.422 21.549zm-25.422-66.809a82.988 82.988 0 1 0 82.988 82.987 82.989 82.989 0 0 0 -82.988-82.987zm0 12a70.987 70.987 0 1 0 70.987 70.987 70.984 70.984 0 0 0 -70.987-70.987zm0-31.79a102.78 102.78 0 0 0 -102.6 96.777h-17.4a114 114 0 0 1 0-228h360a6 6 0 0 0 0-12h-360a126 126 0 0 0 0 252h17.4a102.807 102.807 0 0 0 152.044 84.123l84.179 84.177a25.7 25.7 0 0 0 18.235 7.506v.024a25.714 25.714 0 0 0 25.766-25.765h-.024a25.706 25.706 0 0 0 -7.506-18.236l-83.094-83.089a102.2 102.2 0 0 0 15.6-48.74h17.4a114 114 0 0 1 0 228h-360a6 6 0 0 0 0 12h360a126 126 0 0 0 0-252h-17.4a102.781 102.781 0 0 0 -102.6-96.777zm79.918 167.4 81.692 81.691a13.76 13.76 0 0 1 4.037 9.752h-.024a13.709 13.709 0 0 1 -13.765 13.765v.023a13.753 13.753 0 0 1 -9.751-4.037l-82.258-82.259a103.339 103.339 0 0 0 20.069-18.935zm-79.918-155.4a90.777 90.777 0 1 0 90.777 90.777 90.775 90.775 0 0 0 -90.777-90.777zm-180 162.262a36.037 36.037 0 1 0 36.036 36.036 36.038 36.038 0 0 0 -36.036-36.036zm0 12a24.037 24.037 0 1 0 24.036 24.036 24.034 24.034 0 0 0 -24.036-24.036zm-38.236 62.272 38.236 38.236 38.236-38.236a54 54 0 1 0 -76.472 0z" fill-rule="evenodd"/></svg>