<?xml version="1.0" encoding="UTF-8"?>
<svg style="enable-background:new 0 0 512 512;" height="512" viewBox="0 135 512 512" width="512">
    <g>
        <path
            style="fill:none;stroke:#000000;stroke-width:15;stroke-linecap:round;stroke-linejoin:round;stroke-miterlimit:10;"
            d="&#10;&#9;&#9;M456.074,455.058c-7.012,0-13.025-5.491-13.143-12.502c-0.1-5.893,3.812-10.879,9.182-12.432&#10;&#9;&#9;c-5.303-1.534-9.183-6.416-9.183-12.213c0-5.797,3.881-10.678,9.183-12.212c-5.303-1.534-9.183-6.415-9.183-12.212&#10;&#9;&#9;c0-5.797,3.881-10.679,9.183-12.212c-5.369-1.553-9.281-6.539-9.182-12.432c0.118-7.011,6.131-12.502,13.143-12.502h16.91v-67.249&#10;&#9;&#9;c0-5.803-4.704-10.508-10.508-10.508H49.524c-5.803,0-10.508,4.704-10.508,10.508v67.249h16.91c7.012,0,13.025,5.491,13.143,12.502&#10;&#9;&#9;c0.1,5.893-3.812,10.879-9.182,12.432c5.303,1.534,9.183,6.416,9.183,12.212c0,5.797-3.881,10.678-9.183,12.212&#10;&#9;&#9;c5.303,1.534,9.183,6.416,9.183,12.212c0,5.797-3.881,10.679-9.183,12.213c5.369,1.553,9.281,6.539,9.182,12.432&#10;&#9;&#9;c-0.118,7.011-6.131,12.502-13.143,12.502h-16.91v38.934c0,5.803,4.704,10.508,10.508,10.508h412.953&#10;&#9;&#9;c5.803,0,10.508-4.704,10.508-10.508v-38.934H456.074z" />
        <g>

            <circle
                style="fill:none;stroke:#000000;stroke-width:15;stroke-linecap:round;stroke-linejoin:round;stroke-miterlimit:10;"
                cx="145.872" cy="330.42" r="19.261" />
            <path
                style="fill:none;stroke:#000000;stroke-width:15;stroke-linecap:round;stroke-linejoin:round;stroke-miterlimit:10;"
                d="&#10;&#9;&#9;&#9;M186.925,441.454c-7.269,15.373-22.919,26.009-41.053,26.009c-25.066,0-45.386-20.32-45.386-45.386&#10;&#9;&#9;&#9;c0-25.066,20.32-45.386,45.386-45.386" />
            <path
                style="fill:none;stroke:#000000;stroke-width:15;stroke-linecap:round;stroke-linejoin:round;stroke-miterlimit:10;"
                d="&#10;&#9;&#9;&#9;M145.872,349.681v54.279c0,4.79,3.883,8.673,8.673,8.673h44.156c3.803,0,7.223,2.313,8.64,5.842l15.576,38.804h14.169" />
            <path
                style="fill:none;stroke:#000000;stroke-width:15;stroke-linecap:round;stroke-linejoin:round;stroke-miterlimit:10;"
                d="&#10;&#9;&#9;&#9;M145.872,363.85l15.335,16.996c0.822,0.911,1.992,1.431,3.22,1.431h25.392" />
        </g>
        <path
            style="fill:none;stroke:#000000;stroke-width:15;stroke-linecap:round;stroke-linejoin:round;stroke-miterlimit:10;"
            d="&#10;&#9;&#9;M342,316.673H241.658c-2.902,0-5.254,2.352-5.254,5.254v17.863c0,2.902,2.352,5.254,5.254,5.254h164.971&#10;&#9;&#9;c2.902,0,5.254-2.352,5.254-5.254v-17.863c0-2.902-2.352-5.254-5.254-5.254H377" />
        <g>
            <path
                style="fill:none;stroke:#000000;stroke-width:15;stroke-linecap:round;stroke-linejoin:round;stroke-miterlimit:10;"
                d="&#10;&#9;&#9;&#9;M401.375,463.52h-69.72c-5.803,0-10.508-4.704-10.508-10.508v-69.72c0-5.803,4.704-10.508,10.508-10.508h69.72&#10;&#9;&#9;&#9;c5.803,0,10.508,4.704,10.508,10.508v69.72C411.883,458.816,407.179,463.52,401.375,463.52z" />
            <g>
                <g>

                    <line
                        style="fill:none;stroke:#000000;stroke-width:15;stroke-linecap:round;stroke-linejoin:round;stroke-miterlimit:10;"
                        x1="352.414" x2="352.414" y1="395.056" y2="403.305" />

                    <line
                        style="fill:none;stroke:#000000;stroke-width:15;stroke-linecap:round;stroke-linejoin:round;stroke-miterlimit:10;"
                        x1="380.616" x2="380.616" y1="395.056" y2="403.305" />
                </g>
                <path
                    style="fill:none;stroke:#000000;stroke-width:15;stroke-linecap:round;stroke-linejoin:round;stroke-miterlimit:10;"
                    d="&#10;&#9;&#9;&#9;&#9;M384.822,422.942c0,10.11-8.196,18.306-18.306,18.306s-18.306-8.196-18.306-18.306" />
            </g>
        </g>

        <line
            style="fill:none;stroke:#000000;stroke-width:15;stroke-linecap:round;stroke-linejoin:round;stroke-miterlimit:10;"
            x1="240.238" x2="285.422" y1="380.509" y2="380.509" />

        <line
            style="fill:none;stroke:#000000;stroke-width:15;stroke-linecap:round;stroke-linejoin:round;stroke-miterlimit:10;"
            x1="240.238" x2="285.422" y1="410.981" y2="410.981" />
    </g>
</svg>
