<svg id="Line" enable-background="new 0 0 128 128" height="512" viewBox="0 0 128 128" width="512" xmlns="http://www.w3.org/2000/svg"><g><path d="m126.731 32.682c.367-.394.356-1.008-.024-1.389l-30-30c-.367-.366-.955-.391-1.352-.058-2.805 2.368-7.625 2.354-10.748-.03-.399-.305-.96-.267-1.314.088l-82 82c-.389.389-.391 1.018-.005 1.409 2.306 2.34 2.281 7.913-.049 10.649-.338.397-.314.987.054 1.355l30 30c.194.195.45.294.707.294.229 0 .458-.078.646-.236 2.756-2.329 8.33-2.357 10.65-.054.392.387 1.022.388 1.412-.003l82-82c.375-.375.392-.979.038-1.374-2.324-2.593-2.33-8.167-.015-10.651zm-82.791 91.964c-3.07-2.203-8.46-2.198-11.844.036l-28.776-28.777c2.236-3.37 2.242-8.761.033-11.844l17.647-17.647 40.586 40.586zm19.06-19.06-40.586-40.586 61.702-61.701c3.586 2.279 8.452 2.287 11.792.023l28.752 28.752c-2.22 3.186-2.219 8.579.009 11.843z"/><path d="m120.707 31.293-24-24c-.375-.375-1.039-.375-1.414 0-1.548 1.548-6.347 2.941-9.621-.033-.395-.359-1.001-.346-1.379.033l-53 53c-.389.389-.391 1.02-.004 1.41 2.013 2.035 2.309 5.363.792 8.903-.161.375-.077.812.212 1.101l24 24c.313.313.794.383 1.184.172 2.656-1.439 6.94-1.036 8.818.83.195.194.45.291.705.291.256 0 .512-.098.707-.293l53-53c.371-.37.392-.964.05-1.36-3.154-3.652-1.313-8.376-.05-9.64.391-.391.391-1.023 0-1.414zm-53.768 63.353c-1.5-1.073-3.585-1.64-5.679-1.64-1.406 0-2.815.256-4.054.785l-23.031-23.03c1.397-3.695 1.096-7.219-.809-9.712l51.705-51.706c3.533 2.55 8.298 1.828 10.866.009l22.718 22.717c-1.635 2.364-2.676 7.032.013 10.85z"/><path d="m57.707 106.293-36-36c-.391-.391-1.023-.391-1.414 0l-13 13c-.386.386-.391 1.01-.012 1.401 2.338 2.421 2.296 7.43-.09 10.719-.289.397-.245.946.103 1.294l24 24c.193.194.449.293.706.293.227 0 .454-.077.641-.232 2.545-2.123 7.668-2.574 10.714-.003.397.334.985.311 1.352-.058l13-13c.391-.391.391-1.023 0-1.414zm-13.802 12.388c-3.342-2.23-8.439-2.231-11.808.003l-22.811-22.812c2.272-3.725 2.287-8.741.066-11.81l11.648-11.648 34.586 34.586z"/><path d="m77.114 63.047c-.426-.405-1.07-1.017-1.148-1.306-.061-.227.262-.828.476-1.226.465-.867 1.044-1.945.424-3.017-.559-.966-1.699-1.305-2.705-1.604-.569-.17-1.213-.361-1.454-.602-.24-.24-.432-.885-.601-1.453-.299-1.007-.639-2.146-1.605-2.705-1.016-.588-2.273-.091-3.488.392-.551.218-1.47.583-1.754.508-.189-.052-.588-.717-.78-1.036-.534-.891-1.198-1.998-2.479-1.998s-1.945 1.107-2.478 1.997c-.192.32-.591.985-.78 1.037-.283.075-1.204-.29-1.754-.508-1.215-.482-2.473-.979-3.488-.392-.966.559-1.306 1.698-1.605 2.705-.169.568-.361 1.213-.601 1.453s-.884.432-1.453.601c-1.006.3-2.146.639-2.706 1.605-.62 1.071-.041 2.149.424 3.017.213.397.536.999.475 1.227-.077.288-.721.899-1.147 1.305-.928.88-1.887 1.79-1.887 2.953s.959 2.073 1.886 2.953c.426.405 1.07 1.017 1.148 1.306.061.227-.262.828-.476 1.226-.465.867-1.044 1.945-.424 3.017.559.966 1.699 1.305 2.705 1.604.569.17 1.213.361 1.454.602.24.24.432.885.601 1.453.299 1.007.639 2.146 1.605 2.705 1.017.588 2.273.091 3.488-.392.551-.218 1.477-.58 1.754-.508.189.052.588.717.78 1.037.534.89 1.198 1.997 2.479 1.997s1.945-1.107 2.479-1.998c.191-.319.59-.984.78-1.036.29-.072 1.204.29 1.754.508 1.215.482 2.474.979 3.488.392.966-.559 1.306-1.698 1.605-2.705.169-.568.361-1.213.601-1.453s.885-.432 1.454-.602c1.006-.3 2.146-.639 2.705-1.604.62-1.071.041-2.149-.424-3.017-.213-.397-.536-.999-.475-1.227.077-.288.721-.899 1.147-1.305.927-.88 1.886-1.79 1.886-2.953s-.959-2.073-1.886-2.953zm-1.377 4.456c-.761.723-1.48 1.404-1.703 2.238-.266.992.239 1.934.645 2.689.169.314.483.9.456 1.068-.161.277-.961.516-1.545.689-.835.249-1.699.507-2.297 1.104s-.855 1.462-1.104 2.297c-.174.584-.412 1.384-.668 1.534-.271.081-1.249-.303-1.771-.51-1.026-.406-2.085-.826-3.007-.58-.971.259-1.506 1.152-1.979 1.939-.203.339-.581.969-.757 1.027-.188-.059-.566-.688-.769-1.027-.472-.787-1.007-1.681-1.979-1.939-.19-.051-.386-.073-.586-.073-.771 0-1.607.331-2.421.653-.522.207-1.497.588-1.75.521-.277-.161-.516-.961-.689-1.545-.249-.835-.506-1.699-1.104-2.297s-1.462-.855-2.297-1.104c-.584-.174-1.384-.412-1.541-.678-.032-.18.282-.766.451-1.08.406-.756.911-1.697.646-2.688-.223-.835-.942-1.517-1.704-2.239-.443-.418-1.264-1.197-1.264-1.502s.821-1.084 1.263-1.503c.761-.723 1.48-1.404 1.703-2.238.266-.992-.239-1.934-.645-2.689-.169-.314-.483-.9-.455-1.068.161-.278.96-.517 1.545-.69.835-.248 1.698-.506 2.296-1.104s.855-1.462 1.104-2.297c.174-.584.412-1.384.668-1.534.275-.084 1.249.303 1.771.51 1.026.406 2.087.826 3.007.58.971-.259 1.506-1.152 1.979-1.939.203-.339.581-.969.757-1.027.188.059.566.688.769 1.027.472.787 1.007 1.681 1.979 1.939.921.245 1.981-.174 3.007-.58.522-.207 1.495-.592 1.75-.521.277.161.516.961.689 1.545.249.835.506 1.699 1.104 2.297s1.462.855 2.297 1.104c.584.174 1.384.412 1.541.678.032.18-.282.766-.451 1.08-.406.756-.911 1.697-.646 2.688.223.835.942 1.517 1.704 2.239.443.419 1.264 1.198 1.264 1.503s-.821 1.084-1.263 1.503z"/><path d="m21.293 84.707 22 22c.195.195.451.293.707.293s.512-.098.707-.293c.391-.391.391-1.023 0-1.414l-22-22c-.391-.391-1.023-.391-1.414 0s-.391 1.023 0 1.414z"/><path d="m17.707 88.293c-.391-.391-1.023-.391-1.414 0s-.391 1.023 0 1.414l22 22c.195.195.451.293.707.293s.512-.098.707-.293c.391-.391.391-1.023 0-1.414z"/><path d="m70 43c.256 0 .512-.098.707-.293l19-19c.391-.391.391-1.023 0-1.414s-1.023-.391-1.414 0l-19 19c-.391.391-.391 1.023 0 1.414.195.195.451.293.707.293z"/><path d="m73.293 46.707c.195.195.451.293.707.293s.512-.098.707-.293l19-19c.391-.391.391-1.023 0-1.414s-1.023-.391-1.414 0l-19 19c-.391.391-.391 1.023 0 1.414z"/><path d="m77.293 50.707c.195.195.451.293.707.293s.512-.098.707-.293l19-19c.391-.391.391-1.023 0-1.414s-1.023-.391-1.414 0l-19 19c-.391.391-.391 1.023 0 1.414z"/><path d="m101.707 34.293c-.391-.391-1.023-.391-1.414 0l-19 19c-.391.391-.391 1.023 0 1.414.195.195.451.293.707.293s.512-.098.707-.293l19-19c.391-.391.391-1.023 0-1.414z"/><path d="m104.293 38.293-19 19c-.391.391-.391 1.023 0 1.414.195.195.451.293.707.293s.512-.098.707-.293l19-19c.391-.391.391-1.023 0-1.414s-1.023-.391-1.414 0z"/></g></svg>