<?xml version="1.0" encoding="UTF-8" standalone="no"?>
<!-- Created with Inkscape (http://www.inkscape.org/) -->

<svg
   version="1.1"
   id="svg1011"
   xml:space="preserve"
   width="682.66669"
   height="682.66669"
   viewBox="0 0 682.66669 682.66669"
   xmlns="http://www.w3.org/2000/svg"
   xmlns:svg="http://www.w3.org/2000/svg"><defs
     id="defs1015"><clipPath
       clipPathUnits="userSpaceOnUse"
       id="clipPath1025"><path
         d="M 0,512 H 512 V 0 H 0 Z"
         id="path1023" /></clipPath></defs><g
     id="g1017"
     transform="matrix(1.3333333,0,0,-1.3333333,0,682.66667)"><g
       id="g1019"><g
         id="g1021"
         clip-path="url(#clipPath1025)"><g
           id="g1027"
           transform="translate(336.3604,84)"><path
             d="m 0,0 h -286.36 c -22.092,0 -40,17.909 -40,40 v 264 c 0,22.091 17.908,40 40,40 h 91.25"
             style="fill:none;stroke:#000000;stroke-width:20;stroke-linecap:round;stroke-linejoin:round;stroke-miterlimit:10;stroke-dasharray:none;stroke-opacity:1"
             id="path1029" /></g><g
           id="g1031"
           transform="translate(170.7202,428)"><path
             d="m 0,0 h 291.28 c 22.091,0 40,-17.909 40,-40 v -264 c 0,-22.091 -17.909,-40 -40,-40 h -92.687"
             style="fill:none;stroke:#000000;stroke-width:20;stroke-linecap:round;stroke-linejoin:round;stroke-miterlimit:10;stroke-dasharray:none;stroke-opacity:1"
             id="path1033" /></g><g
           id="g1035"
           transform="translate(183.4287,246.6309)"><path
             d="M 0,0 V -96"
             style="fill:none;stroke:#000000;stroke-width:20;stroke-linecap:round;stroke-linejoin:round;stroke-miterlimit:10;stroke-dasharray:none;stroke-opacity:1"
             id="path1037" /></g><g
           id="g1039"
           transform="translate(75.168,246.6309)"><path
             d="m 0,0 32.822,-94.559 c 0.688,-1.935 3.432,-1.917 4.094,0.028 l 31.345,94.355"
             style="fill:none;stroke:#000000;stroke-width:20;stroke-linecap:round;stroke-linejoin:round;stroke-miterlimit:10;stroke-dasharray:none;stroke-opacity:1"
             id="path1041" /></g><g
           id="g1043"
           transform="translate(223.4287,246.6309)"><path
             d="M 0,0 V -96"
             style="fill:none;stroke:#000000;stroke-width:20;stroke-linecap:round;stroke-linejoin:round;stroke-miterlimit:10;stroke-dasharray:none;stroke-opacity:1"
             id="path1045" /></g><g
           id="g1047"
           transform="translate(277.7812,219.54)"><path
             d="m 0,0 c 0,-14.962 -12.66,-27.091 -27.622,-27.091 -7.42,0 -26.545,-0.12 -26.545,-0.12 0,0 -0.119,19.669 -0.119,27.211 0,6.194 -0.067,27.091 -0.067,27.091 h 26.731 C -12.66,27.091 0,14.962 0,0 Z"
             style="fill:none;stroke:#000000;stroke-width:20;stroke-linecap:round;stroke-linejoin:round;stroke-miterlimit:10;stroke-dasharray:none;stroke-opacity:1"
             id="path1049" /></g><g
           id="g1051"
           transform="translate(298.7495,361.2622)"><path
             d="m 0,0 h 203.25 v -48 h -492 V 0 H -90"
             style="fill:none;stroke:#000000;stroke-width:20;stroke-linecap:round;stroke-linejoin:round;stroke-miterlimit:10;stroke-dasharray:none;stroke-opacity:1"
             id="path1053" /></g><g
           id="g1055"
           transform="translate(335.4395,206.9663)"><path
             d="M 0,0 60.096,-61.023 120.191,0 Z"
             style="fill:none;stroke:#000000;stroke-width:20;stroke-linecap:round;stroke-linejoin:round;stroke-miterlimit:10;stroke-dasharray:none;stroke-opacity:1"
             id="path1057" /></g><g
           id="g1059"
           transform="translate(428.9746,247.5317)"><path
             d="M 0,0 H -66.878 L -93.535,-40.565 H 26.656 Z"
             style="fill:none;stroke:#000000;stroke-width:20;stroke-linecap:round;stroke-linejoin:round;stroke-miterlimit:10;stroke-dasharray:none;stroke-opacity:1"
             id="path1061" /></g><g
           id="g1063"
           transform="translate(334.3223,77.6777)"><path
             d="M 0,0 17.677,32.322 35.355,0 67.677,-17.678 35.355,-35.355 17.677,-67.678 0,-35.355 -32.323,-17.678 Z"
             style="fill:none;stroke:#000000;stroke-width:20;stroke-linecap:round;stroke-linejoin:round;stroke-miterlimit:10;stroke-dasharray:none;stroke-opacity:1"
             id="path1065" /></g><g
           id="g1067"
           transform="translate(138.3564,469.6777)"><path
             d="M 0,0 17.678,32.322 35.355,0 67.678,-17.678 35.355,-35.355 17.678,-67.678 0,-35.355 -32.322,-17.678 Z"
             style="fill:none;stroke:#000000;stroke-width:20;stroke-linecap:round;stroke-linejoin:round;stroke-miterlimit:10;stroke-dasharray:none;stroke-opacity:1"
             id="path1069" /></g><g
           id="g1071"
           transform="translate(253.7495,361.2622)"><path
             d="M 0,0 V 0"
             style="fill:none;stroke:#000000;stroke-width:20;stroke-linecap:round;stroke-linejoin:round;stroke-miterlimit:10;stroke-dasharray:none;stroke-opacity:1"
             id="path1073" /></g></g></g></g></svg>
