<?xml version="1.0" encoding="UTF-8"?>
<svg xmlns="http://www.w3.org/2000/svg" xmlns:xlink="http://www.w3.org/1999/xlink" version="1.1" id="Capa_1" x="0px" y="0px" viewBox="0 0 512 512" style="enable-background:new 0 0 512 512;" xml:space="preserve" width="512" height="512">
<g>
	<path style="fill:none;stroke:#000000;stroke-width:20;stroke-linecap:round;stroke-linejoin:round;stroke-miterlimit:10;" d="&#10;&#9;&#9;M422.797,183.965L502,141.071v229.857l-79.19-42.887"/>
	<g id="XMLID_1316_">
		<g id="XMLID_1673_">
			
				<path id="XMLID_1675_" style="fill:none;stroke:#000000;stroke-width:20;stroke-linecap:round;stroke-linejoin:round;stroke-miterlimit:10;" d="&#10;&#9;&#9;&#9;&#9;M151.795,216v79.933c0.837,0.152,26.521,0,26.521,0"/>
		</g>
		<g id="XMLID_1671_">
			
				<line id="XMLID_1672_" style="fill:none;stroke:#000000;stroke-width:20;stroke-linecap:round;stroke-linejoin:round;stroke-miterlimit:10;" x1="218.055" y1="216" x2="218.055" y2="296"/>
		</g>
		<g id="XMLID_1667_">
			
				<polyline id="XMLID_1670_" style="fill:none;stroke:#000000;stroke-width:20;stroke-linecap:round;stroke-linejoin:round;stroke-miterlimit:10;" points="&#10;&#9;&#9;&#9;&#9;379.074,216.365 347.453,216.365 347.453,295.635 379.074,295.635 &#9;&#9;&#9;"/>
			
				<line id="XMLID_1669_" style="fill:none;stroke:#000000;stroke-width:20;stroke-linecap:round;stroke-linejoin:round;stroke-miterlimit:10;" x1="376.743" y1="256" x2="347.453" y2="256"/>
		</g>
		<g id="XMLID_1658_">
			
				<path id="XMLID_1659_" style="fill:none;stroke:#000000;stroke-width:20;stroke-linecap:round;stroke-linejoin:round;stroke-miterlimit:10;" d="&#10;&#9;&#9;&#9;&#9;M258.055,216l25.895,78.799c0.543,1.613,2.708,1.598,3.229-0.023l24.729-78.629"/>
		</g>
	</g>
	
		<circle style="fill:none;stroke:#000000;stroke-width:20;stroke-linecap:round;stroke-linejoin:round;stroke-miterlimit:10;" cx="73.2" cy="256" r="20.2"/>
	<path style="fill:none;stroke:#000000;stroke-width:20;stroke-linecap:round;stroke-linejoin:round;stroke-miterlimit:10;" d="&#10;&#9;&#9;M261.037,128h118.891c23.277,0,42.147,18.87,42.147,42.147v171.707c0,23.277-18.87,42.147-42.147,42.147H52.147&#10;&#9;&#9;C28.87,384,10,365.13,10,341.853V170.147C10,146.87,28.87,128,52.147,128h118.89"/>
	
		<line style="fill:none;stroke:#000000;stroke-width:20;stroke-linecap:round;stroke-linejoin:round;stroke-miterlimit:10;" x1="216.037" y1="128" x2="216.037" y2="128"/>
</g>















</svg>
