<svg id="Layer_1" viewBox="0 0 51.2 51.2" xmlns="http://www.w3.org/2000/svg" data-name="Layer 1"><g fill="rgb(0,0,0)"><circle cx="25.6" cy="31.703" r="3"/><path d="m30.89512 24.7457a8.71486 8.71486 0 0 0 -10.58985 0 1.59985 1.59985 0 1 0 1.93946 2.54492 5.60158 5.60158 0 0 1 6.71093 0 1.59985 1.59985 0 0 0 1.93946-2.54492z"/><path d="m25.6002 16.52891a15.15954 15.15954 0 0 0 -9.93555 3.71972 1.59979 1.59979 0 0 0 2.09765 2.416 11.927 11.927 0 0 1 15.67481 0 1.59979 1.59979 0 1 0 2.09766-2.416 15.15323 15.15323 0 0 0 -9.93457-3.71972z"/><path d="m42.84922 8.233h-13.38574l4.501-4.501a1.60066 1.60066 0 1 0 -2.26367-2.26367l-6.10061 6.10159-6.10059-6.10156a1.60066 1.60066 0 0 0 -2.26367 2.26364l4.501 4.501h-13.38674a7.35774 7.35774 0 0 0 -7.34961 7.34961v19.99708a7.358 7.358 0 0 0 7.34961 7.35058h11.32519v4.07032h-2.96191a1.59961 1.59961 0 1 0 0 3.19921h17.77246a1.59961 1.59961 0 1 0 0-3.19921h-2.96094v-4.07032h11.32422a7.35815 7.35815 0 0 0 7.35058-7.35058v-19.99707a7.358 7.358 0 0 0 -7.35058-7.34962zm-14.52344 38.76759h-5.45117v-4.07032h5.45117zm18.67481-11.4209a4.15608 4.15608 0 0 1 -4.15137 4.15136h-34.49902a4.15587 4.15587 0 0 1 -4.1504-4.15136v-19.99707a4.15567 4.15567 0 0 1 4.1504-4.15039h34.499a4.15587 4.15587 0 0 1 4.15137 4.15039z"/></g></svg>