<?xml version="1.0" encoding="UTF-8"?>
<svg xmlns="http://www.w3.org/2000/svg" xmlns:xlink="http://www.w3.org/1999/xlink" version="1.1" id="Capa_1" x="0px" y="0px" viewBox="0 0 512 512" style="enable-background:new 0 0 512 512;" xml:space="preserve" width="512" height="512">
<g>
	<path style="fill:none;stroke:#000000;stroke-width:15;stroke-linecap:round;stroke-linejoin:round;stroke-miterlimit:10;" d="&#10;&#9;&#9;M305.092,381.834H23.23c-6.521,0-11.807-5.286-11.807-11.807v-8.754c0-6.521,5.286-11.807,11.807-11.807H504.5v20.561&#10;&#9;&#9;c0,6.521-5.286,11.807-11.807,11.807H345.192"/>
	<path style="fill:none;stroke:#000000;stroke-width:15;stroke-linecap:round;stroke-linejoin:round;stroke-miterlimit:10;" d="&#10;&#9;&#9;M119.963,296.27l75.34,53.195H504.5v-32.368H205.579L21.87,187.386L9.501,204.904c-3.48,4.928-2.305,11.745,2.623,15.224&#10;&#9;&#9;l75.353,53.204"/>
	<path style="fill:none;stroke:#000000;stroke-width:15;stroke-linecap:round;stroke-linejoin:round;stroke-miterlimit:10;" d="&#10;&#9;&#9;M221.03,268.426L41.277,141.508c-4.985-3.52-11.879-2.332-15.398,2.653l-15.328,21.708c-3.52,4.985-2.332,11.879,2.653,15.398&#10;&#9;&#9;l192.375,135.83H504.5v-37.623c0-6.102-4.947-11.049-11.049-11.049H221.03z"/>
	<path style="fill:none;stroke:#000000;stroke-width:15;stroke-linecap:round;stroke-linejoin:round;stroke-miterlimit:10;" d="&#10;&#9;&#9;M258.607,187.386c-7.711,0-15.232-2.388-21.531-6.835l-40.503-28.598c-18.281-12.908-43.564-8.552-56.472,9.729l-23.371,33.1"/>
	<path style="fill:none;stroke:#000000;stroke-width:15;stroke-linecap:round;stroke-linejoin:round;stroke-miterlimit:10;" d="&#10;&#9;&#9;M156.937,223.172l64.093,45.254h93.333v0c0-19.844-16.087-35.931-35.931-35.931h-33.373c-8.213,0-16.224-2.543-22.933-7.28&#10;&#9;&#9;l-44.464-31.395"/>
	<path style="fill:none;stroke:#000000;stroke-width:15;stroke-linecap:round;stroke-linejoin:round;stroke-miterlimit:10;" d="&#10;&#9;&#9;M67.465,129.443c4.046-18.11,20.215-31.645,39.545-31.645c22.379,0,40.52,18.141,40.52,40.52c0,17.113-10.609,31.748-25.608,37.688&#10;&#9;&#9;"/>
	
		<line style="fill:none;stroke:#000000;stroke-width:15;stroke-linecap:round;stroke-linejoin:round;stroke-miterlimit:10;" x1="258.607" y1="232.494" x2="258.607" y2="187.386"/>
	<path style="fill:none;stroke:#000000;stroke-width:15;stroke-linecap:round;stroke-linejoin:round;stroke-miterlimit:10;" d="&#10;&#9;&#9;M364.903,187.386h86.801c21.381,0,38.714,17.333,38.714,38.714v42.325"/>
	
		<line style="fill:none;stroke:#000000;stroke-width:15;stroke-linecap:round;stroke-linejoin:round;stroke-miterlimit:10;" x1="258.607" y1="187.386" x2="327.37" y2="187.386"/>
	
		<circle style="fill:none;stroke:#000000;stroke-width:15;stroke-linecap:round;stroke-linejoin:round;stroke-miterlimit:10;" cx="64.46" cy="398.018" r="16.184"/>
	
		<circle style="fill:none;stroke:#000000;stroke-width:15;stroke-linecap:round;stroke-linejoin:round;stroke-miterlimit:10;" cx="451.462" cy="398.018" r="16.184"/>
	
		<line style="fill:none;stroke:#000000;stroke-width:15;stroke-linecap:round;stroke-linejoin:round;stroke-miterlimit:10;" x1="204.553" y1="212.807" x2="183.827" y2="242.166"/>
	<path style="fill:none;stroke:#000000;stroke-width:15;stroke-linecap:round;stroke-linejoin:round;stroke-miterlimit:10;" d="&#10;&#9;&#9;M116.729,194.783l-75.452-53.275l0,0c9.172-12.991,27.14-16.086,40.13-6.914l28.408,20.058&#10;&#9;&#9;C122.806,163.825,125.902,181.792,116.729,194.783L116.729,194.783z"/>
</g>















</svg>
