<svg id="Capa_1" enable-background="new 0 0 514.647 514.647" height="512" viewBox="0 0 514.647 514.647" width="512" xmlns="http://www.w3.org/2000/svg"><g><g id="Layer_2_00000161621890739149181780000001543447472507107200_"><g id="parking_00000172417903360466871340000015311562573777426849_"><path d="m255.981 514.646c-141.385-.021-255.983-114.654-255.961-256.039.01-67.873 26.973-132.963 74.961-180.961 98.502-101.425 260.575-103.794 362-5.292s103.794 260.575 5.292 362c-1.738 1.79-3.502 3.554-5.292 5.292-47.895 48.17-113.071 75.177-181 75zm0-492c-130.14 0-236 105.86-236 236s105.86 236 236 236 236-105.89 236-236-105.89-236-236-236z"/><path d="m255.981 474.456c-119.2.006-215.835-96.62-215.84-215.82-.003-57.243 22.735-112.142 63.21-152.62 84.284-84.284 220.936-84.284 305.22 0s84.284 220.936 0 305.22c-40.378 40.608-95.324 63.373-152.59 63.22zm0-411.65c-108 0-195.84 87.84-195.84 195.84s87.84 195.81 195.84 195.81 195.81-87.81 195.81-195.81-87.81-195.84-195.81-195.84z"/><path d="m239.471 399.156h-49.72c-5.523 0-10-4.477-10-10v-261c0-5.523 4.477-10 10-10h87c46.715-.508 84.997 36.95 85.505 83.665s-36.95 84.997-83.665 85.505c-.613.007-1.227.007-1.84 0h-27.28v101.83c0 5.523-4.477 10-10 10zm-39.72-20h29.72v-101.88c0-5.523 4.477-10 10-10h37.29c35.669.444 64.945-28.112 65.388-63.782.444-35.669-28.112-64.945-63.782-65.388-.536-.007-1.071-.007-1.607 0h-77z"/><path d="m276.761 237.556h-37.29c-5.523 0-10-4.477-10-10v-49.72c0-5.523 4.477-10 10-10h37.29c19.253 0 34.86 15.607 34.86 34.86s-15.607 34.86-34.86 34.86zm-27.29-20h27.29c8.207 0 14.86-6.653 14.86-14.86s-6.653-14.86-14.86-14.86h-27.29z"/></g></g></g></svg>