<?xml version="1.0" encoding="UTF-8" standalone="no"?><!-- Created with Inkscape (http://www.inkscape.org/) -->
<svg height="682.66669" id="svg939" version="1.1" viewBox="0 -95 682.66669 682.66669" width="682.66669"
    xmlns="http://www.w3.org/2000/svg" xml:space="preserve">
      <defs id="defs943">
        <clipPath clipPathUnits="userSpaceOnUse" id="clipPath953">
          <path d="M 0,512 H 512 V 0 H 0 Z" id="path951" />
        </clipPath>
      </defs>
    <g id="g945" transform="matrix(1.3333333,0,0,-1.3333333,0,682.66667)">
        <g id="g947">
          <g clip-path="url(#clipPath953)" id="g949">
            <g id="g955" transform="translate(277.5371,146.9663)">
            </g>
              <g id="g959" transform="translate(139.7578,461.9106)">
              <path
                  style="fill:none;stroke:#000000;stroke-width:15;stroke-linecap:round;stroke-linejoin:round;stroke-miterlimit:10;stroke-dasharray:none;stroke-opacity:1"
                  d="m 0,0 c 31.316,26.645 71.901,42.724 116.242,42.724 99.123,0 179.48,-80.355 179.48,-179.479 0,-99.124 -80.357,-179.479 -179.48,-179.479 -99.124,0 -179.479,80.355 -179.479,179.479 0,42.137 14.52,80.883 38.832,111.507"
                  id="path961" />
            </g>
              <g id="g963" transform="translate(366.3076,231.4014)">
              <path
                  style="fill:none;stroke:#000000;stroke-width:15;stroke-linecap:round;stroke-linejoin:round;stroke-miterlimit:10;stroke-dasharray:none;stroke-opacity:1"
                  d="m 0,0 c 21.491,25.261 34.467,57.99 34.467,93.754 0,79.957 -64.819,144.774 -144.775,144.774 -35.764,0 -68.493,-12.975 -93.754,-34.466 z"
                  id="path965" />
            </g>
              <g id="g967" transform="translate(275.2627,272.6177)">
              <path
                  style="fill:none;stroke:#000000;stroke-width:15;stroke-linecap:round;stroke-linejoin:round;stroke-miterlimit:10;stroke-dasharray:none;stroke-opacity:1"
                  d="m 0,0 -136.913,136.913 c -17.068,-23.757 -27.124,-52.89 -27.124,-84.375 0,-79.957 64.817,-144.775 144.774,-144.775 31.485,0 60.618,10.056 84.375,27.124 l -40.609,40.61"
                  id="path969" />
            </g>
          </g>
        </g>
      </g>
    </svg>