<?xml version="1.0" encoding="UTF-8" standalone="no"?>
<!-- Created with Inkscape (http://www.inkscape.org/) -->

<svg
   version="1.1"
   id="svg1737"
   xml:space="preserve"
   width="682.66669"
   height="682.66669"
   viewBox="0 0 682.66669 682.66669"
   xmlns="http://www.w3.org/2000/svg"
   xmlns:svg="http://www.w3.org/2000/svg"><defs
     id="defs1741"><clipPath
       clipPathUnits="userSpaceOnUse"
       id="clipPath1751"><path
         d="M 0,512 H 512 V 0 H 0 Z"
         id="path1749" /></clipPath></defs><g
     id="g1743"
     transform="matrix(1.3333333,0,0,-1.3333333,0,682.66667)"><g
       id="g1745"><g
         id="g1747"
         clip-path="url(#clipPath1751)"><g
           id="g1753"
           transform="translate(356.8955,215.8716)"><path
             d="m 0,0 h -201.791 c -3.465,0 -5.88,3.439 -4.703,6.698 l 15.196,42.076 c 1.431,3.962 5.193,6.603 9.405,6.603 h 161.995 c 4.212,0 7.974,-2.641 9.405,-6.603 L 4.703,6.698 C 5.88,3.439 3.465,0 0,0 Z"
             style="fill:none;stroke:#000000;stroke-width:15;stroke-linecap:round;stroke-linejoin:round;stroke-miterlimit:10;stroke-dasharray:none;stroke-opacity:1"
             id="path1755" /></g><g
           id="g1757"
           transform="translate(256,214.8716)"><path
             d="M 0,0 V -155.093"
             style="fill:none;stroke:#000000;stroke-width:15;stroke-linecap:round;stroke-linejoin:round;stroke-miterlimit:10;stroke-dasharray:none;stroke-opacity:1"
             id="path1759" /></g><g
           id="g1761"
           transform="translate(479.5,57.6909)"><path
             d="m 0,0 h -447 c -13.807,0 -25,-11.193 -25,-25 v -10.191 c 0,-2.762 2.239,-5 5,-5 H 20 c 2.762,0 5,2.238 5,5 V -25 C 25,-11.193 13.807,0 0,0 Z"
             style="fill:none;stroke:#000000;stroke-width:15;stroke-linecap:round;stroke-linejoin:round;stroke-miterlimit:10;stroke-dasharray:none;stroke-opacity:1"
             id="path1763" /></g><g
           id="g1765"
           transform="translate(175.2544,423.1934)"><path
             d="M 0,0 V -81.541"
             style="fill:none;stroke:#000000;stroke-width:15;stroke-linecap:round;stroke-linejoin:round;stroke-miterlimit:10;stroke-dasharray:none;stroke-opacity:1"
             id="path1767" /></g><g
           id="g1769"
           transform="translate(231.6812,423.1934)"><path
             d="M 0,0 V -81.541"
             style="fill:none;stroke:#000000;stroke-width:15;stroke-linecap:round;stroke-linejoin:round;stroke-miterlimit:10;stroke-dasharray:none;stroke-opacity:1"
             id="path1771" /></g><g
           id="g1773"
           transform="translate(175.2544,383.8213)"><path
             d="M 0,0 H 56.427"
             style="fill:none;stroke:#000000;stroke-width:15;stroke-linecap:round;stroke-linejoin:round;stroke-miterlimit:10;stroke-dasharray:none;stroke-opacity:1"
             id="path1775" /></g><g
           id="g1777"
           transform="translate(141.1006,414.811)"><path
             d="m 0,0 c 0,0 -14.632,12.299 -31.886,7.102 -15.843,-4.773 -18.058,-23.041 -6.597,-30.514 0,0 11.248,-5.017 23.722,-9.619 30.029,-11.076 17.094,-40.127 -7.08,-40.127 -12.106,0 -22.266,5.301 -28.415,12.087"
             style="fill:none;stroke:#000000;stroke-width:15;stroke-linecap:round;stroke-linejoin:round;stroke-miterlimit:10;stroke-dasharray:none;stroke-opacity:1"
             id="path1779" /></g><g
           id="g1781"
           transform="translate(374.9902,423.1934)"><path
             d="M 0,0 V -81.541"
             style="fill:none;stroke:#000000;stroke-width:15;stroke-linecap:round;stroke-linejoin:round;stroke-miterlimit:10;stroke-dasharray:none;stroke-opacity:1"
             id="path1783" /></g><g
           id="g1785"
           transform="translate(421.1562,400.1826)"><path
             d="m 0,0 c 0,-12.708 -10.753,-23.011 -23.462,-23.011 -6.303,0 -22.546,-0.101 -22.546,-0.101 0,0 -0.101,16.706 -0.101,23.112 0,5.261 -0.057,23.011 -0.057,23.011 h 22.704 C -10.753,23.011 0,12.708 0,0 Z"
             style="fill:none;stroke:#000000;stroke-width:15;stroke-linecap:round;stroke-linejoin:round;stroke-miterlimit:10;stroke-dasharray:none;stroke-opacity:1"
             id="path1787" /></g><g
           id="g1789"
           transform="translate(343.5303,382.4233)"><path
             d="m 0,0 c 0,-22.517 -18.253,-40.771 -40.77,-40.771 -22.516,0 -40.77,18.254 -40.77,40.771 0,22.517 18.254,40.77 40.77,40.77 C -18.253,40.77 0,22.517 0,0 Z"
             style="fill:none;stroke:#000000;stroke-width:15;stroke-linecap:round;stroke-linejoin:round;stroke-miterlimit:10;stroke-dasharray:none;stroke-opacity:1"
             id="path1791" /></g><g
           id="g1793"
           transform="translate(337.4746,213.8716)"><path
             d="M 0,0 V -154.181"
             style="fill:none;stroke:#000000;stroke-width:15;stroke-linecap:round;stroke-linejoin:round;stroke-miterlimit:10;stroke-dasharray:none;stroke-opacity:1"
             id="path1795" /></g><g
           id="g1797"
           transform="translate(174.5259,59.6909)"><path
             d="M 0,0 V 154.181"
             style="fill:none;stroke:#000000;stroke-width:15;stroke-linecap:round;stroke-linejoin:round;stroke-miterlimit:10;stroke-dasharray:none;stroke-opacity:1"
             id="path1799" /></g><g
           id="g1801"
           transform="translate(442.5312,457.8062)"><path
             d="m 0,0 v 26.694 c 0,5.523 -4.478,10 -10,10 h -353.062 c -5.523,0 -10,-4.477 -10,-10 V -2.745"
             style="fill:none;stroke:#000000;stroke-width:15;stroke-linecap:round;stroke-linejoin:round;stroke-miterlimit:10;stroke-dasharray:none;stroke-opacity:1"
             id="path1803" /></g><g
           id="g1805"
           transform="translate(442.5312,59.7788)"><path
             d="M 0,0 V 245.722"
             style="fill:none;stroke:#000000;stroke-width:15;stroke-linecap:round;stroke-linejoin:round;stroke-miterlimit:10;stroke-dasharray:none;stroke-opacity:1"
             id="path1807" /></g><g
           id="g1809"
           transform="translate(209.75,219.5249)"><path
             d="M 0,0 17.529,48.535"
             style="fill:none;stroke:#000000;stroke-width:15;stroke-linecap:round;stroke-linejoin:round;stroke-miterlimit:10;stroke-dasharray:none;stroke-opacity:1"
             id="path1811" /></g><g
           id="g1813"
           transform="translate(284.7207,268.0601)"><path
             d="M 0,0 17.529,-48.535"
             style="fill:none;stroke:#000000;stroke-width:15;stroke-linecap:round;stroke-linejoin:round;stroke-miterlimit:10;stroke-dasharray:none;stroke-opacity:1"
             id="path1815" /></g><g
           id="g1817"
           transform="translate(440.5312,103.501)"><path
             d="M 0,0 H -97.936"
             style="fill:none;stroke:#000000;stroke-width:15;stroke-linecap:round;stroke-linejoin:round;stroke-miterlimit:10;stroke-dasharray:none;stroke-opacity:1"
             id="path1819" /></g><g
           id="g1821"
           transform="translate(71.4692,170.1494)"><path
             d="M 0,0 H 98.482"
             style="fill:none;stroke:#000000;stroke-width:15;stroke-linecap:round;stroke-linejoin:round;stroke-miterlimit:10;stroke-dasharray:none;stroke-opacity:1"
             id="path1823" /></g><g
           id="g1825"
           transform="translate(169.9512,103.501)"><path
             d="M 0,0 H -98.482"
             style="fill:none;stroke:#000000;stroke-width:15;stroke-linecap:round;stroke-linejoin:round;stroke-miterlimit:10;stroke-dasharray:none;stroke-opacity:1"
             id="path1827" /></g><g
           id="g1829"
           transform="translate(69.4692,222.0879)"><path
             d="M 0,0 V -162.309"
             style="fill:none;stroke:#000000;stroke-width:15;stroke-linecap:round;stroke-linejoin:round;stroke-miterlimit:10;stroke-dasharray:none;stroke-opacity:1"
             id="path1831" /></g><g
           id="g1833"
           transform="translate(69.4692,307.2769)"><path
             d="M 0,0 V -52.503"
             style="fill:none;stroke:#000000;stroke-width:15;stroke-linecap:round;stroke-linejoin:round;stroke-miterlimit:10;stroke-dasharray:none;stroke-opacity:1"
             id="path1835" /></g><g
           id="g1837"
           transform="translate(407.9062,170.1494)"><path
             d="M 0,0 H 32.625"
             style="fill:none;stroke:#000000;stroke-width:15;stroke-linecap:round;stroke-linejoin:round;stroke-miterlimit:10;stroke-dasharray:none;stroke-opacity:1"
             id="path1839" /></g><g
           id="g1841"
           transform="translate(341.9268,170.1494)"><path
             d="M 0,0 H 33.063"
             style="fill:none;stroke:#000000;stroke-width:15;stroke-linecap:round;stroke-linejoin:round;stroke-miterlimit:10;stroke-dasharray:none;stroke-opacity:1"
             id="path1843" /></g><g
           id="g1845"
           transform="translate(404.8008,451.9219)"><path
             d="m 0,0 h 66.521 c 5.523,0 10,-4.478 10,-10 v -118.997 c 0,-5.523 -4.477,-10 -10,-10 h -430.643 c -5.523,0 -10,4.477 -10,10 V -10 c 0,5.522 4.477,10 10,10 h 331.435"
             style="fill:none;stroke:#000000;stroke-width:15;stroke-linecap:round;stroke-linejoin:round;stroke-miterlimit:10;stroke-dasharray:none;stroke-opacity:1"
             id="path1847" /></g></g></g></g></svg>
