<svg version="1.1" id="Capa_1" xmlns="http://www.w3.org/2000/svg" xmlns:xlink="http://www.w3.org/1999/xlink" x="0px" y="0px" viewBox="0 0 512 512" style="enable-background:new 0 0 512 512;" xml:space="preserve">
<g>
	
		<line style="fill:none;stroke:#000000;stroke-width:15;stroke-linecap:round;stroke-linejoin:round;stroke-miterlimit:10;" x1="382.468" y1="257.033" x2="333.807" y2="257.033"/>
	
		<line style="fill:none;stroke:#000000;stroke-width:15;stroke-linecap:round;stroke-linejoin:round;stroke-miterlimit:10;" x1="334.248" y1="286.013" x2="382.468" y2="286.013"/>
	
		<line style="fill:none;stroke:#000000;stroke-width:15;stroke-linecap:round;stroke-linejoin:round;stroke-miterlimit:10;" x1="177.917" y1="257.033" x2="129.697" y2="257.033"/>
	
		<line style="fill:none;stroke:#000000;stroke-width:15;stroke-linecap:round;stroke-linejoin:round;stroke-miterlimit:10;" x1="129.477" y1="286.013" x2="177.917" y2="286.013"/>
	
		<line style="fill:none;stroke:#000000;stroke-width:15;stroke-linecap:round;stroke-linejoin:round;stroke-miterlimit:10;" x1="382.908" y1="417.584" x2="333.587" y2="417.584"/>
	
		<line style="fill:none;stroke:#000000;stroke-width:15;stroke-linecap:round;stroke-linejoin:round;stroke-miterlimit:10;" x1="333.587" y1="446.564" x2="382.908" y2="446.564"/>
	
		<line style="fill:none;stroke:#000000;stroke-width:15;stroke-linecap:round;stroke-linejoin:round;stroke-miterlimit:10;" x1="178.358" y1="417.584" x2="129.917" y2="417.584"/>
	
		<line style="fill:none;stroke:#000000;stroke-width:15;stroke-linecap:round;stroke-linejoin:round;stroke-miterlimit:10;" x1="129.917" y1="446.564" x2="178.358" y2="446.564"/>
	
		<line style="fill:none;stroke:#000000;stroke-width:15;stroke-linecap:round;stroke-linejoin:round;stroke-miterlimit:10;" x1="256.17" y1="346.126" x2="256.17" y2="472.677"/>
	
		<line style="fill:none;stroke:#000000;stroke-width:15;stroke-linecap:round;stroke-linejoin:round;stroke-miterlimit:10;" x1="256.17" y1="188.255" x2="256.17" y2="313.484"/>
	
		<line style="fill:none;stroke:#000000;stroke-width:15;stroke-linecap:round;stroke-linejoin:round;stroke-miterlimit:10;" x1="256.17" y1="45.08" x2="256.17" y2="154.071"/>
	
		<line style="fill:none;stroke:#000000;stroke-width:15;stroke-linecap:round;stroke-linejoin:round;stroke-miterlimit:10;" x1="191.937" y1="85.249" x2="320.404" y2="85.249"/>
	
		<line style="fill:none;stroke:#000000;stroke-width:15;stroke-linecap:round;stroke-linejoin:round;stroke-miterlimit:10;" x1="184.919" y1="91.484" x2="184.919" y2="154.071"/>
	
		<line style="fill:none;stroke:#000000;stroke-width:15;stroke-linecap:round;stroke-linejoin:round;stroke-miterlimit:10;" x1="155.938" y1="154.071" x2="155.938" y2="110.319"/>
	
		<line style="fill:none;stroke:#000000;stroke-width:15;stroke-linecap:round;stroke-linejoin:round;stroke-miterlimit:10;" x1="356.402" y1="111.796" x2="356.402" y2="154.071"/>
	
		<line style="fill:none;stroke:#000000;stroke-width:15;stroke-linecap:round;stroke-linejoin:round;stroke-miterlimit:10;" x1="327.422" y1="154.071" x2="327.422" y2="91.484"/>
	
		<line style="fill:none;stroke:#000000;stroke-width:15;stroke-linecap:round;stroke-linejoin:round;stroke-miterlimit:10;" x1="128.174" y1="186.136" x2="128.174" y2="312.768"/>
	
		<line style="fill:none;stroke:#000000;stroke-width:15;stroke-linecap:round;stroke-linejoin:round;stroke-miterlimit:10;" x1="99.194" y1="313.484" x2="99.194" y2="186.136"/>
	
		<line style="fill:none;stroke:#000000;stroke-width:15;stroke-linecap:round;stroke-linejoin:round;stroke-miterlimit:10;" x1="209.447" y1="186.136" x2="209.447" y2="312.768"/>
	
		<line style="fill:none;stroke:#000000;stroke-width:15;stroke-linecap:round;stroke-linejoin:round;stroke-miterlimit:10;" x1="180.467" y1="312.768" x2="180.467" y2="186.136"/>
	
		<line style="fill:none;stroke:#000000;stroke-width:15;stroke-linecap:round;stroke-linejoin:round;stroke-miterlimit:10;" x1="331.874" y1="186.136" x2="331.874" y2="313.484"/>
	
		<line style="fill:none;stroke:#000000;stroke-width:15;stroke-linecap:round;stroke-linejoin:round;stroke-miterlimit:10;" x1="302.89" y1="219.825" x2="302.89" y2="186.135"/>
	
		<line style="fill:none;stroke:#000000;stroke-width:15;stroke-linecap:round;stroke-linejoin:round;stroke-miterlimit:10;" x1="302.89" y1="313.485" x2="302.89" y2="254.825"/>
	
		<line style="fill:none;stroke:#000000;stroke-width:15;stroke-linecap:round;stroke-linejoin:round;stroke-miterlimit:10;" x1="413.147" y1="186.136" x2="413.147" y2="313.484"/>
	
		<line style="fill:none;stroke:#000000;stroke-width:15;stroke-linecap:round;stroke-linejoin:round;stroke-miterlimit:10;" x1="384.166" y1="312.768" x2="384.166" y2="186.136"/>
	
		<line style="fill:none;stroke:#000000;stroke-width:15;stroke-linecap:round;stroke-linejoin:round;stroke-miterlimit:10;" x1="99.19" y1="400.085" x2="99.19" y2="346.785"/>
	
		<line style="fill:none;stroke:#000000;stroke-width:15;stroke-linecap:round;stroke-linejoin:round;stroke-miterlimit:10;" x1="99.19" y1="472.675" x2="99.19" y2="435.085"/>
	
		<line style="fill:none;stroke:#000000;stroke-width:15;stroke-linecap:round;stroke-linejoin:round;stroke-miterlimit:10;" x1="128.174" y1="346.787" x2="128.174" y2="472.677"/>
	
		<line style="fill:none;stroke:#000000;stroke-width:15;stroke-linecap:round;stroke-linejoin:round;stroke-miterlimit:10;" x1="180.467" y1="472.677" x2="180.467" y2="346.787"/>
	
		<line style="fill:none;stroke:#000000;stroke-width:15;stroke-linecap:round;stroke-linejoin:round;stroke-miterlimit:10;" x1="209.447" y1="346.787" x2="209.447" y2="472.677"/>
	
		<line style="fill:none;stroke:#000000;stroke-width:15;stroke-linecap:round;stroke-linejoin:round;stroke-miterlimit:10;" x1="302.893" y1="472.677" x2="302.893" y2="346.787"/>
	
		<line style="fill:none;stroke:#000000;stroke-width:15;stroke-linecap:round;stroke-linejoin:round;stroke-miterlimit:10;" x1="331.874" y1="346.787" x2="331.874" y2="472.677"/>
	
		<line style="fill:none;stroke:#000000;stroke-width:15;stroke-linecap:round;stroke-linejoin:round;stroke-miterlimit:10;" x1="384.166" y1="472.677" x2="384.166" y2="346.787"/>
	
		<line style="fill:none;stroke:#000000;stroke-width:15;stroke-linecap:round;stroke-linejoin:round;stroke-miterlimit:10;" x1="413.147" y1="346.787" x2="413.147" y2="472.677"/>
	<path style="fill:none;stroke:#000000;stroke-width:15;stroke-linecap:round;stroke-linejoin:round;stroke-miterlimit:10;" d="&#10;&#9;&#9;M484.02,472.675v-126.55 M484.02,312.765v-124.51 M139.06,85.065l108.89-74.98c4.95-3.41,11.49-3.41,16.44,0l210.08,144.66&#10;&#9;&#9; M110.23,104.915l-71.14,48.99 M28.32,313.485v-127.35 M28.32,472.675v-126.55 M57.3,472.675v-125.89 M57.3,313.485v-127.35&#10;&#9;&#9; M88.55,155.025l167.62-115.42l167.72,115.49 M455.04,312.765v-124.51 M455.04,392.235v-46.11 M455.04,472.675v-45.44"/>
	<path style="fill:none;stroke:#000000;stroke-width:15;stroke-linecap:round;stroke-linejoin:round;stroke-miterlimit:10;" d="&#10;&#9;&#9;M490.128,184.736H22.212c-7.937,0-14.372-6.435-14.372-14.372c0-7.937,6.435-14.372,14.372-14.372h467.916&#10;&#9;&#9;c7.937,0,14.372,6.435,14.372,14.372C504.5,178.301,498.065,184.736,490.128,184.736z"/>
	<path style="fill:none;stroke:#000000;stroke-width:15;stroke-linecap:round;stroke-linejoin:round;stroke-miterlimit:10;" d="&#10;&#9;&#9;M489.788,504.472H21.872c-7.937,0-14.372-6.435-14.372-14.372s6.435-14.372,14.372-14.372h467.916&#10;&#9;&#9;c7.937,0,14.372,6.435,14.372,14.372S497.725,504.472,489.788,504.472z"/>
	<path style="fill:none;stroke:#000000;stroke-width:15;stroke-linecap:round;stroke-linejoin:round;stroke-miterlimit:10;" d="&#10;&#9;&#9;M490.128,343.976H22.212c-7.937,0-14.372-6.435-14.372-14.372c0-7.937,6.435-14.372,14.372-14.372h467.916&#10;&#9;&#9;c7.937,0,14.372,6.435,14.372,14.372C504.5,337.541,498.065,343.976,490.128,343.976z"/>
	
		<line style="fill:none;stroke:#000000;stroke-width:15;stroke-linecap:round;stroke-linejoin:round;stroke-miterlimit:10;" x1="210.187" y1="345.008" x2="302.893" y2="474.451"/>
	
		<line style="fill:none;stroke:#000000;stroke-width:15;stroke-linecap:round;stroke-linejoin:round;stroke-miterlimit:10;" x1="210.607" y1="186.136" x2="301.299" y2="312.768"/>
</g>
<g>
</g>
<g>
</g>
<g>
</g>
<g>
</g>
<g>
</g>
<g>
</g>
<g>
</g>
<g>
</g>
<g>
</g>
<g>
</g>
<g>
</g>
<g>
</g>
<g>
</g>
<g>
</g>
<g>
</g>
</svg>