<svg fill="none" height="512" viewBox="0 0 24 24" width="512" xmlns="http://www.w3.org/2000/svg"><path d="m18.3599 22.75h-12.77003c-1.52 0-2.91-.77-3.71-2.07s-.87-2.88-.19-4.25l1.72-3.45c.56-1.12 1.46-1.82 2.47-1.93s2.04.39 2.82 1.36l.22.28c.44.54.95.83 1.45003.78.5-.04.96-.4 1.3-1.01l1.89-3.40995c.78-1.41 1.82-2.14 2.95-2.09 1.12.06 2.08.9 2.72 2.38l3.13 7.30995c.58 1.35.44 2.89-.37 4.12-.8 1.25-2.16 1.98-3.63 1.98zm-12.20003-10.2c-.04 0-.08 0-.12.01-.5.05-.96.45-1.29 1.1l-1.72 3.45c-.45.89-.4 1.94.12 2.79s1.44 1.36 2.44 1.36h12.76003c.98 0 1.85-.47 2.39-1.29s.63-1.8.24-2.7l-3.13-7.30995c-.38-.9-.91-1.45-1.42-1.47-.47-.03-1.08.47-1.56 1.32l-1.89 3.40995c-.58 1.04-1.49 1.69-2.48 1.78-.99003.08-2.00003-.4-2.75003-1.34l-.22-.28c-.42-.55-.9-.83-1.37-.83z" fill="#000"/><path d="m6.97021 8.75c-2.06 0-3.75-1.68-3.75-3.75s1.68-3.75 3.75-3.75 3.74999 1.68 3.74999 3.75-1.67999 3.75-3.74999 3.75zm0-6c-1.24 0-2.25 1.01-2.25 2.25s1.01 2.25 2.25 2.25 2.25-1.01 2.25-2.25-1.01-2.25-2.25-2.25z" fill="#aaa"/></svg>