<svg height="512pt" viewBox="-52 0 512 512.00138" width="512pt" xmlns="http://www.w3.org/2000/svg"><path d="m257.039062 451.359375c-3.234374-2.585937-7.957031-2.058594-10.542968 1.179687l-35.003906 43.8125c-.414063.519532-.9375.636719-1.300782.644532-.355468 0-.894531-.085938-1.328125-.585938l-146.050781-167.121094c-.871094-.976562-1.730469-1.960937-2.636719-3.019531l-.242187-.277343c-.070313-.089844-.140625-.175782-.210938-.257813-28.835937-34.015625-44.714844-77.335937-44.714844-121.976563 0-31.90625 8.300782-63.542968 24.007813-91.484374 15.210937-27.0625 37.070313-50.292969 63.21875-67.179688 3.480469-2.246094 4.480469-6.890625 2.234375-10.371094-2.25-3.480468-6.890625-4.480468-10.375-2.230468-28.1875 18.203124-51.757812 43.25-68.160156 72.429687-16.964844 30.183594-25.933594 64.359375-25.933594 98.839844 0 48.03125 17.03125 94.644531 47.972656 131.316406.113282.152344.234375.300781.359375.445313l.488281.558593c.917969 1.074219 1.851563 2.136719 2.742188 3.136719l146.003906 167.066406c3.183594 3.644532 7.753906 5.714844 12.582032 5.714844.125 0 .25 0 .371093-.003906 4.96875-.109375 9.59375-2.398438 12.695313-6.277344l35.003906-43.8125c2.585938-3.238281 2.058594-7.957031-1.179688-10.546875zm0 0"/><path d="m348.878906 60.730469c-37.773437-38.324219-88.179687-59.878907-141.9375-60.7031252-29.015625-.4570318-57.242187 5.2343752-83.859375 16.8828122-3.796875 1.664063-5.527343 6.085938-3.867187 9.882813 1.664062 3.796875 6.085937 5.523437 9.882812 3.867187 24.636719-10.785156 50.753906-16.039062 77.613282-15.632812 49.796874.765625 96.488281 20.734375 131.480468 56.234375 35.03125 35.539062 54.320313 82.59375 54.320313 132.496093 0 44.640626-15.878907 87.960938-44.71875 121.976563-.144531.171875-.285157.351563-.414063.535156l-82.1875 102.867188c-2.585937 3.234375-2.058594 7.957031 1.179688 10.542969 1.382812 1.105468 3.035156 1.640624 4.679687 1.640624 2.203125 0 4.382813-.964843 5.867188-2.816406l82.480469-103.234375c.050781-.0625.101562-.128906.148437-.195312 30.9375-36.667969 47.96875-83.28125 47.96875-131.3125.003906-53.875-20.824219-104.667969-58.636719-143.03125zm0 0"/><path d="m121.042969 142.871094c-9.179688 8.355468-9.851563 22.617187-1.496094 31.796875 8.355469 9.175781 22.617187 9.847656 31.792969 1.496093 3.777344-3.441406 8.246094-4.089843 9.894531-3.226562 1.738281.914062 2.9375 7.957031 1.09375 13.550781-1.488281 4.527344-5.386719 7.375-7.578125 8.671875-10.683594 6.316406-14.238281 20.144532-7.925781 30.828125 3.847656 6.507813 10.660156 10.628907 18.160156 11.019531.179687.007813.375.015626.574219.019532l.113281.003906c.183594.007812.363281.011719.554687.011719 4.34375.007812 8.125 1.9375 9.871094 5.039062 2.164063 3.839844.324219 9.808594-2.679687 12.765625-4.492188 4.421875-14.609375 1.925782-17.804688.703125-9.949219-3.832031-17.046875-16.714843-17.257812-31.335937-.175781-12.28125-10.269531-22.183594-22.582031-22.183594-.082032 0-.167969 0-.25.003906-6.007813.085938-11.628907 2.507813-15.816407 6.820313s-6.449219 9.996093-6.359375 16.007812c.304688 21.167969 7.589844 40.695313 20.515625 54.988281 1.480469 1.636719 3.519531 2.46875 5.566407 2.46875 1.792968 0 3.59375-.640624 5.027343-1.9375 3.074219-2.78125 3.3125-7.523437.535157-10.597656-10.480469-11.585937-16.390626-27.617187-16.644532-45.140625-.027344-2 .726563-3.894531 2.121094-5.332031 1.398438-1.441406 3.269531-2.246094 5.246094-2.273438 4.183594-.082031 7.578125 3.269532 7.636718 7.390626.304688 20.921874 11.101563 39.054687 26.867188 45.121093 2.183594.84375 21.65625 7.871094 33.726562-4.011719 7.042969-6.929687 11.265626-20.089843 5.226563-30.816406-4.378906-7.785156-13.121094-12.636718-22.863281-12.683594l-.480469-.015624c-2.527344-.132813-4.804687-1.503907-6.085937-3.671876-2.105469-3.5625-.921876-8.171874 2.640624-10.277343 4.003907-2.363281 11.171876-7.707031 14.199219-16.894531 1.578125-4.800782 2.0625-10.785157 1.292969-16.015626-1.074219-7.289062-4.503906-12.800781-9.664062-15.511718-7.851563-4.121094-18.941407-1.898438-26.972657 5.410156-3.058593 2.785156-7.8125 2.5625-10.597656-.496094-2.785156-3.0625-2.558594-7.816406.5-10.601562 12.808594-11.65625 30.515625-14.707032 44.050781-7.59375 13.203125 6.9375 23.167969 26.644531 15.640625 49.503906-.0625.183594-.128906.359375-.195312.539062l-.210938.5625c-.832031 2.300782-.488281 4.859376.914063 6.859376 1.40625 2.003906 3.699218 3.191406 6.144531 3.191406h8.042969c1.582031 0 3.128906-.5 4.410156-1.433594 3.203125-2.328125 5.664062-6.925781 10.117188-18.9375 2.605468-7.023438 5.296874-14.28125 9.59375-19.195312 6.375-7.292969 15.390624-10.914063 25.378906-10.191407 6.734375.496094 14.042968 3.042969 19.074218 6.644531 3.371094 2.410157 8.054688 1.636719 10.46875-1.734374 2.414063-3.367188 1.636719-8.054688-1.734374-10.464844-7.253907-5.191406-17.238282-8.710938-26.714844-9.40625-14.804688-1.070313-28.21875 4.355468-37.769532 15.277344-4.726562 5.40625-7.785156 11.992187-10.289062 18.363281-1.203125-17.121094-9.183594-34.082031-25.890625-42.863281-19.101563-10.035157-43.671875-6.105469-61.128906 9.785156zm0 0"/><path d="m253.457031 258.851562c-.574219.132813-1.15625.203126-1.738281.203126-3.488281 0-6.484375-2.375-7.289062-5.78125-.953126-4.023438 1.546874-8.074219 5.574218-9.027344 5.835938-1.378906 14.042969-4.5 20.007813-11.550782 6.707031-7.925781 9.816406-19.867187 8.316406-31.941406-1.332031-10.714844-6.054687-19.691406-12.917969-24.605468-4.492187-3.253907-16.886718-7.476563-24.464844 1.195312-2.308593 2.640625-4.199218 7.46875-6.824218 14.539062-2.3125 6.230469-4.929688 13.289063-8.757813 18.847657-4.167969 6.058593-9.367187 9.722656-15.453125 10.894531-2.199218.421875-4.097656 1.808594-5.167968 3.777344-1.074219 1.96875-1.210938 4.3125-.371094 6.394531 6.875 17.070313-.3125 35-9.898438 44.4375-9.320312 9.175781-21.042968 11.101563-29.238281 11.101563-6.828125 0-14.078125-1.339844-20.402344-3.777344-3.867187-1.492188-8.207031.4375-9.695312 4.304687-1.492188 3.867188.4375 8.210938 4.304687 9.699219 5.660156 2.179688 14.734375 4.777344 25.792969 4.777344 15.773437 0 29.519531-5.328125 39.765625-15.410156 11.605469-11.425782 20.585938-32.109376 15.710938-53.078126 6.605468-2.953124 12.394531-7.902343 17.011718-14.609374 4.886719-7.101563 7.851563-15.089844 10.472656-22.148438.921876-2.492188 3.046876-8.214844 4.089844-9.898438.738282-.1875 2.914063.359376 4.578125 1.296876 3.292969 2.511718 5.800781 7.878906 6.574219 14.109374.964844 7.753907-.949219 15.761719-4.878906 20.402344-3.324219 3.929688-8.363282 5.78125-12.007813 6.640625-12.078125 2.859375-19.578125 15.007813-16.722656 27.082031 2.414063 10.207032 11.414063 17.332032 21.890625 17.332032 1.742188 0 3.488281-.203125 5.191406-.605469 14.660156-3.46875 27.113282-10.855469 36.011719-21.367187 12.027344-14.214844 17.703125-34.789063 15.1875-55.035157-1.066406-8.585937-3.5-16.648437-7.234375-23.96875-1.878906-3.691406-6.398438-5.15625-10.089844-3.277343-3.691406 1.882812-5.15625 6.402343-3.277344 10.09375 2.941407 5.761718 4.863282 12.15625 5.710938 19.003906 2.011719 16.160156-2.382812 32.417968-11.75 43.488281-6.8125 8.042969-16.496094 13.734375-28.011719 16.460937zm3.183594-70.523437c.039063.027344.078125.054687.113281.082031-.070312-.050781-.105468-.074218-.113281-.082031zm0 0"/><path d="m213.15625 80.03125c-5.703125-11.023438-19.3125-15.355469-30.332031-9.648438-5.339844 2.765626-9.285157 7.441407-11.105469 13.167969-1.824219 5.730469-1.304688 11.828125 1.457031 17.167969 2.445313 4.726562 16.128907 28.554688 45.335938 33.371094 3.230469.53125 6.519531.800781 9.777343.800781 16.058594 0 28.257813-6.328125 34.101563-10.101563 5.050781-3.261718 8.53125-8.292968 9.796875-14.167968 1.265625-5.878906.167969-11.898438-3.089844-16.949219-3.261718-5.050781-8.292968-8.527344-14.167968-9.796875-5.878907-1.265625-11.898438-.167969-16.949219 3.09375-1.746094 1.125-6.421875 3.648438-12.140625 2.703125-8.21875-1.351563-12.644532-9.574219-12.683594-9.640625zm32.960938 19.542969c1.683593-1.085938 3.691406-1.453125 5.648437-1.03125 1.957031.425781 3.636719 1.582031 4.726563 3.269531 1.085937 1.683594 1.449218 3.6875 1.027343 5.648438-.421875 1.957031-1.582031 3.636718-3.265625 4.722656-3.585937 2.316406-13.296875 7.703125-25.964844 7.703125-2.441406 0-4.910156-.203125-7.332031-.601563-22.140625-3.652344-32.582031-21.851562-34.453125-25.460937-.917968-1.78125-1.09375-3.816407-.484375-5.722657.605469-1.910156 1.921875-3.46875 3.703125-4.390624 1.097656-.570313 2.273438-.839844 3.433594-.839844 2.71875 0 5.34375 1.480468 6.675781 4.054687.792969 1.527344 8.175781 15.015625 23.570313 17.554688 10.875 1.789062 19.507812-2.835938 22.714844-4.90625zm0 0"/><path d="m240.710938 64.605469c0 5.257812-4.261719 9.523437-9.523438 9.523437s-9.527344-4.265625-9.527344-9.523437c0-5.261719 4.265625-9.527344 9.527344-9.527344s9.523438 4.265625 9.523438 9.527344zm0 0"/></svg>