<svg id="icon" enable-background="new 0 0 512 512" height="512" viewBox="0 0 512 512" width="512" xmlns="http://www.w3.org/2000/svg"><g fill="#1d1d1b"><path d="m202.177 128.233c-8.632 0-15.632 6.991-15.632 15.623s7 15.627 15.632 15.627 15.623-6.996 15.623-15.627-6.991-15.623-15.623-15.623z"/><circle cx="246.302" cy="291.982" r="21.213"/><path d="m67.004 391.164c-5.979 0-10.828 4.844-10.828 10.828s4.849 10.832 10.828 10.832 10.828-4.848 10.828-10.832-4.849-10.828-10.828-10.828z"/><path d="m267.513 59.434c5.077 0 9.187-4.115 9.187-9.192s-4.109-9.192-9.187-9.192-9.188 4.115-9.188 9.192c-.001 5.077 4.11 9.192 9.188 9.192z"/><path d="m76.191 59.288c-5.077 0-9.188 4.115-9.188 9.192 0 5.078 4.11 9.193 9.188 9.193s9.188-4.115 9.188-9.193c.001-5.077-4.11-9.192-9.188-9.192z"/><path d="m217.38 429.588c-8.403 0-15.203 6.799-15.203 15.193s6.8 15.203 15.203 15.203c8.386 0 15.186-6.809 15.186-15.203s-6.8-15.193-15.186-15.193z"/><path d="m427.915 153.982c10.546 0 19.095-8.559 19.095-19.114 0-10.554-8.549-19.1-19.095-19.1-10.564 0-19.114 8.546-19.114 19.1 0 10.555 8.55 19.114 19.114 19.114z"/><path d="m351.359 351.746c-5.378 0-9.735 4.354-9.735 9.727s4.357 9.725 9.735 9.725c5.368 0 9.717-4.352 9.717-9.725s-4.348-9.727-9.717-9.727z"/><path d="m443.938 377.533c-16.644 0-31.456 7.879-40.989 20.07l-21.512-15.668c3.975-5.834 6.316-12.881 6.316-20.463 0-20.072-16.334-36.406-36.395-36.406-13.918 0-26.032 7.857-32.158 19.365l-17.172-12.172c8.223-11.34 13.126-25.23 13.126-40.279 0-19.182-7.902-36.541-20.601-49.038l83.501-69.856c11.504 14.976 29.542 24.692 49.859 24.692 3.663 0 7.236-.383 10.736-.99l10.674 25.527c-19.752 2.893-34.992 19.897-34.992 40.441 0 22.564 18.367 40.922 40.936 40.922 22.559 0 40.917-18.357 40.917-40.922 0-22.567-18.358-40.925-40.917-40.925-.438 0-.857.055-1.294.064l-10.893-26.05c27.362-6.813 47.725-31.528 47.725-60.979 0-34.682-28.21-62.901-62.892-62.901-34.701 0-62.92 28.219-62.92 62.901 0 12.78 3.855 24.665 10.427 34.6l-84.192 70.449c-12.079-10.432-27.756-16.79-44.928-16.79-5.086 0-10.026.592-14.794 1.645l-8.34-32.193c18.85-8.153 32.084-26.911 32.084-48.724 0-18.248-9.261-34.367-23.324-43.924l14.593-21.894c5.852 4.43 13.107 7.091 20.992 7.091 19.241 0 34.882-15.65 34.882-34.887 0-19.236-15.641-34.887-34.882-34.887-19.233 0-34.893 15.65-34.893 34.887 0 9.739 4.02 18.549 10.482 24.884l-14.985 22.477c-7.675-4.325-16.516-6.823-25.94-6.823-16.389 0-31.055 7.47-40.798 19.178l-53.695-26.574c2.151-4.525 3.39-9.566 3.39-14.903 0-19.236-15.64-34.887-34.882-34.887-19.23.002-34.89 15.653-34.89 34.889 0 19.237 15.66 34.887 34.892 34.887 12.306 0 23.125-6.421 29.332-16.078l53.121 26.287c-5.998 8.595-9.544 19.022-9.544 30.279 0 6.531 1.24 12.766 3.409 18.549l-48.938 32.595c-9.297-9.507-22.24-15.431-36.559-15.431-28.229 0-51.199 22.96-51.199 51.185s22.97 51.183 51.199 51.183c28.219 0 51.18-22.959 51.18-51.183 0-12.287-4.366-23.571-11.604-32.408l47.697-31.765c8.532 17.911 26.761 30.353 47.89 30.353 5.879 0 11.512-.998 16.799-2.771l8.202 31.729c-28.684 8.313-49.729 34.769-49.729 66.091 0 8.609 1.659 16.816 4.558 24.418l-84.23 60.852c-7.246-8.996-18.339-14.775-30.771-14.775-21.794 0-39.513 17.729-39.513 39.518s17.718 39.515 39.512 39.515 39.522-17.729 39.522-39.518c0-7.762-2.288-14.99-6.171-21.105l83.409-60.262c10.901 23.689 34.801 40.209 62.537 40.209 21.329 0 40.415-9.744 53.058-25.012l17.992 12.762c-1.531 4.01-2.405 8.344-2.405 12.889 0 4.84.965 9.451 2.697 13.672l-61.534 35.277c-9.507-10.703-23.325-17.494-38.729-17.494-28.602 0-51.863 23.262-51.863 51.854 0 28.598 23.262 51.863 51.863 51.863 28.593 0 51.854-23.266 51.854-51.863 0-11.566-3.855-22.221-10.281-30.854l60.623-34.746c6.234 11.139 18.129 18.695 31.783 18.695 10.884 0 20.646-4.832 27.316-12.432l21.667 15.777c-5.333 8.166-8.468 17.902-8.468 28.365 0 28.701 23.353 52.055 52.063 52.055 28.702 0 52.046-23.354 52.046-52.055.001-28.702-23.342-52.054-52.045-52.054zm34.409-114.775c0 12.73-10.354 23.088-23.078 23.088-12.734 0-23.097-10.357-23.097-23.088 0-12.733 10.362-23.087 23.097-23.087 12.724 0 23.078 10.354 23.078 23.087zm-50.432-172.958c24.837 0 45.063 20.217 45.063 45.068 0 24.856-20.227 45.073-45.063 45.073-24.856 0-45.083-20.217-45.083-45.073 0-24.851 20.227-45.068 45.083-45.068zm-160.402-56.607c9.405 0 17.053 7.647 17.053 17.049s-7.647 17.049-17.053 17.049c-9.407 0-17.055-7.647-17.055-17.049s7.647-17.049 17.055-17.049zm-191.322 52.337c-9.406 0-17.054-7.648-17.054-17.05 0-9.401 7.647-17.049 17.054-17.049s17.054 7.648 17.054 17.049c0 9.402-7.647 17.05-17.054 17.05zm-9.177 178.574c-18.395 0-33.361-14.962-33.361-33.351 0-18.39 14.967-33.347 33.361-33.347 18.384 0 33.342 14.957 33.342 33.347-.001 18.388-14.959 33.351-33.342 33.351zm99.924-120.249c0-19.428 15.805-35.238 35.238-35.238s35.238 15.81 35.238 35.238c0 19.433-15.806 35.238-35.238 35.238-19.433.001-35.238-15.805-35.238-35.238zm-99.934 279.817c-11.95 0-21.685-9.725-21.685-21.68s9.734-21.68 21.685-21.68c11.958 0 21.685 9.725 21.685 21.68s-9.727 21.68-21.685 21.68zm179.298-80.676c-28.129 0-51.016-22.887-51.016-51.016s22.887-51.016 51.016-51.016 51.017 22.887 51.017 51.016-22.888 51.016-51.017 51.016zm-28.922 135.813c-18.768 0-34.034-15.264-34.034-34.027 0-18.758 15.267-34.021 34.034-34.021 18.759 0 34.018 15.264 34.018 34.021-.001 18.763-15.259 34.027-34.018 34.027zm133.979-98.77c-10.245 0-18.576-8.332-18.576-18.566 0-10.236 8.331-18.568 18.576-18.568 10.235 0 18.558 8.332 18.558 18.568 0 10.234-8.322 18.566-18.558 18.566zm92.579 83.77c-18.867 0-34.227-15.354-34.227-34.221s15.359-34.217 34.227-34.217 34.218 15.35 34.218 34.217-15.349 34.221-34.218 34.221z"/><path d="m443.938 414.324c-8.441 0-15.276 6.832-15.276 15.264 0 8.436 6.835 15.266 15.276 15.266 8.421 0 15.259-6.83 15.259-15.266 0-8.432-6.838-15.264-15.259-15.264z"/><path d="m67.014 215.794c-8.276 0-14.977 6.695-14.977 14.958 0 8.262 6.7 14.961 14.977 14.961 8.257 0 14.947-6.699 14.947-14.961 0-8.263-6.69-14.958-14.947-14.958z"/><path d="m443.938 262.758c0 6.258 5.067 11.33 11.33 11.33 6.253 0 11.32-5.072 11.32-11.33 0-6.256-5.067-11.329-11.32-11.329-6.262 0-11.33 5.072-11.33 11.329z"/></g></svg>