<svg id="Layer_1" enable-background="new 0 0 468 468" height="512" viewBox="0 0 468 468" width="512" xmlns="http://www.w3.org/2000/svg"><g fill="#4f4f4f"><g id="XMLID_33_"><circle cx="190.988" cy="272.121" r="14.007"/><path d="m452.057 322.247-54.914-47.69c-19.192-16.667-48.399-14.634-65.108 4.531l-28.395 32.569c-9.96 11.424-27.125 13.871-39.925 5.69-5.07-3.24-15.142-10.989-28.361-21.822-5.128-4.201-12.693-3.452-16.897 1.677-4.203 5.129-3.452 12.694 1.677 16.897 14.329 11.742 24.642 19.644 30.65 23.483 23.078 15.33 56.178 9.479 72.96-12.444l88.553 76.569c-36.407 34.676-110.628 31.236-157.598 5.272-35.69-19.728-171.827-137.461-196.847-170.234-31.473-40.045-49.094-117.354-16.781-158.501l84.726 73.495c-20.086 20.216-21.878 53.184-3.05 74.864 3.916 4.546 11.191 11.776 21.623 21.488 4.853 4.518 12.449 4.247 16.969-.606 4.519-4.853 4.247-12.45-.606-16.969-12.193-11.353-17.493-16.917-19.791-19.585-9.881-11.473-9.838-28.721.119-40.143l28.35-32.683c16.755-19.317 14.683-48.667-4.62-65.427l-51.126-44.391c-19.223-16.691-48.451-14.632-65.154 4.59l-22.894 26.345c-43.704 48.248-26.251 142.475 13.149 192.093 26.75 35.04 166.143 155.578 204.315 176.68 54.564 31.553 150.307 34.371 191.772-15.151l21.832-25.186c16.74-19.313 14.664-48.657-4.628-65.411z"/></g><g><path d="m418.75 178.314c-6.63 0-12.006-5.375-12.006-12.006 0-63.581-51.561-115.308-114.938-115.308-6.63 0-12.006-5.375-12.006-12.006s5.376-12.006 12.006-12.006c76.618 0 138.951 62.499 138.951 139.32-.001 6.63-5.377 12.006-12.007 12.006z"/><path d="m355.839 183.436c-6.63 0-12.006-5.375-12.006-12.006 0-31.622-25.636-57.347-57.147-57.347-6.63 0-12.006-5.375-12.006-12.006s5.376-12.006 12.006-12.006c44.751 0 81.159 36.498 81.159 81.36 0 6.63-5.376 12.005-12.006 12.005z"/></g></g></svg>