<svg height="512" viewBox="0 0 32 32" width="512" xmlns="http://www.w3.org/2000/svg"><g id="Ikon"><path d="m23 2h-14a3.00328 3.00328 0 0 0 -3 3v22.9043a1.99942 1.99942 0 0 0 3.0957 1.67285l6.94336-4.54981 6.85742 4.53516a2.00017 2.00017 0 0 0 3.10352-1.66797v-22.89453a3.00328 3.00328 0 0 0 -3-3zm1 25.89453-6.85645-4.53515a1.997 1.997 0 0 0 -2.20019-.00391l-6.94336 4.54883v-22.9043a1.00067 1.00067 0 0 1 1-1h14a1.00067 1.00067 0 0 1 1 1l.00586 22.89746zm-2.04883-16.32715a1.00083 1.00083 0 0 0 -.80762-.67968l-2.93455-.42676-1.3125-2.65821a1.04013 1.04013 0 0 0 -1.793 0l-1.3125 2.65821-2.93457.42676a.9994.9994 0 0 0 -.55469 1.70507l2.124 2.07032-.501 2.92285a.99949.99949 0 0 0 1.4502 1.05371l2.62506-1.37891 2.625 1.37891a.99949.99949 0 0 0 1.4502-1.05371l-.501-2.92285 2.124-2.07032a1.00138 1.00138 0 0 0 .25297-1.02539zm-4.14941 2.03125a.99977.99977 0 0 0 -.28711.88477l.24707 1.44336-1.29688-.68067a.99434.99434 0 0 0 -.92968 0l-1.29688.68067.24707-1.44336a.99977.99977 0 0 0 -.28711-.88477l-1.0498-1.02343 1.45019-.21094a.99823.99823 0 0 0 .75293-.54688l.64844-1.3125.64844 1.3125a.99823.99823 0 0 0 .75293.54688l1.45019.21094z"/></g></svg>