<?xml version="1.0" encoding="UTF-8"?>
<svg xmlns="http://www.w3.org/2000/svg" xmlns:xlink="http://www.w3.org/1999/xlink" version="1.1" id="Capa_1" x="0px" y="0px" viewBox="0 0 512 512" style="enable-background:new 0 0 512 512;" xml:space="preserve" width="512" height="512">
<g>
	<path style="fill:none;stroke:#000000;stroke-width:15;stroke-linecap:round;stroke-linejoin:round;stroke-miterlimit:10;" d="&#10;&#9;&#9;M64.07,72.11V27.7c0-11.15,9.04-20.2,20.2-20.2h343.46c11.16,0,20.2,9.05,20.2,20.2V405"/>
	<path style="fill:none;stroke:#000000;stroke-width:15;stroke-linecap:round;stroke-linejoin:round;stroke-miterlimit:10;" d="&#10;&#9;&#9;M447.93,440v44.3c0,11.15-9.04,20.2-20.2,20.2H84.27c-11.16,0-20.2-9.05-20.2-20.2V107.11"/>
	<path style="fill:none;stroke:#000000;stroke-width:15;stroke-linecap:round;stroke-linejoin:round;stroke-miterlimit:10;" d="&#10;&#9;&#9;M274.761,230.212l16.25-11.552c26.467-18.815,42.188-49.28,42.188-81.753V98.588c0-12.498-8.137-23.54-20.075-27.241l-48.68-15.091&#10;&#9;&#9;c-5.501-1.705-11.389-1.705-16.889,0l-48.68,15.091c-11.938,3.701-20.075,14.743-20.075,27.241v38.319&#10;&#9;&#9;c0,32.474,15.721,62.938,42.188,81.753l16.25,11.552C248.472,238.197,263.528,238.197,274.761,230.212z"/>
	<path style="fill:none;stroke:#000000;stroke-width:15;stroke-linecap:round;stroke-linejoin:round;stroke-miterlimit:10;" d="&#10;&#9;&#9;M302.89,115.36v-8.01c0-4.43-2.88-8.34-7.11-9.65l-36.79-11.41c-1.95-0.6-4.03-0.6-5.98,0L216.22,97.7&#10;&#9;&#9;c-4.23,1.31-7.11,5.22-7.11,9.65v38.3c0,17.14,8.34,33.31,22.31,43.25l18.73,13.31c3.5,2.49,8.2,2.49,11.7,0l18.73-13.31&#10;&#9;&#9;c12.71-9.04,20.73-23.16,22.1-38.54"/>
	<g>
		
			<line style="fill:none;stroke:#000000;stroke-width:15;stroke-linecap:round;stroke-linejoin:round;stroke-miterlimit:10;" x1="146.902" y1="281.254" x2="114.577" y2="281.254"/>
		
			<line style="fill:none;stroke:#000000;stroke-width:15;stroke-linecap:round;stroke-linejoin:round;stroke-miterlimit:10;" x1="397.423" y1="281.254" x2="179.228" y2="281.254"/>
		
			<line style="fill:none;stroke:#000000;stroke-width:15;stroke-linecap:round;stroke-linejoin:round;stroke-miterlimit:10;" x1="397.423" y1="321.661" x2="114.577" y2="321.661"/>
		
			<line style="fill:none;stroke:#000000;stroke-width:15;stroke-linecap:round;stroke-linejoin:round;stroke-miterlimit:10;" x1="397.423" y1="362.067" x2="114.577" y2="362.067"/>
	</g>
	<g>
		
			<line style="fill:none;stroke:#000000;stroke-width:15;stroke-linecap:round;stroke-linejoin:round;stroke-miterlimit:10;" x1="397.423" y1="457.022" x2="334.793" y2="457.022"/>
		
			<line style="fill:none;stroke:#000000;stroke-width:15;stroke-linecap:round;stroke-linejoin:round;stroke-miterlimit:10;" x1="114.577" y1="457.022" x2="177.207" y2="457.022"/>
	</g>
</g>















</svg>
