<svg id="Layer_1" viewBox="0 0 512 512" xmlns="http://www.w3.org/2000/svg" data-name="Layer 1"><path d="m370.109 257.658c0-62.92-51.189-114.108-114.109-114.108s-114.108 51.188-114.108 114.108 51.189 114.137 114.108 114.137 114.109-51.201 114.109-114.137zm-164.041 84.425v-16.394c0-27.532 22.399-49.932 49.932-49.932s49.933 22.399 49.933 49.932v16.394c-14.636 8.695-31.71 13.696-49.933 13.696s-35.296-5.002-49.932-13.696zm21.571-110.702c0-15.638 12.723-28.36 28.36-28.36s28.361 12.723 28.361 28.36-12.723 28.361-28.361 28.361-28.36-12.723-28.36-28.361zm94.309 98.853v-4.544c0-26.426-15.631-49.258-38.127-59.771 10.087-8.142 16.555-20.595 16.555-34.537 0-24.469-19.907-44.376-44.376-44.376s-44.376 19.907-44.376 44.376c0 13.942 6.468 26.396 16.555 34.537-22.496 10.513-38.126 33.345-38.126 59.771v4.544c-19.737-17.961-32.145-43.846-32.145-72.576 0-54.089 44.004-98.093 98.093-98.093s98.093 44.004 98.093 98.093c0 28.73-12.408 54.615-32.145 72.576zm95.258-148.643c47.868 0 86.811-38.943 86.811-86.812s-38.943-86.782-86.811-86.782-86.783 38.931-86.783 86.782 38.931 86.812 86.783 86.812zm-34.993-25.316v-10.982c0-19.296 15.698-34.994 34.994-34.994s35.022 15.698 35.022 34.994v10.974c-10.336 5.911-22.286 9.308-35.022 9.308s-24.665-3.394-34.994-9.3zm16.015-80.998c0-10.48 8.514-19.007 18.978-19.007s19.006 8.526 19.006 19.007-8.526 19.006-19.006 19.006-18.978-8.526-18.978-19.006zm18.978-51.264c39.037 0 70.795 31.746 70.795 70.767 0 19.018-7.551 36.294-19.796 49.026-.54-18.709-11.193-34.929-26.689-43.355 6.597-6.373 10.711-15.299 10.711-25.173 0-19.312-15.711-35.022-35.022-35.022s-34.994 15.711-34.994 35.022c0 9.873 4.11 18.799 10.7 25.171-15.492 8.426-26.141 24.651-26.678 43.365-12.244-12.733-19.795-30.013-19.795-49.035 0-39.021 31.746-70.767 70.767-70.767zm14.374 280.702c8.226-30.784 8.226-63.329 0-94.113-1.142-4.273 1.396-8.662 5.669-9.804 4.277-1.143 8.662 1.396 9.804 5.669 8.948 33.49 8.948 68.893 0 102.383-.957 3.58-4.193 5.942-7.731 5.942-.684 0-1.379-.088-2.072-.273-4.272-1.142-6.811-5.53-5.669-9.804zm-38.975-10.434c6.41-23.95 6.41-49.268 0-73.217-1.144-4.272 1.393-8.662 5.665-9.806 4.273-1.144 8.663 1.393 9.806 5.665 7.135 26.657 7.135 54.839 0 81.498-.958 3.579-4.194 5.939-7.731 5.939-.685 0-1.382-.089-2.075-.274-4.272-1.144-6.809-5.533-5.665-9.806zm-193.468-217.879c-1.138-4.273 1.404-8.66 5.678-9.799 33.484-8.918 68.884-8.918 102.37 0 4.274 1.139 6.816 5.525 5.678 9.799-1.139 4.273-5.529 6.812-9.799 5.678-30.79-8.199-63.338-8.199-94.127 0-.69.184-1.384.271-2.066.271-3.541 0-6.778-2.365-7.733-5.949zm103.293 323.562c1.139 4.273-1.402 8.661-5.675 9.8-13.333 3.554-27.046 5.331-40.751 5.331s-27.412-1.776-40.733-5.331c-4.273-1.141-6.813-5.528-5.673-9.802 1.141-4.273 5.528-6.816 9.802-5.673 23.94 6.389 49.262 6.389 73.23 0 4.273-1.144 8.661 1.402 9.8 5.675zm-183.034-178.9c-6.41 23.949-6.41 49.267 0 73.217 1.143 4.272-1.393 8.662-5.666 9.806-.693.186-1.39.274-2.075.274-3.537 0-6.773-2.36-7.731-5.939-7.135-26.659-7.135-54.841 0-81.498 1.144-4.272 5.536-6.809 9.806-5.665 4.272 1.144 6.809 5.533 5.666 9.806zm193.465 217.843c1.142 4.273-1.396 8.662-5.669 9.804-16.745 4.475-33.968 6.711-51.191 6.711s-34.446-2.236-51.191-6.711c-4.272-1.142-6.811-5.53-5.669-9.804 1.142-4.272 5.528-6.812 9.804-5.669 30.785 8.224 63.329 8.224 94.114 0 4.274-1.144 8.662 1.397 9.803 5.669zm-232.441-228.305c-8.226 30.784-8.226 63.329 0 94.113 1.142 4.273-1.396 8.662-5.669 9.804-.692.186-1.388.273-2.072.273-3.538 0-6.775-2.362-7.731-5.942-8.948-33.49-8.948-68.893 0-102.383 1.142-4.272 5.527-6.81 9.804-5.669 4.272 1.142 6.811 5.53 5.669 9.804zm129.178-95.219c-1.14-4.273 1.399-8.661 5.673-9.802 26.646-7.11 54.813-7.11 81.458 0 4.273 1.141 6.813 5.529 5.673 9.802-1.141 4.273-5.529 6.813-9.802 5.673-23.945-6.389-49.256-6.391-73.2 0-.691.185-1.386.272-2.069.272-3.54 0-6.776-2.363-7.732-5.945zm-114.804 66.208c47.852 0 86.783-38.943 86.783-86.812s-38.931-86.782-86.783-86.782-86.811 38.931-86.811 86.782 38.943 86.812 86.811 86.812zm-35.022-25.324v-10.974c0-19.296 15.711-34.994 35.022-34.994s34.994 15.698 34.994 34.994v10.982c-10.329 5.906-22.269 9.3-34.994 9.3s-24.686-3.397-35.022-9.308zm16.015-80.99c0-10.48 8.526-19.007 19.006-19.007s19.006 8.526 19.006 19.007-8.526 19.006-19.006 19.006-19.006-8.526-19.006-19.006zm19.007-51.264c39.021 0 70.767 31.746 70.767 70.767 0 19.021-7.552 36.301-19.795 49.035-.537-18.709-11.181-34.93-26.666-43.358 6.6-6.373 10.716-15.301 10.716-25.178 0-19.312-15.711-35.022-35.022-35.022s-35.022 15.711-35.022 35.022c0 9.874 4.114 18.801 10.711 25.173-15.496 8.426-26.149 24.646-26.689 43.355-12.244-12.732-19.796-30.009-19.796-49.026 0-39.021 31.759-70.767 70.795-70.767zm0 306.396c-47.868 0-86.811 38.943-86.811 86.812s38.943 86.782 86.811 86.782 86.783-38.931 86.783-86.782-38.931-86.812-86.783-86.812zm-35.022 148.274v-10.949c0-19.311 15.711-35.021 35.022-35.021s34.994 15.711 34.994 35.021v10.958c-10.329 5.903-22.269 9.296-34.994 9.296s-24.686-3.396-35.022-9.304zm16.015-80.994c0-10.464 8.526-18.978 19.006-18.978s19.006 8.514 19.006 18.978-8.526 19.007-19.006 19.007-19.006-8.526-19.006-19.007zm69.978 68.546c-.543-18.712-11.186-34.935-26.668-43.365 6.601-6.373 10.719-15.303 10.719-25.181 0-19.295-15.711-34.993-35.022-34.993s-35.022 15.698-35.022 34.993c0 9.876 4.115 18.804 10.713 25.177-15.492 8.427-26.144 24.649-26.691 43.361-12.244-12.727-19.796-29.997-19.796-49.007 0-39.037 31.759-70.796 70.795-70.796s70.767 31.759 70.767 70.796c0 19.014-7.552 36.287-19.796 49.015zm271.441-135.826c-47.852 0-86.783 38.943-86.783 86.812s38.931 86.782 86.783 86.782 86.811-38.931 86.811-86.782-38.943-86.812-86.811-86.812zm-34.993 148.282v-10.958c0-19.311 15.698-35.021 34.994-35.021s35.022 15.711 35.022 35.021v10.949c-10.336 5.908-22.286 9.304-35.022 9.304s-24.665-3.393-34.994-9.296zm16.015-81.002c0-10.464 8.514-18.978 18.978-18.978s19.006 8.514 19.006 18.978-8.526 19.007-19.006 19.007-18.978-8.526-18.978-19.007zm69.978 68.538c-.547-18.712-11.198-34.934-26.691-43.361 6.598-6.373 10.713-15.301 10.713-25.177 0-19.295-15.711-34.993-35.022-34.993s-34.994 15.698-34.994 34.993c0 9.875 4.111 18.802 10.703 25.174-15.488 8.428-26.137 24.655-26.68 43.372-12.244-12.728-19.796-30.001-19.796-49.015 0-39.037 31.746-70.796 70.767-70.796s70.795 31.759 70.795 70.796c0 19.01-7.552 36.279-19.796 49.007z"/></svg>