<svg id="Layer_1" enable-background="new 0 0 68 68" viewBox="0 0 68 68" xmlns="http://www.w3.org/2000/svg"><g><g><path d="m52.326416 66.4030762h-40.9897461c-2.3603516 0-4.2802734-1.9199219-4.2802734-4.2797852v-52.8598633c0-2.3657227 1.9199219-4.2900391 4.2802734-4.2900391h.5698242c.1386719 0 .2709961.0576172.3657227.1591797.0942383.1010742.1425781.2373047.1333008.3754883-.0112305.1547852-.019043.2612305-.019043.375v52.8603516c0 1.8085938 1.4760742 3.2797852 3.2900391 3.2797852h40.4199219c.1416016 0 .2768555.0600586.371582.1655273.0947266.1049805.140625.2456055.1254883.3867188-.2290039 2.1821289-2.0634766 3.8276367-4.2670899 3.8276367zm-40.9897461-60.4296875c-1.8085938 0-3.2802734 1.4760742-3.2802734 3.2900391v52.8598632c0 1.8085938 1.4716797 3.2797852 3.2802734 3.2797852h40.9897461c1.4980469 0 2.7739258-.9907227 3.1665039-2.3798828h-39.8164062c-2.3657227 0-4.2900391-1.9199219-4.2900391-4.2797852v-52.7700195z"/></g><g><path d="m56.6584473 63.0270996h-40.9863282c-2.362793 0-4.2851563-1.9223633-4.2851563-4.2856445v-52.859375c0-2.362793 1.9223633-4.2851563 4.2851563-4.2851563h30.015625c.1308594 0 .2563477.0512695.3496094.1425781l14.7558594 14.4345703c.0961914.0942383.1503906.2231445.1503906.3574219v42.2099609c0 2.3632813-1.9223633 4.2856446-4.2851562 4.2856446zm-40.9863282-60.4301758c-1.8115234 0-3.2851563 1.4736328-3.2851563 3.2851563v52.859375c0 1.8115234 1.4736328 3.2856445 3.2851563 3.2856445h40.9863281c1.8115234 0 3.2851563-1.4741211 3.2851563-3.2856445v-41.9995117l-14.4599609-14.1450196z"/></g><g><path d="m60.4436035 17.0314941h-10.9707031c-2.362793 0-4.2851563-1.9223633-4.2851563-4.2851563v-10.649414c0-.2011719.1206055-.3828125.3061523-.4609375.1860352-.0771484.3999023-.0371094.543457.1035156l14.7558594 14.4345703c.1455078.1420898.1899414.3579102.1132813.5463867-.0766601.1879884-.2597656.3110352-.4628906.3110352zm-14.2558594-13.7460937v9.4609375c0 1.8115234 1.4736328 3.2851563 3.2851563 3.2851563h9.7446289z"/></g><g><g><g><path d="m22.635294 8.2231302h-5.9760742c-.2109375 0-.3979492.0786133-.5410156.2270508-.1396484.1459961-.2133789.3325195-.2133789.5390625 0 .2080078.0751953.3935547.2172852.5366211.1420898.1420898.3276367.2172852.5371094.2172852h2.1977539v6.6259756c0 .2172852.0791016.4111328.2294922.5605469.1494141.1499023.3432617.2294922.5605469.2294922.215332 0 .4101563-.078125.5629883-.2260742.1567383-.1499023.2392578-.3447266.2392578-.5639648v-6.6259757h2.1860352c.2070313 0 .3935547-.0737305.5390625-.2138672.1479492-.1425781.2265625-.3291016.2265625-.5400391 0-.2094727-.0771484-.3969727-.2231445-.5429688s-.3334964-.2231445-.5424807-.2231445z"/></g><g><path d="m31.9809399 15.8866673-.6499023-.6206055c.1801758-.2700195.3393555-.5522461.472168-.8388672.0576172-.1142578.0869141-.2329102.0869141-.3520508 0-.2114258-.0766602-.3964844-.2216797-.534668-.25-.2387695-.6533203-.2788086-.9536133-.081543-.1225586.0820313-.2148438.1899414-.2739258.3193359-.0795898.171875-.1533203.3203125-.2216797.4438477l-2.2851563-2.1542969c-.3364258-.3125-.581543-.5537109-.7285156-.7163086-.1333008-.1479492-.2333984-.2983398-.2978516-.4482422-.0620117-.1430664-.09375-.3154297-.09375-.512207 0-.2270508.0869141-.4213867.265625-.59375.3569336-.3447266 1.0673828-.362793 1.784668.0253906.3261719.1630859.6118164.0898438.8095703-.1176758.1230469-.1303711.1884766-.2910156.1884766-.4658203 0-.1201172-.0356445-.2368164-.1064453-.3457031-.0664063-.1025391-.1459961-.1806641-.2211914-.222168-1.050293-.7001953-2.2319336-.7089844-3.0498047-.2568359-.3798828.2099609-.6748047.4990234-.8764648.8579102-.2006836.3564453-.3022461.7529297-.3022461 1.1787109 0 .3793945.0708008.722168.2099609 1.0185547.1020508.2167969.2402344.4414063.4121094.6704102-.2753906.2133789-.5341797.4848633-.7719727.8095703-.3144531.4301758-.4741211.9501953-.4741211 1.5454102 0 .4643555.1132813.9082031.3364258 1.3193359.2260742.4179688.5854492.7607422 1.0673828 1.019043.4750977.2548828 1.0756836.3837891 1.7861328.3837891.4941406 0 .9692383-.0908203 1.4135742-.2700195.3686523-.1489258.7148438-.3452148 1.03125-.5844727l.6494141.6201172c.3085938.2851563.8222656.2709961 1.0864239-.0151367.1308594-.1430664.1972656-.3168945.1972656-.5166016 0-.1313477-.0273438-.2456055-.0810547-.340332-.0463868-.0805665-.1123047-.1586915-.1879864-.2241211zm-2.7465821-.538086c-.4453125.2988281-.9248047.4443359-1.4584961.4443359-.4570313 0-.8271484-.1206055-1.1318359-.3696289-.2895508-.2358398-.4301758-.527832-.4301758-.8920898 0-.3271484.0800781-.6030273.2441406-.8427734.1342773-.1953125.2910156-.3642578.4682617-.5029297z"/></g><g><path d="m40.105381 15.1396341c-.3339844.1748047-.6655273.3095703-.9848633.4013672-.3134766.0888672-.6821289.1342773-1.0957031.1342773-.6396484 0-1.1884766-.1318359-1.6313477-.3920898-.4394531-.2573242-.7739258-.6137695-.9941406-1.0595703-.2260742-.4545898-.340332-.9799805-.340332-1.5625s.1142578-1.1079102.340332-1.5629883c.2202148-.4448242.5546875-.8012695.9941406-1.0595703.4428711-.2597656.9916992-.3916016 1.6313477-.3916016.4135742 0 .7822266.0454102 1.0952148.1342773.3178711.0913086.6494141.2260742.9887695.402832.2739258.1386719.6464844.0810547.8569336-.1401367.1313477-.1376953.2011719-.3071289.2011719-.4907227 0-.3007813-.1362305-.534668-.390625-.6738281-.4370117-.2470703-.8842773-.4404297-1.3300781-.5742188-.4506836-.1342773-.9648438-.2021484-1.5292969-.2021484-.8383789 0-1.6030273.1860352-2.2739258.5527344-.675293.3696289-1.2128906.9067383-1.5981445 1.597168-.3833008.6865234-.5776367 1.496582-.5776367 2.4082031 0 .9121094.1943359 1.722168.5776367 2.4082031.3852539.6904297.9228516 1.2275381 1.5981445 1.597167.6708984.3666992 1.4355469.5527344 2.2739258.5527344.5644531 0 1.0786133-.0678711 1.5297852-.2021484.4433594-.1328125.890625-.3256836 1.3266602-.5727539.2573242-.140625.3935547-.3745117.3935547-.675292 0-.1933594-.0708008-.3662109-.2055664-.5009766-.2119141-.2114257-.5761719-.2695311-.8559571-.1284179z"/></g></g><g><g><g><path d="m24.4377441 31.8210449h-5.9238281c-1.1982422 0-2.1733398-.9750977-2.1733398-2.1738281v-5.9238281c0-1.2026367.9750977-2.1811523 2.1733398-2.1811523h5.9238281c1.1987305 0 2.1738281.9785156 2.1738281 2.1811523v5.9238281c.0000001 1.1987305-.9750976 2.1738281-2.1738281 2.1738281zm-5.9238281-9.2788086c-.6469727 0-1.1733398.5297852-1.1733398 1.1811523v5.9238281c0 .6474609.5263672 1.1738281 1.1733398 1.1738281h5.9238281c.6474609 0 1.1738281-.5263672 1.1738281-1.1738281v-5.9238281c0-.6513672-.5263672-1.1811523-1.1738281-1.1811523z"/></g><g><g><path d="m55.4899902 23.9299316h-18.2612304c-.2763672 0-.5-.2236328-.5-.5s.2236328-.5.5-.5h18.2612305c.2763672 0 .5.2236328.5.5s-.2236329.5-.5000001.5z"/></g><g><path d="m34.2023926 23.9299316h-3.8510742c-.2763672 0-.5-.2236328-.5-.5s.2236328-.5.5-.5h3.8510742c.2763672 0 .5.2236328.5.5s-.2236328.5-.5.5z"/></g><g><path d="m55.4899902 27.1813965h-7.8759766c-.2763672 0-.5-.2236328-.5-.5s.2236328-.5.5-.5h7.8759766c.2763672 0 .5.2236328.5.5s-.2236328.5-.5.5z"/></g><g><path d="m43.9001465 27.1813965h-13.5488281c-.2763672 0-.5-.2236328-.5-.5s.2236328-.5.5-.5h13.5488281c.2763672 0 .5.2236328.5.5s-.2236328.5-.5.5z"/></g><g><path d="m47.201416 30.4333496h-7.6342773c-.2763672 0-.5-.2236328-.5-.5s.2236328-.5.5-.5h7.6342773c.2763672 0 .5.2236328.5.5s-.2236328.5-.5.5z"/></g><g><path d="m36.5407715 30.4333496h-6.1894531c-.2763672 0-.5-.2236328-.5-.5s.2236328-.5.5-.5h6.1894531c.2763672 0 .5.2236328.5.5s-.2236328.5-.5.5z"/></g></g></g><g><path d="m20.6838379 28.388916c-.1279297 0-.2558594-.0488281-.3535156-.1464844l-.8310547-.8305664c-.1953125-.1948242-.1953125-.5117188 0-.7070313s.5117188-.1953125.7070313 0l.4775391.4770508 2.0615234-2.0615234c.1953125-.1953125.5117188-.1953125.7070313 0s.1953125.5117188 0 .7070313l-2.4150391 2.4150391c-.0976563.0976562-.225586.1464843-.3535157.1464843z"/></g></g><g><g><g><path d="m24.4377441 44.4206543h-5.9238281c-1.1982422 0-2.1733398-.9750977-2.1733398-2.1733398v-5.9243165c0-1.2026367.9750977-2.1806641 2.1733398-2.1806641h5.9238281c1.1987305 0 2.1738281.9780273 2.1738281 2.1806641v5.9243164c.0000001 1.1982422-.9750976 2.1733399-2.1738281 2.1733399zm-5.9238281-9.2783203c-.6469727 0-1.1733398.5297852-1.1733398 1.1806641v5.9243164c0 .6469727.5263672 1.1733398 1.1733398 1.1733398h5.9238281c.6474609 0 1.1738281-.5263672 1.1738281-1.1733398v-5.9243165c0-.6508789-.5263672-1.1806641-1.1738281-1.1806641h-5.9238281z"/></g><g><g><path d="m55.4899902 36.5300293h-18.2612304c-.2763672 0-.5-.2236328-.5-.5s.2236328-.5.5-.5h18.2612305c.2763672 0 .5.2236328.5.5s-.2236329.5-.5000001.5z"/></g><g><path d="m34.2023926 36.5300293h-3.8510742c-.2763672 0-.5-.2236328-.5-.5s.2236328-.5.5-.5h3.8510742c.2763672 0 .5.2236328.5.5s-.2236328.5-.5.5z"/></g><g><path d="m55.4899902 39.7814941h-7.8759766c-.2763672 0-.5-.2236328-.5-.5s.2236328-.5.5-.5h7.8759766c.2763672 0 .5.2236328.5.5s-.2236328.5-.5.5z"/></g><g><path d="m43.9001465 39.7814941h-13.5488281c-.2763672 0-.5-.2236328-.5-.5s.2236328-.5.5-.5h13.5488281c.2763672 0 .5.2236328.5.5s-.2236328.5-.5.5z"/></g><g><path d="m47.201416 43.0334473h-7.6342773c-.2763672 0-.5-.2236328-.5-.5s.2236328-.5.5-.5h7.6342773c.2763672 0 .5.2236328.5.5s-.2236328.5-.5.5z"/></g><g><path d="m36.5407715 43.0334473h-6.1894531c-.2763672 0-.5-.2236328-.5-.5s.2236328-.5.5-.5h6.1894531c.2763672 0 .5.2236328.5.5s-.2236328.5-.5.5z"/></g></g></g><g><path d="m20.6838379 40.9890137c-.1279297 0-.2558594-.0488281-.3535156-.1464844l-.8310547-.8310547c-.1953125-.1953125-.1953125-.5117188 0-.7070313s.5117188-.1953125.7070313 0l.4775391.4775391 2.0615234-2.0615234c.1953125-.1953125.5117188-.1953125.7070313 0s.1953125.5117188 0 .7070313l-2.4150391 2.4150391c-.0976563.0976561-.225586.1464843-.3535157.1464843z"/></g></g><g><g><g><path d="m24.4377441 57.020752h-5.9238281c-1.1982422 0-2.1733398-.9750977-2.1733398-2.1733398v-5.9243164c0-1.2026367.9750977-2.1806641 2.1733398-2.1806641h5.9238281c1.1987305 0 2.1738281.9780273 2.1738281 2.1806641v5.9243164c.0000001 1.1982421-.9750976 2.1733398-2.1738281 2.1733398zm-5.9238281-9.2783204c-.6469727 0-1.1733398.5297852-1.1733398 1.1806641v5.9243164c0 .6469727.5263672 1.1733398 1.1733398 1.1733398h5.9238281c.6474609 0 1.1738281-.5263672 1.1738281-1.1733398v-5.9243164c0-.6508789-.5263672-1.1806641-1.1738281-1.1806641z"/></g><g><g><path d="m55.4899902 49.130127h-18.2612304c-.2763672 0-.5-.2236328-.5-.5s.2236328-.5.5-.5h18.2612305c.2763672 0 .5.2236328.5.5s-.2236329.5-.5000001.5z"/></g><g><path d="m34.2023926 49.130127h-3.8510742c-.2763672 0-.5-.2236328-.5-.5s.2236328-.5.5-.5h3.8510742c.2763672 0 .5.2236328.5.5s-.2236328.5-.5.5z"/></g><g><path d="m55.4899902 52.3815918h-7.8759766c-.2763672 0-.5-.2236328-.5-.5s.2236328-.5.5-.5h7.8759766c.2763672 0 .5.2236328.5.5s-.2236328.5-.5.5z"/></g><g><path d="m43.9001465 52.3815918h-13.5488281c-.2763672 0-.5-.2236328-.5-.5s.2236328-.5.5-.5h13.5488281c.2763672 0 .5.2236328.5.5s-.2236328.5-.5.5z"/></g><g><path d="m47.201416 55.6330566h-7.6342773c-.2763672 0-.5-.2236328-.5-.5s.2236328-.5.5-.5h7.6342773c.2763672 0 .5.2236328.5.5s-.2236328.5-.5.5z"/></g><g><path d="m36.5407715 55.6330566h-6.1894531c-.2763672 0-.5-.2236328-.5-.5s.2236328-.5.5-.5h6.1894531c.2763672 0 .5.2236328.5.5s-.2236328.5-.5.5z"/></g></g></g><g><path d="m20.6838379 53.5891113c-.1279297 0-.2558594-.0488281-.3535156-.1464844l-.8310547-.8310547c-.1953125-.1953125-.1953125-.5117188 0-.7070313s.5117188-.1953125.7070313 0l.4775391.4775391 2.0615234-2.0615234c.1953125-.1953125.5117188-.1953125.7070313 0s.1953125.5117188 0 .7070313l-2.4150391 2.4150391c-.0976563.0976562-.225586.1464843-.3535157.1464843z"/></g></g></g></g></svg>