<svg id="Layer_1" viewBox="0 0 64 64" xmlns="http://www.w3.org/2000/svg" data-name="Layer 1"><path d="m20.592 7.247a9.684 9.684 0 1 0 9.683 9.683 9.694 9.694 0 0 0 -9.683-9.683zm0 17.367a7.684 7.684 0 1 1 7.683-7.684 7.693 7.693 0 0 1 -7.683 7.684z"/><path d="m5.509 31.02a11.351 11.351 0 0 0 -3.339 8.071v10.709a6.953 6.953 0 0 0 6.955 6.955h12.368.024 33.774a1 1 0 0 0 .964-.736l5.539-20.278a1 1 0 0 0 -.964-1.263h-21.25l-4.18-4.188a8.9 8.9 0 0 0 -6.335-2.624h-15.465a11.348 11.348 0 0 0 -8.091 3.354zm49.018 23.731h-24.985l.875-2.839h24.883zm1.322-4.839h-24.815l4.145-13.438h24.341zm-21.867-18.212 2.769 2.77h-2.31a1 1 0 0 0 -.955.705l-6.037 19.576h-2.184a4.532 4.532 0 0 0 .79-2.56v-.75a4.567 4.567 0 0 0 -4.562-4.562h-5a2.353 2.353 0 0 1 -2.35-2.351v-2.319a1 1 0 0 0 -2 0v2.319a4.355 4.355 0 0 0 4.35 4.351h5a2.565 2.565 0 0 1 2.562 2.562v.75a2.564 2.564 0 0 1 -2.538 2.56h-.024-.012-12.356a4.955 4.955 0 0 1 -4.955-4.951v-10.709a9.427 9.427 0 0 1 9.43-9.425h15.461a6.918 6.918 0 0 1 4.921 2.034z"/></svg>