<svg height="616pt" viewBox="-65 -19 616 616.24964" width="616pt" xmlns="http://www.w3.org/2000/svg"><path d="m336.582031 108.398438c-28.375-20.777344-62.019531-31.722657-97.179687-31.722657-35.171875 0-68.816406 10.945313-97.183594 31.722657-28.371094 20.78125-49.074219 49.46875-59.78125 82.957031-21.65625 68.09375 3.195312 141.941406 62.019531 183.578125 7.507813 5.351562 11.984375 13.976562 11.984375 23.175781v13.664063c0 13.984374 11.347656 25.332031 25.335938 25.332031l126.832031.078125c4.796875.5625 8.476563 4.636718 8.476563 9.433594 0 4.792968-3.679688 8.871093-8.476563 9.425781l-111.171875.089843c-.078125 0-.15625 0-.316406 0-.078125 0-.15625 0-.320313 0-19.65625.878907-35.164062 16.9375-35.164062 36.679688 0 19.734375 15.425781 35.804688 35.164062 36.683594h.480469l91.105469.878906c4.800781.554688 8.476562 4.628906 8.476562 9.429688 0 4.792968-3.675781 8.871093-8.476562 9.421874l-80.554688.089844c-7.515625 0-13.585937 6.074219-13.585937 13.582032 0 7.511718 6.070312 13.585937 13.585937 13.585937l81.277344-.078125c.324219 0 .71875 0 1.039063-.078125h.394531c18.949219-1.601563 33.566406-17.585937 33.566406-36.445313 0-18.859374-14.539063-34.765624-33.238281-36.523437-.085938 0-.164063 0-.164063 0-.078125 0-.242187 0-.320312 0-.160157 0-.320313 0-.480469 0-.15625 0-.316406 0-.472656 0l-91.433594-.878906c-5.035156-.242188-9.027344-4.394531-9.027344-9.507813 0-5.042968 3.914063-9.195312 8.949219-9.515625l111.402344-.078125c.324219 0 .722656 0 1.046875-.078125h.394531c18.78125-1.679687 33.328125-17.664062 33.328125-36.523437s-14.625-34.847656-33.328125-36.523438c-.078125 0-.15625 0-.15625 0-.082031 0-.160156 0-.238281 0-.167969 0-.324219 0-.5625 0-.160156 0-.316406 0-.5625 0l-125.710938-.078125v-11.832031c0-17.980469-8.792968-35-23.496094-45.394531-49.148437-34.84375-69.929687-96.378907-51.871093-153.203125 18.226562-57.296875 70.894531-95.824219 131.070312-95.824219 60.183594 0 112.847657 38.527344 131.066407 95.824219 18.226562 57.300781-2.472657 119.160156-51.464844 153.925781-6.152344 4.3125-7.589844 12.785156-3.195313 18.9375 2.636719 3.761719 6.871094 5.757813 11.105469 5.757813 2.71875 0 5.4375-.800782 7.832031-2.480469 28.691407-20.375 49.789063-48.75 60.980469-82.070313 11.1875-33.410156 11.425781-68.734375.714844-102.21875-10.625-33.730468-31.324219-62.417968-59.695313-83.199218zm0 0"/><path d="m50.3125 230.597656h-43.15625c-6.152344 0-11.1875 5.035156-11.1875 11.1875s5.035156 11.1875 11.1875 11.1875h43.15625c6.152344 0 11.1875-5.035156 11.1875-11.1875 0-6.230468-4.957031-11.1875-11.1875-11.1875zm0 0"/><path d="m239.003906 64.28125c6.148438 0 11.1875-5.035156 11.1875-11.1875v-43.152344c0-6.15625-5.039062-11.191406-11.1875-11.191406-6.15625 0-11.191406 5.035156-11.191406 11.191406v43.152344c0 6.234375 4.953125 11.1875 11.191406 11.1875zm0 0"/><path d="m105.617188 119.585938c2.792968 0 5.671874-1.035157 7.832031-3.195313 4.390625-4.3125 4.476562-11.433594.160156-15.820313l-30.292969-31.089843c-4.316406-4.398438-11.425781-4.476563-15.824218-.15625-4.394532 4.308593-4.472657 11.421875-.15625 15.820312l30.289062 31.089844c2.234375 2.234375 5.113281 3.351563 7.992188 3.351563zm0 0"/><path d="m395.402344 69.558594-30.289063 31.089844c-4.320312 4.398437-4.242187 11.507812.15625 15.824218 2.15625 2.15625 5.035157 3.191406 7.835938 3.191406 2.878906 0 5.835937-1.113281 7.992187-3.351562l30.289063-31.085938c4.3125-4.398437 4.234375-11.507812-.160157-15.824218-4.476562-4.398438-11.507812-4.242188-15.824218.15625zm0 0"/><path d="m471.566406 230.597656h-43.957031c-6.152344 0-11.1875 5.035156-11.1875 11.1875s5.035156 11.1875 11.1875 11.1875h43.957031c6.152344 0 11.1875-5.035156 11.1875-11.1875 0-6.230468-5.035156-11.1875-11.1875-11.1875zm0 0"/></svg>