<svg id="Layer_1" viewBox="0 0 64 64" xmlns="http://www.w3.org/2000/svg" data-name="Layer 1"><path d="m16.916 24.731c.717.142 1.471.266 2.251.384.235.242.499.461.826.63.459.229.949.345 1.457.345h.199c.007.068.025.133.033.201.022.176.055.349.086.523.044.25.092.498.153.744.044.178.096.353.149.528.071.236.148.468.235.698.065.173.135.344.208.514.098.224.203.443.315.659.084.164.169.326.262.485.124.213.258.419.396.623.1.149.198.298.305.442.154.205.32.399.488.593.11.128.216.259.332.382.195.205.405.394.616.583.106.095.204.197.314.287.181.149.377.282.569.419v1.97l-.004.135c0 .018 0 .035-.002.053-.002.032-.003.056-.002.074v.021c-.007.09-.022.18-.04.277-.004.025-.011.051-.015.075l-.303-.146c-.478-.229-1.05-.047-1.308.415l-1.374 2.471-7.448.838c-.012 0-.024.002-.036.003l-.891.091c-2.718.308-4.768 2.601-4.768 5.333v15.62c0 .552.447 1 1 1h42.201c.553 0 1-.448 1-1v-15.62c0-2.733-2.05-5.026-4.779-5.335l-8.363-.931-1.374-2.47c-.258-.462-.832-.644-1.307-.415l-.292.141c-.04-.208-.076-.416-.076-.629v-2.001c.195-.139.394-.273.577-.423.108-.089.203-.188.307-.281.213-.189.425-.378.62-.582.114-.119.215-.248.323-.372.167-.192.334-.383.485-.586.105-.14.197-.287.294-.431.135-.2.268-.401.388-.61.09-.156.169-.317.25-.477.106-.209.209-.419.301-.635.072-.169.135-.341.197-.513.079-.219.152-.438.217-.663.051-.178.096-.357.137-.538.052-.228.096-.457.133-.69.029-.184.055-.368.074-.554.01-.099.032-.194.039-.293h.188c.269 0 .542-.041.755-.105.535-.124 1.05-.405 1.508-.833.035-.035.053-.067.086-.102.782-.12 1.541-.259 2.316-.41 6.162-1.282 9.286-3.123 9.286-5.469 0-3.233-6.009-4.923-11.035-5.769-.003-6.287-5.113-11.401-11.394-11.401h-3.923c-6.253 0-11.341 5.068-11.39 11.315-4.33.696-11.498 2.374-11.498 5.855 0 3.015 5.301 4.688 9.746 5.561zm3.983-.769c-.18-.093-.32-.211-.439-.382-.147-.197-.22-.416-.22-.669 0-.321.127-.628.357-.854.102-.102.152-.133.241-.181.178-.108.39-.165.611-.165h.14v2.38h-.14c-.195 0-.386-.045-.551-.128zm3.125-2.715c.05-.016.103-.032.157-.049.155-.048.324-.097.508-.148.031-.009.058-.017.09-.025.211-.057.447-.115.694-.173.069-.016.141-.032.213-.048.248-.055.51-.11.791-.163.025-.005.048-.01.074-.015.301-.055.626-.107.963-.156.087-.013.175-.025.264-.037.343-.046.698-.09 1.076-.126.015-.001.028-.003.043-.005.386-.036.796-.064 1.217-.086.104-.006.21-.01.316-.015.438-.019.887-.032 1.36-.032.477 0 .933.014 1.378.033.108.005.216.01.323.015.429.023.848.051 1.244.088.021.002.039.005.06.006.385.037.75.08 1.102.127.088.012.175.023.261.035.352.05.692.103 1.008.159.03.005.056.011.086.016.296.054.574.11.837.167.064.014.129.028.191.042.27.06.526.121.756.181.026.007.047.013.073.019.211.055.403.109.579.161.041.012.084.024.123.036.18.054.345.106.481.151.003 0 .005.002.007.003v3.91c0 2.84-1.435 5.46-3.843 7.025-.025.013-.05.026-.073.041-.156.096-.312.191-.486.283-1.378.74-2.938 1.079-4.516.974-.379-.027-.746-.081-1.101-.16-.776-.167-1.521-.443-2.213-.82-.015-.008-.03-.016-.045-.023l-.386-.235c-.021-.013-.043-.024-.065-.036-2.416-1.566-3.939-4.352-3.982-7.293v-3.683c.007-.002.011-.004.018-.007.119-.042.262-.089.416-.138zm10.735 24.353c.047 0 .093-.015.14-.021.034-.005.067-.007.1-.015.118-.029.231-.073.333-.144l5.851-4.09c.066-.046.126-.101.179-.159l1.361.153-1.884 7.516h-17.638l-1.884-7.516 1.361-.153c.052.059.112.113.179.16l5.851 4.09c.102.071.215.115.333.144.034.008.067.011.101.015.047.007.092.021.14.021.064 0 .129-.006.193-.019.267-.053.5-.211.647-.44l1.899-2.939 1.899 2.939c.147.229.381.387.647.44.064.012.129.019.193.019zm-6.125-10.517c.399.139.803.263 1.216.352.443.1.91.167 1.396.203.229.015.458.022.687.022.08 0 .158-.013.238-.015.236-.005.47-.022.705-.043.179-.016.357-.032.535-.057.234-.033.463-.08.693-.128.174-.037.347-.071.519-.117.229-.061.453-.138.678-.214.166-.057.332-.108.494-.173.041-.016.084-.027.125-.044v.871c0 .519.082 1.025.227 1.518l-4.128 1.991-4.127-1.987c.02-.068.038-.137.055-.205.038-.142.065-.283.089-.429.017-.102.032-.215.044-.344.001-.006.005-.01.006-.015.014-.083.011-.166.017-.249.003-.033.009-.066.009-.099v-.033c.001-.049.01-.098.01-.147v-.843c.079.033.162.057.242.087.091.035.181.066.273.098zm-2.909 3.356 4.839 2.33-1.562 2.417-4.261-2.98zm-13.806 6.94c0-1.715 1.286-3.153 2.981-3.345l.788-.084c.037 0 .075-.002.112-.006l3.51-.395 2.073 8.27c0 .007-.004.013-.004.021 0 2.22-1.807 4.027-4.027 4.027-.553 0-1 .448-1 1v5.134h-4.434v-14.62zm6.434 14.62v-4.217c2.524-.423 4.521-2.42 4.944-4.944h17.404c.423 2.524 2.42 4.521 4.944 4.944v4.217h-27.291zm30.774-17.966c1.706.193 2.992 1.631 2.992 3.346v14.62h-4.474v-5.134c0-.552-.447-1-1-1-2.191 0-3.971-1.76-4.019-3.94l2.1-8.377 3.521.396.879.088zm-9.829-1.827-4.262 2.979-1.562-2.417 1.164-.561 3.131-1.51s.001 0 .002-.001l.036-.017c.03-.011.059-.024.085-.037l.422-.203.984 1.768zm3.407-16.156c-.086.025-.171.039-.246.039h-.16v-2.38h.16c.195 0 .359.035.522.114.418.198.678.614.678 1.086 0 .229-.071.464-.202.655-.021.031-.062.085-.121.144-.181.169-.378.282-.631.342zm-12.647-20.05h3.923c5.075 0 9.224 4.05 9.39 9.092-.062-.009-.13-.014-.192-.023-.706-.098-1.436-.184-2.178-.262-.199-.021-.397-.042-.598-.062-.771-.075-1.557-.14-2.358-.195-.171-.012-.342-.022-.514-.033-.849-.053-1.709-.095-2.582-.124-.103-.003-.207-.005-.31-.008-.94-.028-1.889-.045-2.848-.045-.09 0-.179.004-.269.005-.934.003-1.865.018-2.787.047-.302.01-.597.028-.896.041-.721.03-1.439.063-2.146.109-.31.02-.611.047-.917.071-.686.052-1.364.108-2.029.176-.312.032-.615.068-.922.103-.383.044-.778.08-1.153.128.203-5.008 4.336-9.019 9.387-9.019zm-10.962 11.271c.158-.032.315-.054.477-.077l.233-.035c2.735-.402 5.749-.662 8.852-.766 1.035-.035 2.082-.052 3.133-.052h.055c1.096 0 2.182.019 3.251.057h.01c3.268.116 6.38.405 9.162.855.244.027.479.063.735.113 6.901 1.159 9.406 2.91 9.406 3.804 0 .661-1.608 2.245-7.682 3.509-.357.069-.713.138-1.068.203 0-.081-.012-.159-.019-.238-.006-.069-.006-.14-.016-.208-.011-.078-.032-.152-.049-.228-.016-.071-.027-.144-.047-.214-.021-.071-.05-.138-.075-.206-.026-.071-.048-.143-.079-.211-.029-.064-.066-.123-.099-.185-.036-.068-.069-.139-.11-.204-.035-.056-.079-.107-.117-.161-.047-.065-.091-.133-.143-.195-.042-.049-.091-.092-.136-.139-.057-.06-.112-.122-.174-.177-.056-.05-.119-.092-.179-.138-.058-.045-.113-.093-.175-.134-.125-.083-.258-.158-.397-.223-.431-.208-.884-.31-1.385-.31h-.967s-.01-.004-.015-.005c-.008-.003-.018-.007-.026-.01-.054-.021-.115-.043-.186-.069-.025-.009-.054-.019-.081-.029-.062-.022-.127-.045-.201-.07-.039-.013-.079-.026-.121-.04-.074-.024-.151-.049-.234-.075-.049-.016-.099-.031-.151-.047-.087-.027-.179-.054-.275-.082-.058-.017-.114-.033-.175-.05-.103-.029-.212-.058-.323-.088-.064-.017-.125-.034-.192-.051-.133-.034-.274-.069-.419-.103-.053-.013-.101-.025-.156-.038-.202-.047-.414-.094-.636-.14-.047-.01-.098-.019-.146-.029-.177-.036-.357-.071-.547-.105-.087-.016-.178-.031-.268-.046-.16-.028-.322-.055-.49-.081-.102-.016-.207-.031-.312-.046-.165-.024-.332-.047-.504-.069-.114-.015-.229-.028-.346-.042-.174-.02-.352-.039-.534-.057-.12-.012-.241-.024-.365-.035-.19-.017-.384-.031-.58-.045-.124-.009-.245-.018-.372-.026-.215-.013-.437-.022-.661-.031-.114-.005-.226-.011-.342-.014-.342-.01-.69-.016-1.049-.016-.608 0-1.181.019-1.734.047-.082.004-.165.007-.246.012-.518.03-1.008.072-1.476.121-.089.009-.176.019-.264.029-.458.053-.894.111-1.301.177-.06.01-.115.02-.173.03-.408.069-.795.141-1.149.217-.011.002-.024.005-.035.007-.362.078-.687.158-.99.238-.047.012-.095.024-.141.037-.282.076-.534.15-.761.221-.042.013-.079.025-.118.038-.217.07-.411.135-.571.194-.022.008-.037.014-.059.022-.155.057-.285.108-.38.148-.002 0-.007.003-.009.004h-.933c-.588 0-1.157.157-1.577.416-.238.119-.458.284-.683.509-.604.59-.95 1.419-.95 2.275v.032c-.318-.055-.631-.113-.938-.174-5.967-1.171-8.133-2.794-8.133-3.599 0-.896 2.685-2.744 9.926-3.899z"/></svg>