<?xml version="1.0" encoding="UTF-8"?>
<svg xmlns="http://www.w3.org/2000/svg" viewBox="0 0 128 128" width="512" height="512"><g id="Outline"><g id="Outline-2" data-name="Outline"><path d="M111.968,52.647A7.548,7.548,0,0,0,103,60.005V67.98c-6.431.857-13.4,1.329-19.837,1.586l-.134-3.378c2.385-1.941,11.456-9.354,15-11.621,7.838-5.014,2.81-16.969-5.926-14.425C87.78,41.4,81.1,43.821,77.434,44c-2.024.1-5.4-.843-8.237-1.587A21.946,21.946,0,0,0,80.906,31.343,6.51,6.51,0,0,0,86,25V19a6.51,6.51,0,0,0-5.094-6.343,21.964,21.964,0,0,0-41.321,4.48A3.494,3.494,0,0,0,37,20.5v3a3.494,3.494,0,0,0,2.585,3.363A21.907,21.907,0,0,0,51.693,41.941a22.622,22.622,0,0,0-11.678,6.122c-6.006,6.238-6.291,15.378-6.148,20.85-3-.245-5.986-.553-8.867-.938v-7.97a7.548,7.548,0,0,0-8.968-7.358C4.944,54.867,0,57.406,0,60.878v46.5a1.454,1.454,0,0,0,.028.287c1.067,5.471,17.031,8.459,34.123,9.945l-.066,1.057a9.232,9.232,0,0,0,17.771,3.607l1.465-3.567c4.7.14,8.5.189,12.625.164l1.23,3.187a9.283,9.283,0,0,0,17.931-3.815c19.979-1.175,41.617-4.177,42.865-10.578a1.454,1.454,0,0,0,.028-.287v-46.5C128,57.406,123.056,54.867,111.968,52.647ZM106,60.005a4.531,4.531,0,0,1,5.379-4.416c10.573,2.117,12.939,4.154,13.468,4.944-2.918,3.46-10.173,5.642-18.847,7.013ZM83,19v6a3.5,3.5,0,0,1-3.5,3.5h-22A3.5,3.5,0,0,1,54,25V19a3.5,3.5,0,0,1,3.5-3.5h22A3.5,3.5,0,0,1,83,19ZM61,3a18.954,18.954,0,0,1,16.446,9.5H57.5A6.509,6.509,0,0,0,51.318,17H42.689A18.932,18.932,0,0,1,61,3ZM40,23.5v-3a.5.5,0,0,1,.5-.5H51v4H40.5A.5.5,0,0,1,40,23.5ZM42.689,27h8.629A6.509,6.509,0,0,0,57.5,31.5H77.446A18.979,18.979,0,0,1,42.689,27Zm-.513,23.145C46.1,46.067,52.436,44.03,61,44c4.816-.017,11.864,3.208,16.566,3,4.113-.184,10.806-2.661,15.392-3.981,5.444-1.568,8.379,5.947,3.421,9.043C93.269,54,86.47,59.543,82.863,62.46l-.051-1.13a1.5,1.5,0,0,0-3,.135c.1,2.049.275,6.159.351,8.207-10.859.285-14.773.216-23.974.172-1.443-2.556-2.554-4.673-3.348-6.4A1.5,1.5,0,0,0,50.117,64.7c.665,1.446,1.529,3.131,2.608,5.1-4.784-.089-10.272-.274-15.847-.655C36.71,62.133,37.394,55.112,42.176,50.145ZM16.621,55.589A4.531,4.531,0,0,1,22,60.005v7.534c-8.656-1.371-15.907-3.552-18.846-7.008C3.686,59.739,6.059,57.7,16.621,55.589Zm32.46,65.547a6.233,6.233,0,0,1-12-2.358l.059-.923c4.383.335,8.786.577,12.983.741ZM75.841,125a6.327,6.327,0,0,1-5.866-4.022l-.827-2.142c3.994-.063,8.406-.2,12.966-.43C82.193,120.056,81,125,75.841,125ZM125,107.175c-7.067,7.318-43.879,8.623-61,8.7-17.062-.077-53.949-1.386-61-8.7V64.43c9.7,7.484,40.189,8.54,60.68,8.448,23.3.028,51.119-.971,61.32-8.438Z"/><path d="M110.439,27.511a4.5,4.5,0,0,0-4.5,4.5v6.121a4.505,4.505,0,0,0,4.5,4.5h6.122a4.505,4.505,0,0,0,4.5-4.5V32.011a4.5,4.5,0,0,0-4.5-4.5Zm7.622,4.5v6.121a1.5,1.5,0,0,1-1.5,1.5h-6.122a1.5,1.5,0,0,1-1.5-1.5V32.011a1.5,1.5,0,0,1,1.5-1.5h6.122A1.5,1.5,0,0,1,118.061,32.011Z"/><path d="M28.682,29.561a4.519,4.519,0,0,0-6.364,0l-4.329,4.328a4.505,4.505,0,0,0,0,6.364l4.328,4.328a4.52,4.52,0,0,0,6.364,0l4.329-4.328a4.506,4.506,0,0,0,0-6.364h0Zm2.207,8.571L26.56,42.46a1.537,1.537,0,0,1-2.121,0l-4.328-4.328a1.5,1.5,0,0,1,0-2.122l4.329-4.328a1.506,1.506,0,0,1,2.121,0l4.328,4.328A1.5,1.5,0,0,1,30.889,38.132Z"/><path d="M10,20A10,10,0,1,0,0,10,10.011,10.011,0,0,0,10,20ZM10,3a7,7,0,1,1-7,7A7.008,7.008,0,0,1,10,3Z"/><path d="M56.65,101.3a.433.433,0,0,1-.811,0L48.326,82.932a1.5,1.5,0,1,0-2.777,1.136l7.514,18.366a3.454,3.454,0,0,0,6.363,0l6.522-15.942A2.391,2.391,0,0,1,68.169,85h6.689a5.009,5.009,0,0,1,0,10h-3.1a1.51,1.51,0,0,0-1.085,2.536l6.98,7.314a1.5,1.5,0,0,0,2.17-2.073l-4.57-4.788A8.013,8.013,0,0,0,74.858,82H68.169a5.381,5.381,0,0,0-5,3.355Z"/><path d="M126.974,17.269a4.458,4.458,0,0,0,.032-4.483L121.418,2.9a4.5,4.5,0,0,0-7.836,0l-5.588,9.891a4.5,4.5,0,0,0,3.918,6.714h11.176A4.456,4.456,0,0,0,126.974,17.269Zm-16.357-1.513a1.474,1.474,0,0,1-.011-1.494l5.588-9.893a1.5,1.5,0,0,1,2.612,0l5.588,9.893h0a1.5,1.5,0,0,1-1.306,2.237H111.912A1.475,1.475,0,0,1,110.617,15.756Z"/></g></g></svg>
