<svg id="_x30_04-man_in_glasses" enable-background="new 0 0 512 512" height="512" viewBox="0 0 512 512" width="512" xmlns="http://www.w3.org/2000/svg"><path d="m454.645 143.083h-13.326c-1.141-23.911-17.775-43.822-40.062-49.923-42.53-107.057-169.508-108.915-232.566-69.892-25.895 16.026-45.094 39.539-57.151 69.892-22.287 6.102-38.921 26.012-40.062 49.923h-14.123c-8.444 0-15.314 6.867-15.314 15.308v52.527c0 8.441 6.87 15.308 15.314 15.308h14.125c1.181 23.926 17.875 43.832 40.211 49.877 10.906 33.798 28.913 66.968 55.441 91.247.138 6.082-.16 25.723-8.261 48.74-12.93 36.733-38.653 64.333-76.457 82.031-7.032 3.291-4.664 13.879 3.091 13.879h341.787c7.766 0 10.114-10.593 3.091-13.88-37.803-17.699-63.527-45.298-76.457-82.031-8.104-23.025-8.399-42.672-8.262-48.739 26.473-24.222 44.509-57.369 55.441-91.247 22.336-6.045 39.031-25.951 40.212-49.877h13.328c8.444 0 15.313-6.867 15.313-15.308v-52.527c0-8.441-6.869-15.308-15.313-15.308zm-383.234 68.574c-13.214-.297-14.796.653-14.796-.74.337-54.12-.71-53.266.741-53.266h14.056v54.006zm184.988-196.905c60.431 0 105.521 27.046 128.205 76.47h-256.41c22.684-49.424 67.774-76.47 128.205-76.47zm143.242 482.68h-286.486c41.168-27.841 64.725-71.062 68.206-118.103 48.982 32.863 103.772 31.408 150.063-.15 3.388 46.388 26.433 89.995 68.217 118.253zm-203.291-125.929c-29.598-18.246-53.596-50.424-68.678-93.505h86.374c12.94 0 23.468-10.524 23.468-23.459 0-5.303 4.315-9.617 9.62-9.617h18.528c5.305 0 9.62 4.314 9.62 9.617 0 12.936 10.528 23.459 23.468 23.459h86.374c-36.766 105.023-121.303 133.104-188.774 93.505zm230.336-147.994c0 21.942-17.858 39.794-39.808 39.794h-88.126c-4.835 0-8.768-3.932-8.768-8.765 0-13.405-10.91-24.311-24.32-24.311h-18.528c-13.41 0-24.32 10.905-24.32 24.311 0 4.833-3.933 8.765-8.768 8.765h-88.127c-21.95 0-39.808-17.852-39.808-39.794v-77.799c0-21.942 17.858-39.794 39.808-39.794h260.958c21.95 0 39.808 17.852 39.808 39.794v77.799zm27.959-11.852h-13.259v-54.006c12.348.293 14-.653 14 .74-.338 54.121.709 53.266-.741 53.266zm-115.836-84.306c-3.718-1.537-7.98.23-9.518 3.948l-17.117 41.39-17.117-41.39c-1.537-3.718-5.798-5.485-9.517-3.948-3.719 1.536-5.488 5.796-3.95 9.514l23.468 56.747c2.551 6.165 11.782 5.929 14.233 0l23.468-56.747c1.538-3.718-.23-7.978-3.95-9.514zm51.363 42.823c7.45-3.792 12.569-11.529 12.569-20.444 0-12.644-10.29-22.932-22.939-22.932h-19.098c-4.024 0-7.287 3.261-7.287 7.284v57.294c0 4.023 3.262 7.284 7.287 7.284s7.286-3.261 7.286-7.284v-18.715h6.359l15.026 22.731c2.219 3.356 6.74 4.28 10.096 2.061 3.358-2.217 4.281-6.736 2.062-10.092zm-10.371-12.081h-11.811v-16.727h11.811c4.613 0 8.366 3.752 8.366 8.364 0 4.611-3.752 8.363-8.366 8.363zm-273.728 28.793c-4.024 0-7.286 3.261-7.286 7.284v11.476c0 4.023 3.262 7.284 7.286 7.284s7.286-3.261 7.286-7.284v-11.476c.001-4.023-3.262-7.284-7.286-7.284zm24.173-68.767c-18.229 0-31.46 13.226-31.46 31.448v21.306c0 4.023 3.262 7.284 7.286 7.284s7.286-3.261 7.286-7.284v-21.306c0-7.787 4.423-16.88 16.887-16.88 4.024 0 7.286-3.261 7.286-7.284.002-4.023-3.26-7.284-7.285-7.284z"/></svg>