<?xml version="1.0" standalone="no"?>
<svg xmlns="http://www.w3.org/2000/svg" version="1.1" xmlns:xlink="http://www.w3.org/1999/xlink" width="512" height="512" x="0" y="0" viewBox="0 0 100 100" style="enable-background:new 0 0 512 512" xml:space="preserve" class=""><g><path fill="#7a7979" d="M89.659 62.417c.009-.018.018-.027.018-.045-.143 2.445-.658 5.627-.756 7.982-.267 6.248-.542 12.505-1.422 18.7-.462 3.271-2.302 6.569-5.777 7.049-3.902.542-7.875.897-11.804.897-3.84 0-7.981-1.11-11.616-2.24-.862-.266-1.725-.56-2.453-1.084-2.107-1.51-2.436-3.742-2.667-6.07a403.481 403.481 0 0 1-1.804-26.442c.124.204.284.382.453.55 3.102 3.058 7.937 3.2 12.283 3.156 4.871-.053 9.742-.107 14.604-.151 3.635-.045 7.457-.134 10.585-1.973.142-.08.294-.178.356-.33z" opacity="0" data-original="#7a7979" class=""/><path fill="#ffffff" d="M55.73 3.03a3.388 3.388 0 0 1 2.79 4.422c-4.032 12.262-15.423 40.144-19.349 46.923-.5.864-1.075 2.106-1.074 3.101a15.759 15.759 0 0 1-2.788-1.406c-.114-.072-.234-.155-.28-.282-.05-.146.011-.306.072-.449 1.46-3.419 13.226-39.495 16.936-50.045A3.444 3.444 0 0 1 55.73 3.03z" opacity="0" data-original="#ffffff" class=""/><path fill="#ffffff" d="M35.369 53.686c.907-.106 1.782.337 2.593.764.665.344 1.334.697 1.999 1.041.5.263 1.057.602 1.137 1.163.035.27-.05.53-.128.786-.215.685-.441 1.822-.745 2.959-.893-1.015-2.002-1.802-3.31-2.207-1.622-.5-3.312-.368-4.905.183.1-.41.206-.804.32-1.202.232-.788.518-1.564 1.014-2.222.489-.655 1.206-1.174 2.025-1.265z" opacity="0" data-original="#ffffff" class=""/><path fill="#f7ca49" d="M36.087 77.928c-1.304 3.49-2.646 7.084-2.524 10.78.094 2.552.863 5.03 1.726 7.431-1.004-.366-1.97-.891-2.908-1.557-1.502-1.08-3.584-1.295-5.292-.573a5.699 5.699 0 0 0-.347.16c-.985.44-2.083 1.004-2.909.394-.159-.131-.29-.29-.394-.47-.14-.224-.243-.468-.356-.703-.6-1.351-2.017-4.006-3.546-4.447-1.014-.291-2.28.178-3.49.676-.826.337-1.624.684-2.29.806-.657.113-1.313.132-1.97.16l-1.961.056-1.858.056c-.234.01-.516-.009-.638-.215-.084-.132-.056-.31-.018-.47.403-1.998.497-3.574 2.167-4.794 1.604-1.173 3.087-2.514 4.484-3.912 2.796-2.815 5.217-6.005 7.13-9.486 1.83-3.32 3.238-6.942 5.733-9.823 1.38-1.585 3.21-2.936 5.189-3.621a.685.685 0 0 1 .131-.038c.178.038.357.085.535.14 1.304.404 2.42 1.193 3.312 2.206 1.52 1.726 2.392 4.128 2.524 6.464.187 3.697-1.117 7.309-2.43 10.78z" opacity="0" data-original="#f7ca49" class=""/><path fill="#00d4fc" d="M82.097 71.36c-.178 1.596-.357 3.2-.572 4.786-.226 1.595-.526 3.236-1.492 4.522-.535.713-1.286 1.257-2.111 1.585-1.182-.525-2.177-1.454-3.406-1.857-1.07-.347-2.28-.225-3.284.29-.272.141-.525.3-.76.498-.356.3-.675.666-1.079.9-.412.235-.957.31-1.332.02-.169-.141-.272-.338-.366-.535-.15-.3-.272-.61-.366-.92-1.06-3.162.02-6.746.376-10.133.356-3.359-.216-5.047-2.646-7.055-.16-.131-.329-.263-.507-.403l3.763.337 3.658.329c1.258-1.36 3.19-2.88 5.16-3.594 2.374.92 4.27 3.021 4.908 5.489.478 1.867.272 3.828.056 5.742z" opacity="0" data-original="#00d4fc" class=""/><path fill="#ffffff" d="M86.075 71.36c-.178 1.596-.357 3.2-.572 4.786-.225 1.595-.526 3.236-1.492 4.522-1.332 1.773-3.912 2.486-5.967 1.642-.038-.019-.085-.038-.122-.057.825-.328 1.576-.872 2.11-1.585.967-1.286 1.267-2.927 1.493-4.522.215-1.586.394-3.19.572-4.785.216-1.914.422-3.875-.056-5.742-.638-2.468-2.534-4.57-4.907-5.489 1.06-.384 2.13-.525 3.105-.281 2.768.704 5.076 3.002 5.78 5.77.478 1.867.272 3.828.056 5.742z" opacity="0" data-original="#ffffff" class=""/><path d="M41.317 60.163c.298-1.188.433-1.869.624-2.478.088-.292.209-.692.147-1.172-.16-1.119-1.213-1.672-1.668-1.91l-.179-.094c4.191-7.499 15.372-35.016 19.23-46.745.863-2.623-.873-5.368-3.61-5.725a4.444 4.444 0 0 0-4.768 2.923c-3.263 9.28-13.012 39.073-16.098 47.791-.928.18-1.811.74-2.449 1.596-.617.819-.94 1.744-1.177 2.548-.07.242-.13.488-.194.731-1.873.758-3.67 2.057-5.108 3.715-2.585 2.99-4.034 6.703-5.853 9.998a41.42 41.42 0 0 1-6.958 9.258c-1.52 1.524-2.948 2.77-4.367 3.81-1.78 1.307-2.091 2.952-2.422 4.694-.044.232-.089.469-.142.73-.044.232-.133.716.14 1.148.29.501.812.725 1.535.714l3.819-.114c.606-.019 1.36-.041 2.109-.175.705-.125 1.451-.432 2.241-.757 1.013-.415 2.147-.87 2.893-.78.114.47.517.765.965.765.06 0 .12-.01.178-.021.649.703 1.367 1.845 1.972 3.193l.053.116c.205.45.46 1.013 1.007 1.439 1.257.938 2.695.276 3.745-.205.168-.077.333-.153.5-.224 1.393-.596 3.091-.416 4.322.464 2.156 1.54 4.448 2.317 6.831 2.317.429 0 .86-.025 1.294-.076a1.002 1.002 0 0 0 .824-1.336c-1.014-2.78-1.862-5.296-1.951-7.912-.117-3.507 1.193-7.008 2.458-10.392 1.199-3.188 2.69-7.156 2.485-11.19-.13-2.464-1.014-4.849-2.428-6.644zM52.962 5.677c.09.123.2.231.344.304l1.566.79a1.001 1.001 0 0 0 .9-1.787l-1.5-.756a2.404 2.404 0 0 1 3.055.895c.379.602.468 1.337.244 2.016-3.847 11.694-14.993 39.138-19.104 46.447-.463-.243-.9-.473-1.416-.654.773-2.2 1.877-5.448 3.172-9.302.344.287.763.459 1.2.482a1.004 1.004 0 0 0 1.055-.946.997.997 0 0 0-.942-1.051c-.04-.01-.103-.09-.107-.134a.986.986 0 0 0-.34-.931c.18-.542.365-1.094.552-1.651a3.4 3.4 0 0 0 .887.558 1 1 0 0 0 .783-1.84 1.432 1.432 0 0 1-.625-.52.978.978 0 0 0-.34-.307l.443-1.33c.226.12.465.217.72.267a1 1 0 0 0 .382-1.963c-.175-.034-.331-.166-.43-.321.28-.836.56-1.677.843-2.528.419.325.932.529 1.465.538h.017a1 1 0 0 0 .016-2 .484.484 0 0 1-.374-.202.967.967 0 0 0-.454-.348l.506-1.52c.295.14.653.256 1.113.325a1 1 0 0 0 .294-1.979c-.32-.048-.51-.124-.6-.173a.968.968 0 0 0-.102-.286l.62-1.863c.163.158.339.303.528.428a1 1 0 0 0 1.102-1.67 1.646 1.646 0 0 1-.68-.954c-.025-.1-.077-.183-.128-.266l.433-1.296.622.496a1 1 0 0 0 1.248-1.562l-1.195-.954.43-1.28.53.33a1 1 0 1 0 1.06-1.695l-.936-.585.484-1.44.519.172a1 1 0 0 0 .631-1.899l-.51-.169.594-1.751.497.229a1 1 0 0 0 .838-1.817l-.684-.315c.285-.83.546-1.583.774-2.232zM34.146 55.55c.372-.5.858-.816 1.333-.869h.005c.81-.096 1.68.497 4.012 1.697.499.261.597.388.61.401.003.055-.047.22-.09.362-.112.358-.228.832-.355 1.366-.058-.044-.123-.073-.182-.116-1.778-1.281-3.562-1.618-5.468-1.444-.192.018-.382.015-.576.045.167-.496.387-1.012.711-1.442zm5.242 21.746c-1.335 3.567-2.715 7.256-2.586 11.162.086 2.485.752 4.799 1.615 7.256-1.893-.042-3.687-.684-5.45-1.944a6.404 6.404 0 0 0-2.884-1.113c.133-1.044.487-2.113.905-3.272a199.197 199.197 0 0 1 4.916-12.317 1 1 0 0 0-1.832-.803 201.182 201.182 0 0 0-4.965 12.442c-.497 1.376-.905 2.653-1.03 3.986a6.199 6.199 0 0 0-1.378.4c-.179.076-.364.16-.551.246-.661.302-1.41.643-1.699.433-.144-.112-.269-.391-.45-.792-.494-1.1-1.354-2.732-2.46-3.855a60.762 60.762 0 0 0 6.22-13.086 1 1 0 0 0-1.896-.637 58.723 58.723 0 0 1-5.984 12.607c-.024-.008-.046-.024-.07-.03-1.411-.407-2.998.246-4.4.822-.688.282-1.337.55-1.832.637-.56.1-1.131.123-1.817.144l-3.367.101.039-.206c.299-1.574.496-2.614 1.64-3.454a33.9 33.9 0 0 0 1.792-1.422.973.973 0 0 0 .22.54l1.266 1.449a1 1 0 1 0 1.506-1.317l-1.264-1.447a.976.976 0 0 0-.513-.294 48.29 48.29 0 0 0 1.593-1.52c.055-.054.103-.114.157-.169.426.42.814.876 1.137 1.38a1 1 0 0 0 1.683-1.08 10.088 10.088 0 0 0-1.46-1.763c.326-.361.647-.724.96-1.095.102.347.205.694.329 1.033a1 1 0 0 0 1.879-.685 15.165 15.165 0 0 1-.636-2.304c.426-.568.821-1.156 1.217-1.743.18.688.444 1.352.788 1.973a1 1 0 0 0 1.75-.968 6.468 6.468 0 0 1-.567-1.382 1 1 0 0 0 .06-.908.992.992 0 0 0-.843-.589c.663-1.102.725-1.083 2.348-4.31 1.236-2.458 2.403-4.78 4.104-6.748a12.345 12.345 0 0 1 1.592-1.507.982.982 0 0 0 .41.519l2.086 1.256a1 1 0 1 0 1.031-1.713l-1.925-1.16a9.955 9.955 0 0 1 1.567-.729c2.653-.918 5.223-.435 7.137 1.741 1.326 1.501 2.154 3.635 2.272 5.85.17 3.35-.919 6.55-2.36 10.385z" fill="#000000" opacity="1" data-original="#000000" class=""/><path d="M92.892 53.23c-.19-1.073-.426-2.216-.87-3.304-1.195-2.936-3.91-5.446-7.452-6.886-2.834-1.153-6.16-1.664-10.19-1.592-6.251.128-11.995 1.646-16.608 4.392-3.827 2.278-6.827 5.385-8.678 8.986-2.177 4.24-2.126 9.234-1.897 12.623.014.208.012.462.01.737-.005 1.165-.011 2.615.84 3.47.74.746 1.855 1.18 2.934 1.217.123 1.905.238 3.814.386 5.702.228 2.887.497 5.873.82 9.13.206 2.079.489 4.926 3.078 6.783.853.614 1.822.943 2.74 1.228 3.639 1.13 7.9 2.285 11.913 2.285 3.645 0 7.551-.297 11.94-.909 4.148-.572 6.145-4.455 6.631-7.897.9-6.334 1.17-12.67 1.431-18.8.003-.07.01-.151.014-.224 1.068-.038 2.127-.61 2.734-1.423.824-1.102.95-2.443 1.002-3.614a54.406 54.406 0 0 0-.778-11.905zm-4.797 9.02c-.264.129-.533.244-.807.35-.069.027-.135.058-.205.084a12.83 12.83 0 0 1-1.052.331l-.037.01a9.222 9.222 0 0 0-2.163-2.465c1.527.382 3.011.894 4.385 1.627-.04.02-.08.044-.12.063zm-3.044 3.618c.438 1.713.231 3.58.03 5.406-.173 1.557-.351 3.167-.572 4.735-.205 1.455-.474 2.966-1.294 4.06-1.058 1.407-3.162 1.984-4.79 1.314-.483-.198-.949-.498-1.442-.814-.66-.424-1.342-.862-2.159-1.127-1.683-.545-3.644-.162-4.996.977-.365.306-.659.642-.935.8-.11.065-.22.08-.192.11a.952.952 0 0 1-.111-.195c-.435-.891-.637-1.842-.699-2.835.312.166.642.159.926.014l2.103-1.072a1 1 0 1 0-.908-1.781l-2.1 1.07c.026-.38.062-.766.11-1.156a.99.99 0 0 0 .422.105c.117 0 .237-.02.353-.064a8.521 8.521 0 0 1 1.527-.421 1 1 0 0 0 .812-1.158.992.992 0 0 0-1.158-.81c-.57.1-1.133.256-1.683.451.045-.285.124-.813.138-.902a.989.989 0 0 0 .309-.095 3.99 3.99 0 0 1 1.37-.42 1 1 0 1 0-.23-1.987 5.94 5.94 0 0 0-1.165.265c.026-.276.043-.542.055-.8.021-.005.042-.003.064-.01l.698-.232a1 1 0 1 0-.628-1.899l-.23.076c-.089-.585-.223-1.137-.44-1.646 3.499-.038 6.998-.076 10.494-.109 1.883-.022 4.019-.06 6.13-.418.068.188.141.374.19.568zm-5.061-5.052c1.532.39 2.908 1.355 3.869 2.623-1.725.231-3.493.26-5.15.28-1.792.016-3.588.037-5.381.055 2.01-1.91 4.76-3.437 6.662-2.958zm-8.752 2.224a.991.991 0 0 0-.257.759l-4.072.042a13.402 13.402 0 0 0-1.743-1.58 1.002 1.002 0 1 0-1.192 1.609c-4.3.03-8.701-.167-11.436-2.862a2.41 2.41 0 0 1-.353-.434.343.343 0 0 1-.044-.107c-.015-.06-.018-.072.035-.134.255-.308 1.808-1.48 10.522-1.48 4.434 0 9.053.288 13.42.623-2.006.896-3.816 2.419-4.88 3.564zm15.27 25.875c-.384 2.72-1.879 5.777-4.924 6.197-2.746.382-5.279.625-7.688.76a7.698 7.698 0 0 0 2.18-1.622 1 1 0 1 0-1.465-1.362 5.686 5.686 0 0 1-1.818 1.305 1 1 0 0 0-.132 1.751c-.84.034-1.66.048-2.47.051l1.958-1.45a1 1 0 1 0-1.19-1.608l-2.321 1.719a.989.989 0 0 0-.263 1.283c-.414-.03-.83-.07-1.248-.122a9.255 9.255 0 0 0 1.311-1.065 1 1 0 1 0-1.4-1.428 7.283 7.283 0 0 1-2.027 1.401.985.985 0 0 0-.531.647 45.494 45.494 0 0 1-1.847-.42l1.025-.583a1 1 0 0 0-.989-1.738l-2.176 1.238a.973.973 0 0 0-.367.398c-.52-.153-1.031-.307-1.53-.462-.07-.021-.137-.044-.207-.066.78-.481 1.574-.947 2.376-1.38a1 1 0 0 0-.95-1.76 48.876 48.876 0 0 0-2.945 1.724.984.984 0 0 0-.41.558c-.01-.006-.02-.01-.028-.017a4.656 4.656 0 0 1-.62-.536l2.632-1.443a1 1 0 1 0-.96-1.753l-2.72 1.49a7.27 7.27 0 0 1-.245-.832c.078.02.163.034.258.034.121 0 .255-.02.401-.068l1.778-.595a1 1 0 1 0-.634-1.897l-1.397.467a1.005 1.005 0 0 0-.358-.003.99.99 0 0 0-.35.148c-.012-.123-.027-.243-.04-.368l-.02-.209a10.021 10.021 0 0 0 2.473-.658 1 1 0 0 0-.767-1.847c-.611.254-1.25.415-1.9.512l-.089-.961c.036-.004.072-.004.108-.011l2.323-.49a1 1 0 0 0-.412-1.958l-2.2.465-.055-.621c.61-.16 1.218-.347 1.81-.576a1 1 0 1 0-.72-1.865c-.413.16-.836.294-1.261.416l-.08-.966a11.516 11.516 0 0 0 1.75-.084 1 1 0 0 0 .868-1.117 1.012 1.012 0 0 0-1.118-.867c-.49.062-.987.087-1.473.07-.059-.005-.11.017-.167.023-.01-.126-.017-.253-.026-.379a7.883 7.883 0 0 0 2.275-.25 1 1 0 0 0 .714-1.221 1.004 1.004 0 0 0-1.221-.714 5.619 5.619 0 0 1-1.792.184c-.04-.001-.074.016-.113.019-.018-.265-.038-.529-.055-.794.014 0 .027.007.042.007a.995.995 0 0 0 .28-.04 11.106 11.106 0 0 1 1.71-.356 1 1 0 0 0 .866-1.118 1.012 1.012 0 0 0-1.118-.866c-.646.083-1.29.217-1.917.395-.031-.504-.06-1.007-.089-1.511.012 0 .023.006.035.006.06 0 .12-.005.18-.016a8.715 8.715 0 0 1 1.748-.146 1 1 0 1 0 .027-2c-.698-.02-1.4.05-2.09.171l-.025-.497h1.558a1 1 0 0 0 1-1c0-1.446-1.967-.887-2.63-1-.01 0-.02.006-.03.006-.032-.704-.077-1.408-.107-2.112.027.018.056.03.082.048 3.766 2.534 8.9 2.316 13.421 2.27.8 1.179.958 2.48.737 4.558-.088.829-.22 1.67-.352 2.515-.477 3.048-.97 6.2.436 9.09.139.283.324.608.647.868.654.524 1.616.552 2.45.073.376-.216.667-.49.925-.732.099-.093.197-.187.301-.274a3.318 3.318 0 0 1 3.091-.604c.571.185 1.117.536 1.695.908.546.35 1.111.714 1.761.981 2.488 1.022 5.554.16 7.15-1.964 1.107-1.472 1.435-3.268 1.676-4.98.225-1.599.405-3.224.582-4.816.209-1.891.446-4.035-.083-6.101-.045-.175-.114-.34-.17-.511.041-.012.083-.02.123-.032.857-.247 1.47-.522 1.571-.562-.139 1.341-.31 2.694-.443 4.06-.015.02-.037.031-.05.053a.984.984 0 0 0-.039.969 28.81 28.81 0 0 0-.058.962c-.26 6.08-.528 12.366-1.413 18.604zm5.164-23.87c-.04.913-.121 1.858-.606 2.505-.213.287-.595.517-.969.598.208-2.038.477-3.988.578-5.718a.757.757 0 0 0 .002-.057l-.001-.002.002-.012.007-.152v-.002l.002-.02c.002-.025.007-.134.007-.159a.964.964 0 0 0-.346-.721 2.507 2.507 0 0 0-.743-.636c-4.443-2.545-9.678-2.915-14.693-3.29-21.545-1.599-23.598.864-24.273 1.672a2.11 2.11 0 0 0-.429 1.936c.05.179.113.33.18.464.113 3.127.269 6.266.454 9.4-.495-.059-1.026-.248-1.379-.604-.265-.267-.26-1.473-.258-2.053.002-.328.002-.63-.015-.88-.212-3.15-.268-7.777 1.682-11.574 1.654-3.22 4.467-6.125 7.921-8.182 4.317-2.569 9.72-3.99 15.626-4.11 3.748-.095 6.818.395 9.396 1.445 3.045 1.238 5.36 3.347 6.353 5.787.352.865.555 1.785.753 2.899.669 3.781.921 7.638.75 11.466zM28.798 62.996a1 1 0 1 0-1.207 1.594l1.643 1.245a1 1 0 1 0 1.208-1.594zM27.427 65.261a1.001 1.001 0 0 0-1.192 1.606l1.815 1.348a1 1 0 1 0 1.192-1.606zM26.242 68.365a1 1 0 1 0-1.502 1.32 8.8 8.8 0 0 0 1.327 1.227 1 1 0 0 0 1.199-1.602 6.739 6.739 0 0 1-1.024-.945zM24.185 71.611a1 1 0 1 0-1.74.984l.917 1.62a1 1 0 1 0 1.74-.984z" fill="#000000" opacity="1" data-original="#000000" class=""/></g></svg>