<svg fill="none" height="32" viewBox="0 0 32 32" width="32" xmlns="http://www.w3.org/2000/svg"><path d="m10 5c-.9889 0-1.9556.29325-2.77785.84265-.82224.54941-1.46311 1.3303-1.84155 2.24394-.37843.91363-.47745 1.91891-.28452 2.88891.19292.9699.66913 1.8608 1.36839 2.56.69926.6993 1.59018 1.1755 2.56008 1.3684.96991.193 1.97525.0939 2.88885-.2845s1.6945-1.0193 2.2439-1.8415c.5495-.8223.8427-1.789.8427-2.7779 0-1.32608-.5268-2.59785-1.4645-3.53553-.9376-.93768-2.2094-1.46447-3.5355-1.46447zm0 8c-.59334 0-1.17336-.1759-1.66671-.5056-.49335-.3296-.87786-.7982-1.10493-1.3463-.22706-.5482-.28647-1.15143-.17071-1.73337.11575-.58194.40147-1.11649.82103-1.53605s.95411-.70528 1.53605-.82103c.58194-.11576 1.18517-.05635 1.73337.17071.5481.22707 1.0167.61158 1.3463 1.10493.3297.49335.5056 1.07337.5056 1.66671 0 .7957-.3161 1.5587-.8787 2.1213s-1.3256.8787-2.1213.8787zm12 2c.9889 0 1.9556-.2932 2.7779-.8427.8222-.5494 1.4631-1.3303 1.8415-2.2439s.4775-1.91894.2845-2.88885c-.1929-.9699-.6691-1.86082-1.3684-2.56008-.6992-.69926-1.5901-1.17547-2.56-1.36839-.97-.19293-1.9753-.09391-2.8889.28452-.9136.37844-1.6945 1.01931-2.2439 1.84155-.5495.82225-.8427 1.78895-.8427 2.77785 0 1.3261.5268 2.5979 1.4645 3.5355.9377.9377 2.2094 1.4645 3.5355 1.4645zm0-8c.5933 0 1.1734.17595 1.6667.50559.4934.32965.8779.79818 1.1049 1.34636.2271.54818.2865 1.15135.1708 1.73335-.1158.5819-.4015 1.1165-.8211 1.536-.4195.4196-.9541.7053-1.536.8211-.582.1157-1.1852.0563-1.7333-.1708-.5482-.227-1.0168-.6115-1.3464-1.1049-.3297-.4933-.5056-1.0734-.5056-1.6667 0-.79565.3161-1.55871.8787-2.12132s1.3257-.87868 2.1213-.87868zm-12 10c-.9889 0-1.9556.2932-2.77785.8427-.82224.5494-1.46311 1.3303-1.84155 2.2439-.37843.9136-.47745 1.9189-.28452 2.8889.19292.9699.66913 1.8608 1.36839 2.56.69926.6993 1.59018 1.1755 2.56008 1.3684.96991.193 1.97525.0939 2.88885-.2845s1.6945-1.0193 2.2439-1.8415c.5495-.8223.8427-1.789.8427-2.7779 0-1.3261-.5268-2.5978-1.4645-3.5355-.9376-.9377-2.2094-1.4645-3.5355-1.4645zm0 8c-.59334 0-1.17336-.1759-1.66671-.5056-.49335-.3296-.87786-.7982-1.10493-1.3463-.22706-.5482-.28647-1.1514-.17071-1.7334.11575-.5819.40147-1.1165.82103-1.536.41956-.4196.95411-.7053 1.53605-.8211.58194-.1157 1.18517-.0563 1.73337.1708.5481.227 1.0167.6115 1.3463 1.1049.3297.4933.5056 1.0734.5056 1.6667 0 .7957-.3161 1.5587-.8787 2.1213s-1.3256.8787-2.1213.8787zm17-3c0 .2652-.1054.5196-.2929.7071s-.4419.2929-.7071.2929h-3v3c0 .2652-.1054.5196-.2929.7071s-.4419.2929-.7071.2929-.5196-.1054-.7071-.2929-.2929-.4419-.2929-.7071v-3h-3c-.2652 0-.5196-.1054-.7071-.2929s-.2929-.4419-.2929-.7071.1054-.5196.2929-.7071.4419-.2929.7071-.2929h3v-3c0-.2652.1054-.5196.2929-.7071s.4419-.2929.7071-.2929.5196.1054.7071.2929.2929.4419.2929.7071v3h3c.2652 0 .5196.1054.7071.2929s.2929.4419.2929.7071z" fill="rgb(0,0,0)"/></svg>