<?xml version="1.0" encoding="UTF-8"?>
<svg style="enable-background:new 0 0 512 512;" height="512" id="Layer_1" version="1.1"
    viewBox="0 0 512 512" width="512" x="0px" xmlns="http://www.w3.org/2000/svg" y="0px"
    xml:space="preserve">
<path
    style="fill:none;stroke:#000000;stroke-width:25;stroke-linecap:round;stroke-linejoin:round;stroke-miterlimit:10;"
    d="&#10;&#9;M492,276v36c0,55.228-44.772,100-100,100H119.979C64.762,412,20,367.238,20,312.021V148C20,92.772,64.772,48,120,48h25 M352,492H160&#10;&#9; M491.998,54.001c0-14.864-16.299-23.971-28.958-16.181L409,78c-5.964-32.609-34.503-58-68.835-58H289&#10;&#9;c-38.659,0-69.999,31.339-70,69.999L218.999,140c-0.001,38.66,31.34,70.001,70,70.001h51.166c34.332,0,62.87-24.391,68.835-57&#10;&#9;l54.042,39.18c12.659,7.79,28.958-1.318,28.958-16.182L491.998,54.001z" />
</svg>
