<?xml version="1.0" encoding="UTF-8" standalone="no"?><!-- Created with Inkscape (http://www.inkscape.org/) -->
<svg height="512" viewBox="85 85 512 512" width="512">
    <defs id="defs4771">
        <clipPath clipPathUnits="userSpaceOnUse" id="clipPath4781">
            <path d="M 0,512 H 512 V 0 H 0 Z" id="path4779" />
        </clipPath>
    </defs>
    <g id="g4773" transform="matrix(1.3333333,0,0,-1.3333333,0,682.66667)">
        <g id="g4775">
            <g clip-path="url(#clipPath4781)" id="g4777">
                <g id="g4799" transform="translate(135.5132,355.9912)">
                    <path
                        style="fill:none;stroke:#000000;stroke-width:15;stroke-linecap:round;stroke-linejoin:round;stroke-miterlimit:10;stroke-dasharray:none;stroke-opacity:1"
                        d="m 0,0 c 32.447,-23.294 74.514,-37.361 120.487,-37.361 45.972,0 88.039,14.067 120.487,37.361"
                        id="path4801" />
                </g>
                <g id="g4803" transform="translate(376.4873,156.0088)">
                    <path
                        style="fill:none;stroke:#000000;stroke-width:15;stroke-linecap:round;stroke-linejoin:round;stroke-miterlimit:10;stroke-dasharray:none;stroke-opacity:1"
                        d="M 0,0 C -32.447,23.294 -74.515,37.361 -120.487,37.361 -166.46,37.361 -208.527,23.294 -240.974,0"
                        id="path4805" />
                </g>
                <g id="g4807" transform="translate(336.8135,256)">
                    <path
                        style="fill:none;stroke:#000000;stroke-width:15;stroke-linecap:round;stroke-linejoin:round;stroke-miterlimit:10;stroke-dasharray:none;stroke-opacity:1"
                        d="m 0,0 c 0,-86.474 -36.182,-156.575 -80.813,-156.575 -44.632,0 -80.813,70.101 -80.813,156.575 0,86.474 36.181,156.575 80.813,156.575 C -36.182,156.575 0,86.474 0,0 Z"
                        id="path4809" />
                </g>
                <g id="g4811" transform="translate(123.2109,339.002)">
                    <path
                        style="fill:none;stroke:#000000;stroke-width:15;stroke-linecap:round;stroke-linejoin:round;stroke-miterlimit:10;stroke-dasharray:none;stroke-opacity:1"
                        d="m 0,0 c 27.679,44.188 76.802,73.573 132.789,73.573 86.474,0 156.575,-70.101 156.575,-156.575 0,-9.21 -0.795,-18.234 -2.32,-27.009"
                        id="path4813" />
                </g>
                <g id="g4815" transform="translate(400.2949,195.1123)">
                    <path
                        style="fill:none;stroke:#000000;stroke-width:15;stroke-linecap:round;stroke-linejoin:round;stroke-miterlimit:10;stroke-dasharray:none;stroke-opacity:1"
                        d="m 0,0 c -23.755,-56.229 -79.417,-95.688 -144.295,-95.688 -86.474,0 -156.575,70.102 -156.575,156.576 0,18.005 3.039,35.3 8.632,51.401"
                        id="path4817" />
                </g>
                <g id="g4819" transform="translate(99.4248,256)">
                    <path
                        style="fill:none;stroke:#000000;stroke-width:15;stroke-linecap:round;stroke-linejoin:round;stroke-miterlimit:10;stroke-dasharray:none;stroke-opacity:1"
                        d="M 0,0 H 313.15" id="path4821" />
                </g>
                <g id="g4823" transform="translate(256,412.5752)">
                    <path
                        style="fill:none;stroke:#000000;stroke-width:15;stroke-linecap:round;stroke-linejoin:round;stroke-miterlimit:10;stroke-dasharray:none;stroke-opacity:1"
                        d="M 0,0 V -313.15" id="path4825" />
                </g>
            </g>
        </g>
    </g>
</svg>