<?xml version="1.0" encoding="UTF-8" standalone="no"?>
<!-- Created with Inkscape (http://www.inkscape.org/) -->

<svg
   version="1.1"
   id="svg1368"
   xml:space="preserve"
   width="682.66669"
   height="682.66669"
   viewBox="0 0 682.66669 682.66669"
   xmlns="http://www.w3.org/2000/svg"
   xmlns:svg="http://www.w3.org/2000/svg"><defs
     id="defs1372"><clipPath
       clipPathUnits="userSpaceOnUse"
       id="clipPath1382"><path
         d="M 0,512 H 512 V 0 H 0 Z"
         id="path1380" /></clipPath></defs><g
     id="g1374"
     transform="matrix(1.3333333,0,0,-1.3333333,0,682.66667)"><g
       id="g1376"><g
         id="g1378"
         clip-path="url(#clipPath1382)"><g
           id="g1384"
           transform="translate(145.6934,259.6377)"><path
             d="m 0,0 h 343.112 c 1.275,2.644 1.99,5.608 1.99,8.74 0,11.125 -9.019,20.143 -20.144,20.143 -0.053,0 -0.105,-0.003 -0.158,-0.004 0.1,0.814 0.158,1.641 0.158,2.481 0,11.125 -9.019,20.144 -20.144,20.144 -0.052,0 -0.104,-0.004 -0.156,-0.004 -1.22,9.958 -9.7,17.671 -19.988,17.671 -3.562,0 -6.906,-0.929 -9.809,-2.551 -1.319,9.849 -9.749,17.447 -19.959,17.447 -1.465,0 -2.893,-0.16 -4.27,-0.458 0.004,0.153 0.012,0.305 0.012,0.458 0,11.125 -9.019,20.144 -20.144,20.144 -5.704,0 -10.85,-2.375 -14.515,-6.185 -2.849,7.664 -10.229,13.126 -18.885,13.126 -4.268,0 -8.223,-1.331 -11.48,-3.594 -1.401,9.755 -9.79,17.255 -19.934,17.255 -9.149,0 -16.868,-6.102 -19.324,-14.456 -3.682,4.798 -9.471,7.894 -15.987,7.894 -5.145,0 -9.837,-1.932 -13.397,-5.106 -3.561,3.174 -8.253,5.106 -13.398,5.106 -7.907,0 -14.747,-4.558 -18.043,-11.188 -3.381,2.565 -7.594,4.089 -12.164,4.089 -10.077,0 -18.425,-7.4 -19.909,-17.061 -2.279,0.894 -4.758,1.391 -7.356,1.391 -10.378,0 -18.92,-7.849 -20.02,-17.935 -1.321,0.273 -2.69,0.417 -4.092,0.417 -11.125,0 -20.144,-9.019 -20.144,-20.144 0,-0.762 0.046,-1.513 0.129,-2.254 -3.46,2.802 -7.865,4.483 -12.665,4.483 -8.867,0 -16.39,-5.732 -19.081,-13.69 -2.95,1.694 -6.367,2.668 -10.014,2.668 -11.125,0 -20.143,-9.019 -20.143,-20.144 0,-1.069 0.085,-2.118 0.245,-3.142 -1.103,0.187 -2.236,0.29 -3.393,0.29 -11.125,0 -20.144,-9.019 -20.144,-20.144 0,-2.05 0.313,-4.024 0.881,-5.887 L -30,0"
             style="fill:none;stroke:#000000;stroke-width:15;stroke-linecap:round;stroke-linejoin:round;stroke-miterlimit:10;stroke-dasharray:none;stroke-opacity:1"
             id="path1386" /></g><g
           id="g1388"
           transform="translate(180.9609,351.9429)"><path
             d="m 0,0 c 3.131,2.006 6.847,3.177 10.841,3.177 2.597,0 5.076,-0.497 7.356,-1.391 0.4,2.608 1.315,5.042 2.615,7.219 l -84.08,136.174 c -4.428,7.172 -13.894,9.291 -20.957,4.69 -7.063,-4.6 -8.952,-14.115 -4.182,-21.065 z"
             style="fill:none;stroke:#000000;stroke-width:15;stroke-linecap:round;stroke-linejoin:round;stroke-miterlimit:10;stroke-dasharray:none;stroke-opacity:1"
             id="path1390" /></g><g
           id="g1392"
           transform="translate(135.0098,319.6865)"><path
             d="M 0,0 C 4.607,0 8.842,-1.561 12.236,-4.165 L -96.741,118.604 c -5.595,6.304 -15.284,6.763 -21.451,1.017 -6.167,-5.747 -6.392,-15.445 -0.498,-21.471 L -15.521,-7.328 C -11.828,-2.857 -6.252,0 0,0 Z"
             style="fill:none;stroke:#000000;stroke-width:15;stroke-linecap:round;stroke-linejoin:round;stroke-miterlimit:10;stroke-dasharray:none;stroke-opacity:1"
             id="path1394" /></g><g
           id="g1396"
           transform="translate(251.1865,55.9736)"><path
             d="m 0,0 h 117.931 v -33.22 c 0,-8.284 -6.716,-15 -15,-15 H -53.16 c -8.285,0 -15,6.716 -15,15 l 0,33.22 H -30"
             style="fill:none;stroke:#000000;stroke-width:15;stroke-linecap:round;stroke-linejoin:round;stroke-miterlimit:10;stroke-dasharray:none;stroke-opacity:1"
             id="path1398" /></g><g
           id="g1400"
           transform="translate(115.6934,259.6372)"><path
             d="m 0,0 h -63.508 c 0,-90.448 53.64,-168.361 130.841,-203.685 v 0.021 h 38.161"
             style="fill:none;stroke:#000000;stroke-width:15;stroke-linecap:round;stroke-linejoin:round;stroke-miterlimit:10;stroke-dasharray:none;stroke-opacity:1"
             id="path1402" /></g><g
           id="g1404"
           transform="translate(251.187,55.9736)"><path
             d="m 0,0 h 117.931 v -0.021 c 77.2,35.324 130.84,113.236 130.84,203.685 h -354.265"
             style="fill:none;stroke:#000000;stroke-width:15;stroke-linecap:round;stroke-linejoin:round;stroke-miterlimit:10;stroke-dasharray:none;stroke-opacity:1"
             id="path1406" /></g><g
           id="g1408"
           transform="translate(115.6934,259.6372)"><path
             d="m 0,0 h -63.508 c 0,-21.35 2.992,-42 8.574,-61.559 h 340.391"
             style="fill:none;stroke:#000000;stroke-width:15;stroke-linecap:round;stroke-linejoin:round;stroke-miterlimit:10;stroke-dasharray:none;stroke-opacity:1"
             id="path1410" /></g><g
           id="g1412"
           transform="translate(431.1499,198.0786)"><path
             d="m 0,0 h 60.234 c 5.582,19.558 8.574,40.208 8.574,61.559 h -354.265"
             style="fill:none;stroke:#000000;stroke-width:15;stroke-linecap:round;stroke-linejoin:round;stroke-miterlimit:10;stroke-dasharray:none;stroke-opacity:1"
             id="path1414" /></g></g></g></g></svg>
