<svg id="Capa_1" enable-background="new 0 0 511.961 511.961" height="512" viewBox="0 0 511.961 511.961" width="512" xmlns="http://www.w3.org/2000/svg"><g><path d="m443.468 496.961h-57.835v-76.733c0-4.142-3.358-7.5-7.5-7.5s-7.5 3.358-7.5 7.5v76.733h-54.356c-.406-53.428 7.189-95.86-37.758-135.21.001 0-15.207-12.922-15.207-12.922-4.58-3.89-11.173-3.827-15.679.151l-14.651 12.937c-43.735 39.562-35.702 82.341-36.242 135.044h-55.36v-192.27c0-2.592 2.109-4.701 4.701-4.701h219.851c2.592 0 4.701 2.109 4.701 4.701v85.69c.336 9.891 14.627 9.973 15 0v-85.69c0-10.863-8.838-19.701-19.701-19.701h-11.69l-53.042-131.512v-6.698c0-11.94-5.131-23.316-14.08-31.214l-24.116-21.253v-31.135c24.877-14.227 53.288-21.771 81.962-21.753 3.141-.001 5.948-1.96 7.034-4.907s.22-6.259-2.169-8.298c-25.976-22.361-61.763-32.355-95.546-26.64-3.832.615-6.516 4.096-6.28 7.948.071 20.922-.052 65.02 0 85.67l-23.114 20.371c-8.946 7.895-14.077 19.271-14.077 31.211v6.697l-17.683 43.843c-1.549 3.841.309 8.211 4.15 9.761 3.842 1.549 8.211-.308 9.761-4.15l16.333-40.498h65.262l49.234 122.072h-163.73l22.049-54.67c1.549-3.841-.309-8.211-4.15-9.761-3.842-1.548-8.211.309-9.761 4.15l-24.509 60.768h-11.69c-10.863 0-19.701 8.838-19.701 19.701v192.27h-57.834c-4.142 0-7.5 3.358-7.5 7.5s3.358 7.5 7.5 7.5h374.923c9.778-.296 10.081-14.585 0-15.002zm-231.727-54.094c0-26.807 11.361-52.213 31.171-69.706l12.687-11.203 13.209 11.224c40.692 35.316 31.515 75.986 32.47 123.616h-89.536v-53.931zm87.989-424.429c8.054 2.138 15.872 5.294 23.208 9.339-20.838 2.552-41.22 8.794-59.934 18.348v-30.578c12.28-1.24 24.856-.26 36.726 2.891zm-64.918 108.381 21.195-18.68 21.192 18.676c5.893 5.187 9.175 12.763 9.001 20.616h-60.387c-.173-7.851 3.109-15.428 8.999-20.612z"/></g></svg>