<svg width="181" height="173" viewBox="0 0 181 173" fill="none" xmlns="http://www.w3.org/2000/svg">
<path d="M125.694 6.875L90.5 2.5V28.75L125.694 24.375L111.617 15.625L125.694 6.875Z" fill="#FF8044"/>
<path d="M87.986 7.5C87.986 -2.5 93.0138 -2.5 93.0138 7.5C93.0138 32.5 98.0416 52.5 98.0416 52.5H82.9583C82.9583 52.5 87.986 32.5 87.986 7.5Z" fill="#662113"/>
<path d="M140.778 137.5V127.5L120.667 117.81V97.5L110.611 87.5H109.993C109.993 87.5 113.673 67.665 103.069 60.255V52.5L98.0416 47.5H82.9583L77.9305 52.5V60.255C67.3269 67.665 71.0073 87.5 71.0073 87.5H70.3889L60.3333 97.5V117.81L40.2222 127.5V137.5L20.1111 147.5V167.5L160.889 167.685V147.5L140.778 137.5Z" fill="#C7521E"/>
<path d="M99.7814 87.5H81.2188C81.2188 87.5 78.1267 62.5 84.3109 62.5H96.6893C102.878 62.5 99.7814 87.5 99.7814 87.5Z" fill="#662113"/>
<path d="M59.2474 109.885V107.28L57.7792 105.82H57.4625C56.7091 101.97 56.3236 98.0572 56.3111 94.1348C56.3111 91.2148 54.843 91.2148 54.843 94.1348C54.843 99.2498 54.124 103.645 53.6917 105.82H53.3749L51.9068 107.28V109.885C49.5689 112.255 50.4337 117.5 50.4337 117.5H60.7155C60.7155 117.5 61.5802 112.255 59.2474 109.885ZM129.164 109.885V107.28L127.696 105.82H127.379C126.625 101.97 126.24 98.0572 126.227 94.1348C126.227 91.2148 124.759 91.2148 124.759 94.1348C124.759 99.2498 124.04 103.645 123.608 105.82H123.291L121.823 107.28V109.885C119.485 112.255 120.355 117.5 120.355 117.5H130.637C130.632 117.5 131.497 112.255 129.164 109.885ZM149.275 129.885V127.28L147.807 125.82H147.49C146.736 121.97 146.351 118.057 146.339 114.135C146.339 111.215 144.87 111.215 144.87 114.135C144.87 119.25 144.151 123.645 143.719 125.82H143.402L141.934 127.28V129.885C139.596 132.255 140.466 137.5 140.466 137.5H150.748C150.743 137.5 151.608 132.255 149.275 129.885ZM169.386 154.885V152.28L167.918 150.82H167.601C166.848 146.97 166.462 143.057 166.45 139.135C166.45 136.215 164.982 136.215 164.982 139.135C164.982 144.25 164.263 148.645 163.83 150.82H163.513L162.045 152.28V154.885C159.707 157.255 160.577 162.5 160.577 162.5H170.859C170.854 162.5 171.719 157.255 169.386 154.885ZM39.1362 129.885V127.28L37.6681 125.82H37.3514C36.5986 121.97 36.2131 118.057 36.2 114.135C36.2 111.215 34.7319 111.215 34.7319 114.135C34.7319 119.25 34.0129 123.645 33.5805 125.82H33.2588L31.7907 127.28V129.885C29.4578 132.255 30.3225 137.5 30.3225 137.5H40.6044C40.6044 137.5 41.4691 132.255 39.1362 129.885ZM19.0251 154.885V152.28L17.557 150.82H17.2403C16.4875 146.97 16.102 143.057 16.0889 139.135C16.0889 136.215 14.6208 136.215 14.6208 139.135C14.6208 144.25 13.9018 148.645 13.4694 150.82H13.1477L11.6795 152.28V154.885C9.34666 157.255 10.2114 162.5 10.2114 162.5H20.4932C20.4932 162.5 21.358 157.255 19.0251 154.885Z" fill="#C7521E"/>
<path d="M77.9306 52.5L82.9583 47.5H98.0417L103.069 52.5H77.9306ZM60.3333 97.5L70.3889 87.5H110.611L120.667 97.5H60.3333ZM40.2222 127.5L50.2778 117.5H130.722L140.778 127.5H40.2222ZM20.1111 147.5L30.1667 137.5H150.833L160.889 147.5H20.1111ZM0 172.5L10.0556 162.5H170.944L181 172.5H0Z" fill="#FF8044"/>
<path d="M105.583 117.5H75.4167C75.4167 117.5 75.4167 97.5 82.9584 97.5H98.0417C105.583 97.5 105.583 117.5 105.583 117.5ZM110.611 137.5H70.3889C70.3889 137.5 70.3889 127.5 80.4445 127.5H100.556C110.611 127.5 110.611 137.5 110.611 137.5Z" fill="#662113"/>
<path d="M120.667 162.5H60.3333C60.3333 162.5 60.3333 147.5 75.4166 147.5H105.583C120.667 147.5 120.667 162.5 120.667 162.5Z" fill="#292F33"/>
<path d="M105.583 127.5H75.4168C74.0833 127.5 72.8045 126.973 71.8616 126.036C70.9187 125.098 70.389 123.826 70.389 122.5C70.389 121.174 70.9187 119.902 71.8616 118.964C72.8045 118.027 74.0833 117.5 75.4168 117.5H105.583C106.917 117.5 108.196 118.027 109.139 118.964C110.082 119.902 110.611 121.174 110.611 122.5C110.611 123.826 110.082 125.098 109.139 126.036C108.196 126.973 106.917 127.5 105.583 127.5ZM110.611 147.5H70.389C69.0555 147.5 67.7767 146.973 66.8338 146.036C65.8909 145.098 65.3612 143.826 65.3612 142.5C65.3612 141.174 65.8909 139.902 66.8338 138.964C67.7767 138.027 69.0555 137.5 70.389 137.5H110.611C111.945 137.5 113.224 138.027 114.166 138.964C115.109 139.902 115.639 141.174 115.639 142.5C115.639 143.826 115.109 145.098 114.166 146.036C113.224 146.973 111.945 147.5 110.611 147.5ZM120.667 172.5H60.3334C59 172.5 57.7212 171.973 56.7783 171.036C55.8354 170.098 55.3057 168.826 55.3057 167.5C55.3057 166.174 55.8354 164.902 56.7783 163.964C57.7212 163.027 59 162.5 60.3334 162.5H120.667C122 162.5 123.279 163.027 124.222 163.964C125.165 164.902 125.695 166.174 125.695 167.5C125.695 168.826 125.165 170.098 124.222 171.036C123.279 171.973 122 172.5 120.667 172.5Z" fill="#FFA06C"/>
<path d="M105.583 147.5H110.611V162.5H105.583V147.5ZM70.3889 147.5H75.4167V162.5H70.3889V147.5Z" fill="#FF8044"/>
</svg>
