<svg width="19" height="24" viewBox="0 0 19 24" fill="none" xmlns="http://www.w3.org/2000/svg">
<path d="M5 0V15.0992C4.59971 14.9235 4.17681 14.8312 3.75 14.8264C3.00832 14.8264 2.2833 15.0873 1.66661 15.576C1.04993 16.0647 0.569282 16.7594 0.285453 17.5722C0.00162482 18.3849 -0.0726377 19.2792 0.0720569 20.1421C0.216751 21.0049 0.573904 21.7974 1.09835 22.4195C1.6228 23.0415 2.29098 23.4651 3.01841 23.6368C3.74584 23.8084 4.49984 23.7203 5.18506 23.3836C5.87029 23.047 6.45596 22.4769 6.86801 21.7454C7.28007 21.014 7.5 20.154 7.5 19.2743V4.44792H16.25V10.6513C15.8497 10.4756 15.4268 10.3833 15 10.3785C14.2583 10.3785 13.5333 10.6393 12.9166 11.1281C12.2999 11.6168 11.8193 12.3115 11.5355 13.1242C11.2516 13.937 11.1774 14.8313 11.3221 15.6941C11.4668 16.5569 11.8239 17.3495 12.3484 17.9715C12.8728 18.5936 13.541 19.0172 14.2684 19.1888C14.9958 19.3605 15.7498 19.2724 16.4351 18.9357C17.1203 18.5991 17.706 18.029 18.118 17.2975C18.5301 16.5661 18.75 15.7061 18.75 14.8264V0H5Z" fill="black"/>
</svg>
