<svg width="30" height="29" viewBox="0 0 30 29" fill="none" xmlns="http://www.w3.org/2000/svg">
<path d="M25.6876 9.25483L22.6186 0.802331C22.3921 0.178331 21.7261 -0.153169 21.1351 0.0643311L0.738117 7.50883C0.147117 7.72483 -0.151383 8.40433 0.0766167 9.02833L3.31062 17.9398V13.1653C3.31062 11.0083 5.03262 9.25483 7.15062 9.25483H12.5401L18.9676 4.74283L22.6861 9.25483H25.6876ZM28.8571 11.9998H7.15062C6.99855 11.9996 6.84796 12.0298 6.7077 12.0885C6.56745 12.1473 6.44035 12.2335 6.33387 12.3421C6.2274 12.4506 6.14369 12.5794 6.08766 12.7208C6.03163 12.8621 6.00442 13.0133 6.00762 13.1653V27.2953C6.00912 27.9613 6.52212 28.4998 7.15062 28.4998H28.8571C29.4871 28.4998 30.0001 27.9613 30.0001 27.2953V13.1653C30.0033 13.0133 29.9761 12.8621 29.9201 12.7208C29.864 12.5794 29.7803 12.4506 29.6739 12.3421C29.5674 12.2335 29.4403 12.1473 29.3 12.0885C29.1598 12.0298 29.0092 11.9996 28.8571 11.9998ZM27.0001 25.4998H9.00012V22.4998L11.9761 16.4728L16.1281 21.6268L20.0251 17.6338L25.0321 15.8263L27.0001 20.9998V25.4998Z" fill="black"/>
</svg>
