<svg width="40" height="34" viewBox="0 0 40 34" fill="none" xmlns="http://www.w3.org/2000/svg">
<path d="M1.875 12.1875H37.5V30H1.875V12.1875Z" fill="#CFD8DC"/>
<path d="M1.875 30H37.5V33.75H1.875V30Z" fill="#B0BEC5"/>
<path d="M22.5 16.875H33.75V33.75H22.5V16.875Z" fill="#455A64"/>
<path d="M5.625 16.875H18.75V27.1875H5.625V16.875Z" fill="#E3F2FD"/>
<path d="M6.5625 17.8125H17.8125V26.25H6.5625V17.8125Z" fill="#1E88E5"/>
<path d="M31.4062 25.7812C31.125 25.7812 30.9375 25.9687 30.9375 26.25V28.125C30.9375 28.4062 31.125 28.5938 31.4062 28.5938C31.6875 28.5938 31.875 28.4062 31.875 28.125V26.25C31.875 25.9687 31.6875 25.7812 31.4062 25.7812Z" fill="#90A4AE"/>
<path d="M19.6875 15C21.2408 15 22.5 13.7408 22.5 12.1875C22.5 10.6342 21.2408 9.375 19.6875 9.375C18.1342 9.375 16.875 10.6342 16.875 12.1875C16.875 13.7408 18.1342 15 19.6875 15Z" fill="#558B2F"/>
<path d="M30.9375 15C32.4908 15 33.75 13.7408 33.75 12.1875C33.75 10.6342 32.4908 9.375 30.9375 9.375C29.3842 9.375 28.125 10.6342 28.125 12.1875C28.125 13.7408 29.3842 15 30.9375 15Z" fill="#558B2F"/>
<path d="M8.4375 15C9.9908 15 11.25 13.7408 11.25 12.1875C11.25 10.6342 9.9908 9.375 8.4375 9.375C6.8842 9.375 5.625 10.6342 5.625 12.1875C5.625 13.7408 6.8842 15 8.4375 15Z" fill="#558B2F"/>
<path d="M34.6875 0H4.6875C3.65625 0 2.8125 0.84375 2.8125 1.875V4.6875H36.5625V1.875C36.5625 0.84375 35.7188 0 34.6875 0ZM16.875 4.6875H22.5V12.1875H16.875V4.6875ZM31.875 4.6875H27.1875L28.125 12.1875H33.75L31.875 4.6875ZM7.5 4.6875H12.1875L11.25 12.1875H5.625L7.5 4.6875Z" fill="#7CB342"/>
<path d="M25.3125 15C26.8658 15 28.125 13.7408 28.125 12.1875C28.125 10.6342 26.8658 9.375 25.3125 9.375C23.7592 9.375 22.5 10.6342 22.5 12.1875C22.5 13.7408 23.7592 15 25.3125 15Z" fill="#FFA000"/>
<path d="M39.375 12.1875C39.375 13.7812 38.1562 15 36.5625 15C34.9688 15 33.75 13.7812 33.75 12.1875C33.75 10.5938 34.9688 9.375 36.5625 9.375L39.375 12.1875Z" fill="#FFA000"/>
<path d="M14.0625 15C15.6158 15 16.875 13.7408 16.875 12.1875C16.875 10.6342 15.6158 9.375 14.0625 9.375C12.5092 9.375 11.25 10.6342 11.25 12.1875C11.25 13.7408 12.5092 15 14.0625 15Z" fill="#FFA000"/>
<path d="M0 12.1875C0 13.7812 1.21875 15 2.8125 15C4.40625 15 5.625 13.7812 5.625 12.1875C5.625 10.5938 4.40625 9.375 2.8125 9.375L0 12.1875Z" fill="#FFA000"/>
<path d="M27.1875 4.6875H22.5V12.1875H28.125L27.1875 4.6875ZM36.5625 4.6875H31.875L33.75 12.1875H39.375L36.5625 4.6875ZM12.1875 4.6875H16.875V12.1875H11.25L12.1875 4.6875ZM2.8125 4.6875H7.5L5.625 12.1875H0L2.8125 4.6875Z" fill="#FFC107"/>
</svg>
