<?xml version="1.0" standalone="no"?>
<svg style="enable-background:new 0 0 512 512" class="" height="512" version="1.1"
    viewBox="0 0 682.667 682.667" width="512" x="0" xmlns="http://www.w3.org/2000/svg" y="0"
    xml:space="preserve">
    <g>
      <defs>
        <clipPath clipPathUnits="userSpaceOnUse" id="a">
          <path d="M0 512h512V0H0Z" fill="#000000" opacity="1" />
        </clipPath>
          <clipPath clipPathUnits="userSpaceOnUse" id="b">
          <path d="M0 512h512V0H0Z" fill="#000000" opacity="1" />
        </clipPath>
      </defs>
        <g clip-path="url(#a)" transform="matrix(1.33333 0 0 -1.33333 0 682.667)">
        <path style="fill-opacity:1;fill-rule:nonzero;stroke:none"
            d="M0 0h-191.751c-34.636 0-62.715-28.079-62.715-62.715v-85.367c0-34.636 28.079-62.715 62.715-62.715h8.338c.376-10.012-.303-22.818-2.87-39.131-1.104-7.011 5.733-12.6 12.417-10.211 15.418 5.513 38.63 18.682 48.882 49.342H0c34.636 0 62.715 28.079 62.715 62.715v85.367C62.715-28.079 34.636 0 0 0"
            fill="#4ecff2" opacity="1" transform="translate(264.466 449.376)" />
            <path
                style="stroke-width:15;stroke-linecap:round;stroke-linejoin:round;stroke-miterlimit:10;stroke-dasharray:none;stroke-opacity:1"
                d="M0 0h-191.751c-34.636 0-62.715-28.079-62.715-62.715v-85.367c0-34.636 28.079-62.715 62.715-62.715h8.338c.376-10.012-.303-22.818-2.87-39.131-1.104-7.011 5.733-12.6 12.417-10.211 15.418 5.513 38.63 18.682 48.882 49.342H0c34.636 0 62.715 28.079 62.715 62.715v85.367C62.715-28.079 34.636 0 0 0Z"
                fill="none" stroke="#FFFFFF" stroke-dasharray="none" stroke-linecap="round"
                stroke-linejoin="round" stroke-miterlimit="10" stroke-width="15"
                transform="translate(264.466 449.376)" />
            <path style="fill-opacity:1;fill-rule:nonzero;stroke:none"
                d="M0 0h148.121c34.637 0 62.715-28.079 62.715-62.715v-85.367c0-34.636-28.078-62.715-62.715-62.715h-8.338c-.376-10.012.303-22.818 2.87-39.131 1.104-7.011-5.733-12.6-12.417-10.211-15.418 5.513-38.63 18.682-48.882 49.342H0c-34.637 0-62.715 28.079-62.715 62.715v85.367C-62.715-28.079-34.637 0 0 0"
                fill="#173ab4" opacity="1" transform="translate(291.164 326.546)" />
            <path
                style="stroke-width:15;stroke-linecap:round;stroke-linejoin:round;stroke-miterlimit:10;stroke-dasharray:none;stroke-opacity:1"
                d="M0 0h136.285C170.922 0 199-28.079 199-62.715v-85.367c0-34.636-28.078-62.715-62.715-62.715h-8.338c-.376-10.012.303-22.818 2.87-39.131 1.104-7.011-5.733-12.6-12.417-10.211-15.418 5.513-38.629 18.682-48.882 49.342h-81.354c-34.637 0-62.715 28.079-62.715 62.715v85.367c0 11.054 2.86 21.441 7.88 30.459"
                fill="none" stroke="#FFFFFF" stroke-dasharray="none" stroke-linecap="round"
                stroke-linejoin="round" stroke-miterlimit="10" stroke-width="15"
                transform="translate(303 326.546)" />
            <path
                style="fill-opacity:1;fill-rule:nonzero;stroke:#FFFFFF;stroke-width:15;stroke-linecap:round;stroke-linejoin:round;stroke-miterlimit:10;stroke-dasharray:none;stroke-opacity:1"
                d="M0 0h96.293" transform="translate(111.308 386.894)" />
            <path
                style="fill-opacity:1;fill-rule:nonzero;stroke:#FFFFFF;stroke-width:15;stroke-linecap:round;stroke-linejoin:round;stroke-miterlimit:10;stroke-dasharray:none;stroke-opacity:1"
                d="M0 0v-19.615" transform="translate(159.455 411.858)" />
            <path
                style="stroke-width:15;stroke-linecap:round;stroke-linejoin:round;stroke-miterlimit:10;stroke-dasharray:none;stroke-opacity:1"
                d="M0 0s0-54.685-76.083-97.398" fill="none" stroke="#FFFFFF" stroke-dasharray="none"
                stroke-linecap="round" stroke-linejoin="round" stroke-miterlimit="10"
                stroke-width="15" transform="translate(188.877 385.705)" />
            <path
                style="stroke-width:15;stroke-linecap:round;stroke-linejoin:round;stroke-miterlimit:10;stroke-dasharray:none;stroke-opacity:1"
                d="M0 0c9.04-19.361 28.018-45.013 67.862-67.382" fill="none" stroke="#FFFFFF"
                stroke-dasharray="none" stroke-linecap="round" stroke-linejoin="round"
                stroke-miterlimit="10" stroke-width="15" transform="translate(138.253 355.688)" />
      </g>
        <text color="" fill="#FFFFFF" font-family="Inter" font-size="150" font-weight="700" x="430"
            y="440">
  A
</text>
    </g>
  </svg>