<svg id="_x30_06-tv" enable-background="new 0 0 512 512" height="512" viewBox="0 0 512 512" width="512" xmlns="http://www.w3.org/2000/svg"><path d="m495.644 80.032h-479.288c-9.019 0-16.356 7.337-16.356 16.356v269.324c0 9.019 7.337 16.356 16.356 16.356h479.288c9.019 0 16.356-7.337 16.356-16.356v-269.324c0-9.019-7.337-16.356-16.356-16.356zm1.783 285.679c0 .967-.817 1.783-1.783 1.783-509.622-.865-481.071 1.797-481.071-1.783v-269.323c0-.966.817-1.783 1.783-1.783h479.288c.966 0 1.783.816 1.783 1.783zm-98.12 52.292c-65.326-28.654-221.434-28.593-286.617.004-3.685 1.617-5.361 5.915-3.745 9.6 1.616 3.683 5.913 5.363 9.601 3.745 61.362-26.922 213.467-26.953 274.907-.004 3.687 1.618 7.984-.061 9.6-3.746 1.617-3.685-.061-7.983-3.746-9.599z"/></svg>