<svg version="1.1" id="Capa_1" xmlns="http://www.w3.org/2000/svg" xmlns:xlink="http://www.w3.org/1999/xlink" x="0px" y="0px" viewBox="0 0 507.034 507.034" style="enable-background:new 0 0 507.034 507.034;" xml:space="preserve">
<g>
	<g>
		<g>
			<path d="M288.89,5.088c-7.812-1.632-15.556-3.464-23.543-3.496c-8.11-0.032-16.139,0.286-24.22,1.004&#10;&#9;&#9;&#9;&#9;c-16.177,1.437-32.391,3.751-48.183,7.582c-29.048,7.047-57.41,18.538-82.457,34.951c-23.547,15.43-44.208,34.902-60.329,58.017&#10;&#9;&#9;&#9;&#9;c-17.118,24.546-27.642,53.182-31.885,82.734c-4.524,31.505-3.573,63.514,0.522,95.019c3.782,29.096,10.751,58.114,25.437,83.791&#10;&#9;&#9;&#9;&#9;c25.58,44.726,73.318,76.244,122.896,87.946c26.044,6.147,55.537,9.69,82.155,4.453c0.412-0.081,0.829-0.136,1.241-0.215&#10;&#9;&#9;&#9;&#9;c-3.905-1.032-7.81-2.064-11.716-3.097c8.422,6.615,17.79,11.921,27.357,16.691c25.113,12.519,51.959,21.31,79.363,27.174&#10;&#9;&#9;&#9;&#9;c22.849,4.889,46.122,7.886,69.434,9.363c13.054,0.827,15.944-16.899,6.284-23.202c-25.157-16.416-44.269-40.213-57.055-67.257&#10;&#9;&#9;&#9;&#9;c-1.382,5.271-2.764,10.542-4.146,15.813c20.184-9.944,39.348-21.779,56.122-36.892c16.37-14.75,30.601-32.074,42.156-50.827&#10;&#9;&#9;&#9;&#9;c23.64-38.366,35.93-83.869,33.008-128.963c-2.983-46.029-19.927-90.681-48.071-127.199&#10;&#9;&#9;&#9;&#9;c-29.079-37.731-69.771-65.146-115.365-78.907c-26.161-7.895-53.931-10.834-81.18-9.081&#10;&#9;&#9;&#9;&#9;c-30.168,1.941-58.685,10.365-86.802,21.09c-5.181,1.976-8.746,6.921-7.175,12.638c1.388,5.049,7.389,9.054,12.638,7.175&#10;&#9;&#9;&#9;&#9;c43.351-15.52,93.203-22.012,138.217-12.451c42.564,9.041,81.544,31.142,110.442,63.199c27.404,30.4,45.52,69.359,51.247,110.315&#10;&#9;&#9;&#9;&#9;c5.457,39.023-2.094,80.302-20.119,115.756c-10.354,20.365-23.337,38.346-39.449,54.366&#10;&#9;&#9;&#9;&#9;c-15.683,15.592-34.33,30.194-54.574,38.658c-5.251,2.195-10.62,7.837-8.072,14.217c13.16,32.959,36.013,60.305,65.61,79.853&#10;&#9;&#9;&#9;&#9;c2.095-7.734,4.189-15.468,6.284-23.202c-34.255-2.36-68.017-8.259-100.748-18.719c-5.995-1.916-11.937-4-17.81-6.264&#10;&#9;&#9;&#9;&#9;c-2.465-0.95-4.911-1.945-7.355-2.948c-1.653-0.679,1.956,0.847,0.348,0.145c-0.697-0.304-1.396-0.601-2.093-0.906&#10;&#9;&#9;&#9;&#9;c-1.205-0.528-2.406-1.065-3.603-1.61c-7.043-3.21-13.962-6.717-20.629-10.653c-3.142-1.855-6.072-4.044-9.186-5.923&#10;&#9;&#9;&#9;&#9;c-4.239-2.557-8.449-1.72-12.936-1.029c-0.427,0.066-0.857,0.12-1.284,0.189c-2.37,0.385,2.856-0.327,1.301-0.174&#10;&#9;&#9;&#9;&#9;c-1.391,0.136-2.778,0.329-4.168,0.474c-3.435,0.359-6.877,0.643-10.327,0.826c-9.538,0.506-19.114,0.337-28.631-0.469&#10;&#9;&#9;&#9;&#9;c-2.661-0.225-5.316-0.509-7.968-0.828c-2.225-0.268-0.557-0.068-0.1-0.003c-0.698-0.099-1.394-0.2-2.089-0.312&#10;&#9;&#9;&#9;&#9;c-1.77-0.286-3.535-0.619-5.295-0.961c-6.345-1.234-12.633-2.767-18.83-4.605c-14.058-4.168-25.562-9.048-38.392-16.45&#10;&#9;&#9;&#9;&#9;c-29.727-17.152-55.507-42.697-69.086-74.523c-14.475-33.928-18.293-72.806-18.123-109.356&#10;&#9;&#9;&#9;&#9;c0.181-38.921,7.933-77.403,29.72-110.193c18.799-28.293,46.055-50.561,76.22-65.823c35.656-18.041,74.88-24.673,114.262-28.184&#10;&#9;&#9;&#9;&#9;c5.078-0.453,10.41-0.249,15.415-1.199c5.103-0.969,10.173-2.148,15.313-3.016C296.211,18.353,295.916,6.555,288.89,5.088&#10;&#9;&#9;&#9;&#9;L288.89,5.088z"/>
		</g>
	</g>
	<path d="M228.051,101.94c-4.271,5.32-5.918,12.815-3.674,19.257c2.244,6.443,8.563,11.423,15.385,11.512&#10;&#9;&#9;c7.4,0.097,13.789-5.024,18.902-10.374c4.22-4.415,8.308-9.898,7.71-15.976c-0.413-4.199-3.146-7.974-6.735-10.193&#10;&#9;&#9;C249.5,89.897,235.4,92.785,228.051,101.94z"/>
	<path d="M229.702,203.583c-2.555,10.76-1.844,22.394-1.106,33.663c1.387,21.163,2.773,50.848,4.16,72.011&#10;&#9;&#9;c0.438,6.684,0.887,13.442,2.458,19.8c1.571,6.357,4.398,12.374,8.619,15.791c4.221,3.418,9.958,3.733,13.864-0.326&#10;&#9;&#9;c3.323-3.454,4.801-9.238,5.916-14.741c7.847-38.728,6.226-83.381-0.909-122.366c-0.994-5.429-2.176-11.039-4.921-15.189&#10;&#9;&#9;C248.247,177.807,232.896,190.132,229.702,203.583z"/>
	<g>
		<g>
			<path d="M252.963,89.072c1.256,0.926-1.624-1.707-2.132-2.05c-1.619-1.091-3.726-1.662-5.616-2.012&#10;&#9;&#9;&#9;&#9;c-3.797-0.704-7.589-0.014-11.158,1.342c-7.16,2.718-13.124,8.178-16.485,15.084c-6.769,13.91-3.266,31.491,12.446,37.041&#10;&#9;&#9;&#9;&#9;c13.062,4.614,31.097,0.9,40.066-9.97c9.265-11.229,8.136-27.859-3.711-36.814c-11.2-8.466-36.707-10.236-41.724,6.124&#10;&#9;&#9;&#9;&#9;c-2.441,7.96,9.554,13.149,13.53,5.704c-0.325,0.609,0.414-0.465,1.16-0.818c0.836-0.396,1.329-0.558,2.297-0.831&#10;&#9;&#9;&#9;&#9;c2.234-0.63,4.612-0.767,6.92-0.788c3.703-0.033,9.192,0.725,11.058,4.551c1.444,2.96-0.497,7.642-2.408,9.994&#10;&#9;&#9;&#9;&#9;c-2.581,3.178-6.759,4.882-10.677,5.593c-3.405,0.618-8.186,0.971-11.36-0.755c-2.765-1.504-2.541-4.974-1.886-7.681&#10;&#9;&#9;&#9;&#9;c0.902-3.733,3.362-6.638,6.592-8.614c2.034-1.245,4.255-1.928,6.455-2.827c1.112-0.454,2.2-0.93,3.262-1.49&#10;&#9;&#9;&#9;&#9;c0.144-0.076,3.746-2.01,2.149-1.428C256.094,96.838,256.573,91.733,252.963,89.072L252.963,89.072z"/>
		</g>
	</g>
	<g>
		<g>
			<path d="M239.886,193.92c3.495-0.942,10.618-2.739,14.039-0.505c2.952,1.929,3.503,7.866,3.935,11.046&#10;&#9;&#9;&#9;&#9;c1.552,11.416,1.191,23.247,1.566,34.742c0.831,25.525,0.801,51.122-0.834,76.624c-0.343,5.355-0.874,11.179-3.092,16.143&#10;&#9;&#9;&#9;&#9;c-0.732,1.639-1.684,3.367-2.987,4.622c-0.353,0.34-0.776,0.689-1.131,0.998c-2.255,1.957-1.055,0.163-0.627,0.302&#10;&#9;&#9;&#9;&#9;c0.952,0.308-0.61-0.623-0.828-0.974c-1.147-1.847-2.203-3.587-2.957-5.627c-2.084-5.639-2.482-11.702-3.05-17.627&#10;&#9;&#9;&#9;&#9;c-2.236-23.348-3.954-46.736-5.511-70.138c-0.444-6.678-0.943-13.352-1.29-20.036c-0.314-6.04-1.125-12.342-0.413-18.375&#10;&#9;&#9;&#9;&#9;c0.559-4.734,2.916-10.835,7.741-12.84c-1.056,0.439,1.141-0.123,0.55-0.096c0.259-0.012,1.78,0.369,2.311,0.547&#10;&#9;&#9;&#9;&#9;c2.568,0.858,4.898,2.844,6.95,4.546c8.378,6.946,19.846-3.968,12.126-12.126c-9.839-10.397-24.403-14.056-35.708-4.011&#10;&#9;&#9;&#9;&#9;c-12.203,10.843-11.172,26.744-10.134,41.559c2.079,29.686,2.546,59.498,3.543,89.234c0.491,14.671,1.987,32.275,14.854,41.728&#10;&#9;&#9;&#9;&#9;c13.613,10.002,28.535-0.545,34.207-13.908c5.982-14.094,5.465-31.37,4.95-46.423c-0.564-16.491-1.232-32.986-1.904-49.473&#10;&#9;&#9;&#9;&#9;c-0.361-8.864-0.931-17.719-1.534-26.57c-0.501-7.346-0.857-14.969-2.955-22.071c-2.031-6.876-6.115-13.301-13.425-15.283&#10;&#9;&#9;&#9;&#9;c-7.852-2.129-15.725,0.299-22.378,4.532C231.025,187.56,234.081,195.484,239.886,193.92L239.886,193.92z"/>
		</g>
	</g>
</g>
<g>
</g>
<g>
</g>
<g>
</g>
<g>
</g>
<g>
</g>
<g>
</g>
<g>
</g>
<g>
</g>
<g>
</g>
<g>
</g>
<g>
</g>
<g>
</g>
<g>
</g>
<g>
</g>
<g>
</g>
</svg>