<svg clip-rule="evenodd" fill-rule="evenodd" stroke-linejoin="round" stroke-miterlimit="2"
    viewBox="0 0 510 510" xmlns="http://www.w3.org/2000/svg">
    <g id="Artboard81">
        <path
            d="m31.495 352.629h-8.748c-8.661 0-15.747-7.086-15.747-15.747v-10.671c0-8.661 7.086-15.747 15.747-15.747h31.66l15.966-32.396c1.045-2.12 2.312-4.046 3.765-5.761v-84.214l-51.67-2.001c-3.323-.129-6.219-2.3-7.276-5.453-1.056-3.153-.052-6.63 2.523-8.735l177.968-145.486c2.946-2.409 7.181-2.409 10.127 0l139.596 114.117v-17.973c0-4.418 3.582-8 8-8h17.151v-18.824c0-4.419 3.582-8 8-8h56.998c4.418 0 8 3.581 8 8v18.824h17.15c4.418 0 8 3.582 8 8v21.297h26.295c4.418 0 8 3.581 8 8v325.53c0 4.418-3.582 8-8 8h-175.889c-3.437 0-6.368-2.168-7.5-5.211-3.591 3.235-8.336 5.211-13.521 5.211h-16.862c-11.132 0-20.24-9.109-20.24-20.241v-12.874h-175.148v12.874c0 11.132-9.108 20.241-20.241 20.241h-16.862c-11.132 0-20.24-9.109-20.24-20.241v-12.874h-11.223c-4.419 0-8-3.582-8-8v-49.398c0-17.454 8.819-32.949 22.221-42.247zm15.027-26.165h-23.522v10.165h18.512zm43.616-63.266c1.551-.263 3.148-.398 4.783-.398h156.986c10.68 0 19.827 5.69 24.548 15.269l15.966 32.395h18.69v-127.217l-110.364-90.221-110.609 90.421zm210.169 63.266 5.009 10.165h18.512v-10.165h-4.717zm-9.337 17.249-28.866-58.571c-1.961-3.979-5.761-6.342-10.197-6.342h-156.986c-2.862 0-5.473.948-7.476 2.724-1.105.979-2.023 2.202-2.721 3.618l-28.866 58.571c1.582-.149 3.185-.224 4.804-.224h2.889l26.33-53.424c1.347-2.733 4.129-4.464 7.176-4.464h152.714c3.047 0 5.829 1.731 7.176 4.464l26.33 53.424h2.89c1.619 0 3.221.075 4.803.224zm33.222-199.854-123.445-100.915-156.551 127.978s34.356 1.33 34.356 1.33l117.131-95.753c2.946-2.408 7.181-2.408 10.127 0l105.301 86.082v-10.722c0-4.419 3.582-8 8-8zm54.365-13.297c-10.138 0-17.151 0-17.151 0v13.297h91.299v-13.297s-7.012 0-17.15 0zm48.998-16v-10.824h-40.998v10.824zm-100.444 337.712v17.115h159.889c0-49.28 0-309.53 0-309.53h-133.594-26.051v150.95c7.103 1.517 12.473 7.863 12.473 15.402v10.671c0 8.661-7.087 15.747-15.747 15.747h-8.748c13.402 9.298 22.221 24.793 22.221 42.247v49.398c0 4.418-3.581 8-8 8zm-50.123 0v12.874c0 2.332 1.908 4.241 4.24 4.241h16.862c2.333 0 4.241-1.908 4.241-4.241v-12.874zm-207.148 0h-25.343v12.874c0 2.332 1.908 4.241 4.24 4.241h16.862c2.333 0 4.241-1.909 4.241-4.241zm11.549-108.785h184.05l-20.644-41.888h-142.762zm261.92 102.823v-260.924c0-4.419 3.582-8 8-8h111.494c4.418 0 8 3.581 8 8v260.924c0 4.418-3.582 8-8 8h-111.494c-4.418 0-8-3.582-8-8zm55.747-252.924h-39.747v36.184h39.747zm55.747 36.184v-36.184h-39.747v36.184zm0 52.185v-36.185h-39.747v36.185zm0 52.185v-36.185h-39.747v36.185zm0 52.185v-36.185h-39.747v36.185zm-39.747 52.185h39.747v-36.185h-39.747zm-55.747-36.185v36.185h39.747v-36.185zm0-52.185v36.185h39.747v-36.185zm0-52.185v36.185h39.747v-36.185zm0-52.185v36.185h39.747v-36.185zm-206.612-21.219v-74.982c0-4.418 3.581-8 8-8h80.1c4.418 0 8 3.582 8 8v74.982c0 4.419-3.582 8-8 8h-80.1c-4.419 0-8-3.581-8-8zm40.05-66.982h-24.05v21.491h24.05zm40.05 21.491v-21.491h-24.05v21.491zm-24.05 37.491h24.05v-21.491h-24.05zm-40.05-21.491v21.491h24.05v-21.491zm-108.035 164.626c-19.464 0-35.388 15.925-35.388 35.388v41.398h296.28v-41.398c0-19.463-15.924-35.388-35.387-35.388zm212.93 9.239c16.101 0 29.154 13.052 29.154 29.155 0 16.101-13.053 29.154-29.154 29.154-16.103 0-29.155-13.053-29.155-29.154 0-16.103 13.052-29.155 29.155-29.155zm0 16c-7.266 0-13.155 5.889-13.155 13.155 0 7.265 5.889 13.154 13.155 13.154 7.265 0 13.154-5.89 13.154-13.154 0-7.266-5.889-13.155-13.154-13.155zm-144.874-8.275h89.392c9.455 0 17.191 7.737 17.191 17.191v8.477c0 9.455-7.736 17.19-17.191 17.19h-89.392c-9.455 0-17.19-7.735-17.19-17.19v-8.477c0-9.455 7.735-17.191 17.19-17.191zm0 16c-.655 0-1.19.536-1.19 1.191v8.477c0 .655.535 1.19 1.19 1.19h89.392c.655 0 1.191-.535 1.191-1.19v-8.477c0-.655-.536-1.191-1.191-1.191zm-55.481-23.725c16.101 0 29.155 13.052 29.155 29.155 0 16.101-13.054 29.154-29.155 29.154-16.102 0-29.155-13.053-29.155-29.154 0-16.103 13.053-29.155 29.155-29.155zm0 16c-7.266 0-13.155 5.889-13.155 13.155 0 7.265 5.89 13.154 13.155 13.154s13.155-5.889 13.155-13.154c0-7.266-5.89-13.155-13.155-13.155z" />
    </g>
</svg>
